<?xml version="1.0" encoding="UTF-8"?>
<svg version="1.1" xmlns="http://www.w3.org/2000/svg" width="512" height="512">
<path d="M0 0 C4.10981776 0.01145936 8.21937595 0.0047632 12.32918453 -0.00714493 C15.55265696 -0.01443926 18.77606973 -0.01204237 21.99954414 -0.00688934 C23.51387121 -0.00557716 25.02820411 -0.00711266 26.54252434 -0.01184845 C46.71759353 -0.06119964 67.78139638 1.5302187 83.2253418 16.01074219 C94.32018567 27.91085699 97.62756405 42.35429063 97.44799805 58.24267578 C97.00706915 69.98720042 93.9705622 80.69550163 86.9753418 90.26074219 C86.49709961 90.94394531 86.01885742 91.62714844 85.52612305 92.33105469 C74.81002583 106.09732567 57.15489767 111.19934347 40.9753418 115.26074219 C42.9553418 116.91074219 44.9353418 118.56074219 46.9753418 120.26074219 C46.6453418 121.25074219 46.3153418 122.24074219 45.9753418 123.26074219 C44.06787109 124.18041992 44.06787109 124.18041992 41.54956055 124.94433594 C40.6167627 125.23042725 39.68396484 125.51651855 38.72290039 125.8112793 C37.71308105 126.10397705 36.70326172 126.3966748 35.6628418 126.69824219 C34.12104248 127.15565796 34.12104248 127.15565796 32.5480957 127.62231445 C22.83109383 130.43410936 12.98599918 132.76713355 2.9753418 134.26074219 C2.07557617 134.40253906 1.17581055 134.54433594 0.2487793 134.69042969 C-3.29653595 134.02035292 -5.04472857 131.58558209 -7.2746582 128.94824219 C-7.99407593 128.13117798 -7.99407593 128.13117798 -8.72802734 127.29760742 C-12.47666651 123.00696638 -16.05327871 118.57606152 -19.62231445 114.13574219 C-22.92534005 110.18285302 -26.42086097 106.4240222 -29.95214844 102.67504883 C-31.32248387 101.2155563 -32.6743495 99.7387828 -34.0246582 98.26074219 C-34.65629883 97.62007813 -35.28793945 96.97941406 -35.9387207 96.31933594 C-37.57906142 93.20976919 -36.59339098 90.63719573 -36.0246582 87.26074219 C-35.37256882 87.25265533 -34.72047943 87.24456848 -34.04862976 87.23623657 C-27.21810489 87.14970513 -20.38785416 87.05018444 -13.55761719 86.94335938 C-11.01371897 86.9052437 -8.46977005 86.87036154 -5.92578125 86.83886719 C-2.25412969 86.79283669 1.41717802 86.73490649 5.08862305 86.67480469 C6.21303299 86.66325348 7.33744293 86.65170227 8.4959259 86.63980103 C20.75722074 86.41427993 32.79083687 85.19012198 41.9753418 76.26074219 C46.25319188 70.21972417 47.57630095 64.59244388 46.9753418 57.26074219 C45.12475764 50.50346631 42.88975626 46.08771625 36.9753418 42.26074219 C30.27883724 38.91248991 24.284913 38.14913027 16.8684082 38.05541992 C16.1847821 38.04552032 15.50115601 38.03562073 14.79681396 38.02542114 C12.55687824 37.99405456 10.31692138 37.969148 8.0769043 37.94433594 C6.51605709 37.9237449 4.95521519 37.90274789 3.39437866 37.88136292 C-0.69903241 37.82636414 -4.79249195 37.77685769 -8.88598633 37.72851562 C-13.06897252 37.67813778 -17.25188899 37.622537 -21.43481445 37.56738281 C-29.63136995 37.46007301 -37.82798406 37.35856856 -46.0246582 37.26074219 C-46.02243759 38.47152435 -46.02021698 39.68230652 -46.01792908 40.92977905 C-45.99769024 52.31945141 -45.98268247 63.70912014 -45.97284603 75.09880638 C-45.9676191 80.95487592 -45.96052487 86.81093098 -45.94921875 92.66699219 C-45.93838316 98.31444059 -45.93237993 103.96187504 -45.92978096 109.60933304 C-45.92792793 111.76798345 -45.92430964 113.92663306 -45.91892815 116.08527756 C-45.91170884 119.10000024 -45.91066764 122.11466465 -45.91113281 125.12939453 C-45.90753754 126.02922562 -45.90394226 126.9290567 -45.90023804 127.8561554 C-45.91060604 134.03263786 -45.91060604 134.03263786 -47.0246582 136.26074219 C-61.79267439 135.9593541 -86.02713829 133.2582621 -97.0246582 122.26074219 C-97.31227112 119.220047 -97.31227112 119.220047 -97.36279297 115.26000977 C-97.37432907 114.53944397 -97.38586517 113.81887817 -97.39775085 113.07647705 C-97.43213492 110.68605405 -97.45057819 108.29588982 -97.46606445 105.90527344 C-97.47296736 105.08840246 -97.47987026 104.27153149 -97.48698235 103.42990685 C-97.5228553 99.10357842 -97.54637198 94.777381 -97.56005859 90.45092773 C-97.57657986 85.98937435 -97.63495181 81.52941361 -97.70320225 77.06839466 C-97.74807555 73.63244521 -97.7615597 70.19687368 -97.76667595 66.76065636 C-97.77455492 65.11681001 -97.79415623 63.472975 -97.82589912 61.82941628 C-98.05839655 48.93666063 -98.05839655 48.93666063 -95.48419189 44.76330566 C-93.7539793 43.04559225 -91.98727504 41.69413308 -90.0246582 40.26074219 C-88.03426318 37.21731164 -88.03426318 37.21731164 -86.6496582 34.13574219 C-86.16754883 33.14316406 -85.68543945 32.15058594 -85.1887207 31.12792969 C-83.09901129 25.98079307 -82.91040343 21.48600304 -82.9621582 15.94824219 C-82.97569336 14.06685547 -82.97569336 14.06685547 -82.98950195 12.14746094 C-83.00110352 11.19484375 -83.01270508 10.24222656 -83.0246582 9.26074219 C-77.19787044 6.90993471 -71.56847856 5.35489601 -65.3996582 4.19824219 C-64.61848633 4.03775391 -63.83731445 3.87726563 -63.0324707 3.71191406 C-42.23028067 -0.26028327 -21.0837628 -0.05932882 0 0 Z " fill="#FEFEFE" transform="translate(256.024658203125,148.7392578125)"/>
<path d="M0 0 C15.37501632 2.51799275 27.73514659 5.15354069 37.73828125 18.28125 C42.50536222 26.33828825 42.30522818 35.51679264 40.18359375 44.4296875 C33.32603116 64.35723872 15.06284278 79.66085468 -2 91 C-2.56702637 91.37930664 -3.13405273 91.75861328 -3.71826172 92.14941406 C-19.97708094 102.85034756 -38.3297779 111.54256416 -56.90136719 117.34228516 C-59.13265898 118.04157553 -61.35058235 118.77661331 -63.5703125 119.51171875 C-109.75382814 134.44323132 -163.81438496 137.37261879 -208.13574219 114.97607422 C-212.66140581 112.60656097 -216.88116167 110.02048144 -221 107 C-221.99515625 106.27296875 -222.9903125 105.5459375 -224.015625 104.796875 C-237.29546433 94.45328155 -245.79342314 80.86260589 -248 64 C-249.87950114 45.96338377 -241.00709139 30.02487806 -230.13671875 16.44921875 C-228 14 -228 14 -226 13 C-226.3830257 16.73450058 -227.25733006 19.7160225 -228.875 23.0625 C-235.06118785 36.58631942 -236.26361514 51.8582367 -231.31640625 65.94140625 C-223.36717386 84.41098775 -207.87334044 95.25432549 -189.70703125 102.625 C-139.2014817 121.35835452 -82.40235398 111.74620227 -34.36694336 90.04223633 C-11.32337066 79.32506901 15.13305638 63.24476299 26.25 39.30859375 C28.54271432 32.76821673 28.76950999 26.26808846 26.08984375 19.8046875 C21.1537523 11.00338547 13.15016089 7.28390766 4 4 C2.33109544 3.33895552 0.66379807 2.67379389 -1 2 C-0.67 1.34 -0.34 0.68 0 0 Z " fill="#FDFEFE" transform="translate(356,179)"/>
<path d="M0 0 C1.81176758 1.45532227 1.81176758 1.45532227 3.64453125 3.31640625 C4.32193359 3.99896484 4.99933594 4.68152344 5.69726562 5.38476562 C6.74430664 6.46274414 6.74430664 6.46274414 7.8125 7.5625 C8.49892578 8.25408203 9.18535156 8.94566406 9.89257812 9.65820312 C13.86765966 13.69345619 17.64769434 17.85057785 21.34985352 22.13598633 C23.80029668 24.90401911 26.41717338 27.48247933 29.0625 30.0625 C33.25935545 34.21353825 37.35564234 38.34332077 41 43 C41 43.66 41 44.32 41 45 C32.28978903 45.23249723 23.5806578 45.40977318 14.86801243 45.51812172 C10.82145069 45.57014661 6.77702291 45.64060319 2.73168945 45.75439453 C-1.17832679 45.86368138 -5.08630192 45.92296658 -8.99772835 45.94877243 C-10.48384797 45.96714105 -11.9698653 46.00301591 -13.45510674 46.05730057 C-25.06000784 46.46428058 -25.06000784 46.46428058 -29.85134888 42.84783936 C-32.12862843 40.33603094 -34.0708965 37.78377214 -36 35 C-37.16926887 33.65065041 -38.3534783 32.31384952 -39.5625 31 C-43.52811251 26.45723262 -47.26570836 21.7333359 -51 17 C-50 15 -50 15 -47.70947266 14.16552734 C-46.7044873 13.8917627 -45.69950195 13.61799805 -44.6640625 13.3359375 C-43.54523682 13.02197021 -42.42641113 12.70800293 -41.27368164 12.38452148 C-40.0696167 12.05137939 -38.86555176 11.7182373 -37.625 11.375 C-28.00446529 8.64600957 -18.80300146 5.58892168 -9.73876953 1.35107422 C-3.63908655 -1.44073051 -3.63908655 -1.44073051 0 0 Z " fill="#FDFEFE" transform="translate(326,292)"/>
<path d="M0 0 C15.37501632 2.51799275 27.73514659 5.15354069 37.73828125 18.28125 C42.50536222 26.33828825 42.30522818 35.51679264 40.18359375 44.4296875 C33.32603116 64.35723872 15.06284278 79.66085468 -2 91 C-2.56702637 91.37930664 -3.13405273 91.75861328 -3.71826172 92.14941406 C-15.73803411 100.06036893 -28.91433406 106.0867293 -42 112 C-42.92731934 112.42200684 -43.85463867 112.84401367 -44.81005859 113.27880859 C-45.68098145 113.65473145 -46.5519043 114.0306543 -47.44921875 114.41796875 C-48.20936279 114.74949951 -48.96950684 115.08103027 -49.75268555 115.42260742 C-52.53675947 116.13790724 -54.26453113 115.82897246 -57 115 C-59.640625 113.0390625 -59.640625 113.0390625 -62.25 110.625 C-63.12140625 109.83351563 -63.9928125 109.04203125 -64.890625 108.2265625 C-67 106 -67 106 -68 103 C-67.26587891 102.73896484 -66.53175781 102.47792969 -65.77539062 102.20898438 C-51.75400663 97.19570306 -38.09296546 92.11608135 -25 85 C-23.60974609 84.30390625 -23.60974609 84.30390625 -22.19140625 83.59375 C-3.12211749 73.84659498 19.72516466 57.92185169 27.125 36.8125 C28.71246201 30.10384204 28.34121556 23.81899791 24.9375 17.75 C19.66629628 10.2799513 12.37498888 7.00570564 4 4 C2.33109544 3.33895552 0.66379807 2.67379389 -1 2 C-0.67 1.34 -0.34 0.68 0 0 Z " fill="#01A1E6" transform="translate(356,179)"/>
<path d="M0 0 C2.8353397 0.6973651 5.62996145 1.45300015 8.4375 2.25 C20.81406472 5.63524399 33.30870822 7.96950646 46.12890625 8.7890625 C48 9 48 9 49 10 C49 17.26 49 24.52 49 32 C32.5 32 16 32 -1 32 C-1.020625 26.905625 -1.04125 21.81125 -1.0625 16.5625 C-1.071604 14.95318604 -1.08070801 13.34387207 -1.09008789 11.68579102 C-1.09258545 10.42951904 -1.09508301 9.17324707 -1.09765625 7.87890625 C-1.10289307 6.5854126 -1.10812988 5.29191895 -1.11352539 3.95922852 C-1 1 -1 1 0 0 Z " fill="#FEFEFE" transform="translate(160,305)"/>
<path d="M0 0 C4.57498557 3.40464042 8.8610727 7.52071811 10.6875 13 C11.72855375 20.27250408 9.83428751 25.99579725 5.6875 32 C0.61949143 36.81460815 -4.90692684 37.29408782 -11.58984375 37.21484375 C-17.70931197 36.73195888 -21.42537339 33.51747146 -25.3125 29 C-28.78009445 23.85839444 -29.11299914 19.01305171 -28.3125 13 C-26.71490611 6.97174573 -23.22454859 3.26648237 -17.94921875 0.06640625 C-12.05157643 -2.31886242 -5.99137553 -1.80871714 0 0 Z " fill="#009FE5" transform="translate(153.3125,148)"/>
<path d="M0 0 C2.52299636 0.42706181 5.04287824 0.86629386 7.5625 1.3125 C8.26697266 1.43044922 8.97144531 1.54839844 9.69726562 1.66992188 C14.50421622 2.53384387 18.57627516 3.92474406 23 6 C22.34 6.66 21.68 7.32 21 8 C21 8.66 21 9.32 21 10 C21.825 10.825 22.65 11.65 23.5 12.5 C26 15 26 15 26 17 C26.66 17 27.32 17 28 17 C28 17.99 28 18.98 28 20 C27.34 20 26.68 20 26 20 C25.46375 19.13375 24.9275 18.2675 24.375 17.375 C19.62469426 9.97011164 11.98169509 6.86455615 4 4 C2.33109544 3.33895552 0.66379807 2.67379389 -1 2 C-0.67 1.34 -0.34 0.68 0 0 Z " fill="#03B1EE" transform="translate(356,179)"/>
<path d="M0 0 C5.94 0.99 5.94 0.99 12 2 C12 2.99 12 3.98 12 5 C9.18185434 6.40907283 7.82722796 5.50872691 4.875 4.5625 C3.96492188 4.27503906 3.05484375 3.98757812 2.1171875 3.69140625 C1.41851562 3.46324219 0.71984375 3.23507813 0 3 C0 2.01 0 1.02 0 0 Z " fill="#51D3F6" transform="translate(356,179)"/>
<path d="M0 0 C0.99 0 1.98 0 3 0 C3.02690844 2.62506802 3.04679404 5.24986173 3.0625 7.875 C3.07087891 8.62136719 3.07925781 9.36773437 3.08789062 10.13671875 C3.11328125 15.7734375 3.11328125 15.7734375 2 18 C1.34 18 0.68 18 0 18 C0.08378906 17.11957031 0.16757812 16.23914063 0.25390625 15.33203125 C0.35574219 14.17058594 0.45757812 13.00914062 0.5625 11.8125 C0.66691406 10.66394531 0.77132813 9.51539063 0.87890625 8.33203125 C0.98859985 5.31368801 0.74002389 2.91076064 0 0 Z " fill="#00B7F2" transform="translate(383,200)"/>
<path d="M0 0 C0.66 0 1.32 0 2 0 C1.46608326 4.53829228 -0.19666732 7.4179638 -3 11 C-5.5625 12.9375 -5.5625 12.9375 -8 14 C-8.99 13.67 -9.98 13.34 -11 13 C-9.6078125 12.1028125 -9.6078125 12.1028125 -8.1875 11.1875 C-3.22930764 7.78481897 -1.69199681 5.85691204 0 0 Z " fill="#01AFF0" transform="translate(161,170)"/>
<path d="M0 0 C0.66 0 1.32 0 2 0 C1.34 4.62 0.68 9.24 0 14 C-0.66 14 -1.32 14 -2 14 C-2.3690205 4.58997722 -2.3690205 4.58997722 0 0 Z " fill="#00AAEB" transform="translate(127,156)"/>
<path d="M0 0 C-0.99 0 -1.98 0 -3 0 C-3 0.66 -3 1.32 -3 2 C-2.195625 2.28875 -1.39125 2.5775 -0.5625 2.875 C2 4 2 4 3 6 C-0.42267755 4.79743762 -2.55684199 3.66526328 -5 1 C-5.99 0.34 -6.98 -0.32 -8 -1 C-4.59745511 -2.2151946 -3.06748874 -1.86240388 0 0 Z " fill="#09BBF2" transform="translate(372,183)"/>
<path d="M0 0 C0.66 0.33 1.32 0.66 2 1 C-0.97 4.96 -0.97 4.96 -4 9 C-4.33 8.01 -4.66 7.02 -5 6 C-3.59554165 3.7363436 -1.8032087 1.9791315 0 0 Z " fill="#00AEF0" transform="translate(390,232)"/>
</svg>
