<?xml version="1.0" encoding="UTF-8"?>
<svg version="1.1" xmlns="http://www.w3.org/2000/svg" width="310" height="310">
<path d="M0 0 C3.91127746 0.01146252 7.82228224 0.00475797 11.73355007 -0.00714493 C14.8095141 -0.01445033 17.88541578 -0.01203749 20.96138191 -0.00688934 C22.40231422 -0.00558035 23.8432527 -0.00710062 25.28417778 -0.01184845 C45.64776603 -0.06434083 66.83046414 1.47596076 82.48657227 15.94824219 C93.89042039 28.02019455 96.77491286 43.41973437 96.51391602 59.44042969 C95.9463668 73.53033318 90.97215899 85.94702459 81.23657227 96.26074219 C68.47743423 106.56619983 54.87204369 111.21856861 39.23657227 115.26074219 C41.54657227 117.24074219 43.85657227 119.22074219 46.23657227 121.26074219 C45.23657227 123.26074219 45.23657227 123.26074219 43.23730469 124.06689453 C42.36436768 124.32422363 41.49143066 124.58155273 40.59204102 124.84667969 C39.12504761 125.28077148 39.12504761 125.28077148 37.62841797 125.72363281 C36.57098389 126.02462891 35.5135498 126.325625 34.42407227 126.63574219 C32.81181763 127.09883789 32.81181763 127.09883789 31.16699219 127.57128906 C24.17455365 129.53747766 17.1642805 131.29897923 10.04907227 132.76074219 C8.82256958 133.01863525 8.82256958 133.01863525 7.57128906 133.28173828 C0.02010874 134.74212684 0.02010874 134.74212684 -3.76342773 133.26074219 C-5.90405273 131.36230469 -5.90405273 131.36230469 -8.01342773 128.88574219 C-8.79202148 127.98082031 -9.57061523 127.07589844 -10.37280273 126.14355469 C-13.44088174 122.44381236 -16.48388247 118.72498807 -19.50561523 114.98730469 C-21.73134929 112.29948051 -24.03525036 109.71227199 -26.38842773 107.13574219 C-29.26941497 103.94535315 -32.1367882 100.75130155 -34.88842773 97.44824219 C-35.46850586 96.76117188 -36.04858398 96.07410156 -36.64624023 95.36621094 C-37.76342773 93.26074219 -37.76342773 93.26074219 -37.50561523 90.56152344 C-36.76342773 88.26074219 -36.76342773 88.26074219 -35.76342773 87.26074219 C-34.14470712 87.15346785 -32.52140062 87.11450766 -30.89916992 87.10302734 C-29.86008484 87.0927652 -28.82099976 87.08250305 -27.75042725 87.07192993 C-26.61518616 87.0646286 -25.47994507 87.05732727 -24.31030273 87.04980469 C-21.91185881 87.02170197 -19.51342141 86.99303735 -17.11499023 86.96386719 C-13.33016378 86.92284455 -9.5454548 86.8859672 -5.76049805 86.859375 C-2.11017381 86.83149525 1.53959302 86.78558616 5.18969727 86.73730469 C6.30064758 86.73405182 7.4115979 86.73079895 8.55621338 86.72744751 C21.67657818 86.52561273 33.26426318 84.41182843 42.67407227 74.76074219 C46.51428696 68.61639867 47.09231401 62.36843243 46.23657227 55.26074219 C45.40912382 52.9768347 44.44332156 51.00477684 43.20922852 48.91699219 C42.23657227 47.26074219 42.23657227 47.26074219 41.23657227 44.26074219 C39.48789743 43.17643125 39.48789743 43.17643125 37.23657227 42.26074219 C36.26719727 41.74511719 35.29782227 41.22949219 34.29907227 40.69824219 C29.16392882 38.28786873 24.5127762 38.122639 18.87597656 38.05541992 C18.14187215 38.0453872 17.40776773 38.03535448 16.65141773 38.02501774 C14.28790701 37.99377135 11.92437943 37.96891912 9.56079102 37.94433594 C8.09647085 37.92591969 6.63215592 37.90708233 5.16784668 37.88781738 C-0.24668287 37.81952602 -5.66131261 37.75937328 -11.07592773 37.69824219 C-29.23624023 37.48167969 -29.23624023 37.48167969 -47.76342773 37.26074219 C-47.76342773 69.60074219 -47.76342773 101.94074219 -47.76342773 135.26074219 C-52.02723998 136.68201294 -55.56497136 135.80567152 -59.95092773 135.13574219 C-60.84279785 134.99958496 -61.73466797 134.86342773 -62.65356445 134.72314453 C-73.46604165 132.95929774 -89.7363222 130.28784772 -97.76342773 122.26074219 C-97.90011661 119.97297375 -97.96546486 117.6809301 -98.00390625 115.3894043 C-98.01690262 114.67059082 -98.02989899 113.95177734 -98.04328918 113.21118164 C-98.17035056 105.66854369 -98.22682527 98.12476715 -98.27832031 90.58129883 C-98.30502015 87.00449499 -98.35367722 83.429032 -98.421875 79.8527832 C-98.50404146 75.53316839 -98.54653846 71.214826 -98.5613842 66.89447212 C-98.57360097 65.25138927 -98.59956286 63.6083463 -98.63983345 61.96571159 C-98.93978293 49.07971364 -98.93978293 49.07971364 -95.99165344 44.52108765 C-94.01502189 42.55235777 -91.99151054 40.92880864 -89.76342773 39.26074219 C-87.91404743 36.57331064 -87.91404743 36.57331064 -86.82592773 34.01074219 C-86.4456543 33.20121094 -86.06538086 32.39167969 -85.67358398 31.55761719 C-83.52895805 26.14542812 -83.75272031 21.47487884 -84.15405273 15.66113281 C-84.21655273 13.69433594 -84.21655273 13.69433594 -83.76342773 10.26074219 C-79.7174369 6.21475135 -72.82005639 5.75848005 -67.38842773 4.69824219 C-65.92276367 4.3859668 -65.92276367 4.3859668 -64.42749023 4.06738281 C-43.19266769 -0.16630993 -21.55758429 -0.06366762 0 0 Z " fill="#FDFDFE" transform="translate(158.763427734375,60.7392578125)"/>
<path d="M0 0 C15.27718952 2.68878536 26.11806478 5.84066286 36.73828125 17.98828125 C41.52838119 24.93729947 41.11452755 33.93028064 40 42 C34.0540906 65.59271389 9.74461707 83.43456244 -9.9609375 95.45703125 C-25.73558151 104.75280362 -42.52207457 112.54466343 -60 118 C-60.77714355 118.2470166 -61.55428711 118.4940332 -62.35498047 118.74853516 C-85.94893973 126.16243798 -109.60963582 130.22838074 -134.3125 130.25 C-135.11102386 130.25100708 -135.90954773 130.25201416 -136.73226929 130.25305176 C-149.35740326 130.24229848 -161.61764183 129.67087238 -174 127 C-174.67675781 126.85546387 -175.35351562 126.71092773 -176.05078125 126.56201172 C-195.62850386 122.20336194 -213.91206875 114.40271729 -229 101 C-229.70769531 100.37480469 -230.41539062 99.74960938 -231.14453125 99.10546875 C-241.16629607 89.69689031 -247.53211762 77.69534257 -249 64 C-249.2844907 44.79687749 -242.16805771 28.07140732 -229 14 C-228.34 14 -227.68 14 -227 14 C-228.01653094 18.70573872 -229.96074721 23.06025274 -231.74609375 27.515625 C-236.10532662 39.62913192 -237.63242511 54.45395134 -232.33203125 66.515625 C-229.8153377 71.20951678 -227.07903418 75.65392963 -224 80 C-223.34257812 80.95519531 -223.34257812 80.95519531 -222.671875 81.9296875 C-212.0022715 95.87730172 -191.32743364 103.59087198 -175 108 C-174.28215332 108.19754883 -173.56430664 108.39509766 -172.82470703 108.59863281 C-146.3803502 115.49029501 -115.44028468 113.98438857 -89 108 C-88.06446289 107.79632813 -87.12892578 107.59265625 -86.16503906 107.3828125 C-48.76916916 99.0640608 -1.29088703 81.05730773 20.875 47.4375 C25.48002837 39.74464518 28.30612578 33.12836798 27 24 C24.21214403 15.411605 17.83227869 10.03401645 10 6 C6.37649281 4.52765143 2.71473481 3.22231164 -1 2 C-0.67 1.34 -0.34 0.68 0 0 Z " fill="#FCFDFD" transform="translate(259,91)"/>
<path d="M0 0 C6.66811942 2.94181739 11.59415055 9.35857236 16.2578125 14.76953125 C19.98186806 19.04796891 23.95227242 23.02981509 28 27 C42.36242884 41.08728653 42.36242884 41.08728653 44 46 C35.34204275 46.3261552 26.68623497 46.57398574 18.02344894 46.72537041 C13.99941027 46.7980803 9.97960748 46.89643128 5.95800781 47.05615234 C-22.212023 48.14589257 -22.212023 48.14589257 -28.62988281 43.07397461 C-31.82878062 39.75404342 -33.87716932 36.07053625 -36 32 C-37.80081206 29.72129265 -37.80081206 29.72129265 -39.578125 27.89453125 C-40.03574219 27.36666016 -40.49335938 26.83878906 -40.96484375 26.29492188 C-41.86300766 25.25889391 -42.76715879 24.22803972 -43.67578125 23.20117188 C-47 19.33906933 -47 19.33906933 -47 16 C-46.07441284 15.74476563 -46.07441284 15.74476563 -45.13012695 15.484375 C-22.05320259 9.17322053 -22.05320259 9.17322053 0 0 Z " fill="#FDFDFE" transform="translate(225,203)"/>
<path d="M0 0 C15.27718952 2.68878536 26.11806478 5.84066286 36.73828125 17.98828125 C41.52838119 24.93729947 41.11452755 33.93028064 40 42 C34.0540906 65.59271389 9.74461707 83.43456244 -9.9609375 95.45703125 C-22.20268938 102.66762912 -35.23579923 108.78178919 -48.3203125 114.29296875 C-49.09906738 114.62192139 -49.87782227 114.95087402 -50.68017578 115.28979492 C-53.28995397 116.08876827 -55.28585594 116.27500262 -58 116 C-60.5 113.875 -60.5 113.875 -63 111 C-63.47050781 110.47277344 -63.94101563 109.94554687 -64.42578125 109.40234375 C-68 105.30457746 -68 105.30457746 -68 103 C-67.06542969 102.6596875 -66.13085938 102.319375 -65.16796875 101.96875 C-31.60677252 89.6362562 7.77208642 73.41631669 25.09765625 39.875 C27.59817065 34.10637143 28.23121966 27.7929509 26.2734375 21.76171875 C22.38787291 13.37458542 15.44625037 8.21298828 7.0390625 4.796875 C4.37123641 3.8230156 1.69761209 2.88763339 -1 2 C-0.67 1.34 -0.34 0.68 0 0 Z " fill="#00A0E5" transform="translate(259,91)"/>
<path d="M0 0 C4.0113168 0.53960193 7.93513914 1.14470624 11.86328125 2.12109375 C22.41539343 4.67132458 32.72522579 6.67924436 43.54296875 7.640625 C47 8 47 8 50 9 C50 16.26 50 23.52 50 31 C43.03991698 31.02290338 36.07996367 31.04283219 29.11987305 31.05493164 C26.75007688 31.05997341 24.38028385 31.06680665 22.01049805 31.07543945 C18.61245961 31.0875119 15.21446215 31.09322971 11.81640625 31.09765625 C10.74975235 31.10281754 9.68309845 31.10797882 8.5841217 31.11329651 C7.60318039 31.11337204 6.62223907 31.11344757 5.61157227 31.11352539 C4.74331314 31.115746 3.87505402 31.11796661 2.98048401 31.12025452 C1 31 1 31 0 30 C-0.08783542 27.78144736 -0.10694609 25.56011504 -0.09765625 23.33984375 C-0.0962413 22.67537735 -0.09482635 22.01091095 -0.09336853 21.3263092 C-0.08775518 19.19666101 -0.07520054 17.06711661 -0.0625 14.9375 C-0.05748671 13.49674631 -0.05292351 12.05599097 -0.04882812 10.61523438 C-0.03778145 7.07678898 -0.02050792 3.53840461 0 0 Z " fill="#FDFDFE" transform="translate(61,218)"/>
<path d="M0 0 C5.42045535 3.83398062 8.50637419 7.42768826 10.5625 13.8125 C11.26484849 20.13363637 10.25862467 24.58620127 6.5625 29.8125 C1.92481957 34.77298882 -1.87370037 36.89215433 -8.6875 37.125 C-14.57324093 37.02835401 -18.97640218 35.16659357 -23.234375 31.09375 C-27.71897164 26.05391759 -28.79721075 22.16742008 -28.71875 15.44921875 C-28.13869038 10.01115982 -25.85665358 6.1606959 -21.9375 2.4375 C-15.05036024 -2.03914084 -7.87540076 -2.72059299 0 0 Z " fill="#009EE4" transform="translate(55.4375,60.1875)"/>
<path d="M0 0 C15.74487472 2.89066059 15.74487472 2.89066059 23 6 C22.01 6.66 21.02 7.32 20 8 C20.33 9.32 20.66 10.64 21 12 C18.89399796 10.95182926 16.79427005 9.8939861 14.703125 8.81640625 C9.55532224 6.1851249 4.45376744 3.91891817 -1 2 C-0.67 1.34 -0.34 0.68 0 0 Z " fill="#05B4EF" transform="translate(259,91)"/>
<path d="M0 0 C0.66 0.33 1.32 0.66 2 1 C0.51131293 5.60139641 -1.74629855 8.50227094 -5 12 C-5.66 12 -6.32 12 -7 12 C-7 12.66 -7 13.32 -7 14 C-9 15.625 -9 15.625 -11 17 C-11.66 16.67 -12.32 16.34 -13 16 C-12.39671875 15.34773437 -11.7934375 14.69546875 -11.171875 14.0234375 C-7.06829241 9.53597138 -3.15299809 5.20930119 0 0 Z " fill="#00ADF1" transform="translate(283,134)"/>
<path d="M0 0 C1.8141927 0.28094582 3.62635001 0.57506433 5.4375 0.875 C6.95150391 1.11863281 6.95150391 1.11863281 8.49609375 1.3671875 C9.32238281 1.57601562 10.14867187 1.78484375 11 2 C11.33 2.66 11.66 3.32 12 4 C7.02398374 5.71050559 3.57383705 4.00885647 -1 2 C-0.67 1.34 -0.34 0.68 0 0 Z " fill="#1FB1E3" transform="translate(259,91)"/>
<path d="M0 0 C0.66 0 1.32 0 2 0 C1.8125 1.8125 1.8125 1.8125 1 4 C-1.5625 5.75 -1.5625 5.75 -4 7 C-2.92598892 4.08482708 -2.22189824 2.22189824 0 0 Z " fill="#CEE1F6" transform="translate(30,105)"/>
</svg>
