<?xml version="1.0" encoding="UTF-8"?>
<svg version="1.1" xmlns="http://www.w3.org/2000/svg" width="932" height="621">
<path d="M0 0 C7.82127067 7.88840604 10.64061253 18.20281092 11.0703125 29.0234375 C10.88913473 39.67669053 7.48884486 50.27599772 -0.21875 57.8359375 C-8.58337368 64.6931555 -17.72937696 68.3922337 -28.1796875 70.8359375 C-26.8596875 72.1559375 -25.5396875 73.4759375 -24.1796875 74.8359375 C-30.62100559 79.29531156 -38.41730828 80.53598027 -45.93164062 82.28027344 C-47.78210286 82.73766397 -49.60442059 83.30740715 -51.4140625 83.90625 C-54.5663015 84.71762513 -56.08338452 84.90523132 -59.1796875 83.8359375 C-63.68050455 80.21067673 -67.08850706 75.49620624 -70.55566406 70.91796875 C-72.12620826 68.90449898 -73.76857252 67.00753027 -75.484375 65.1171875 C-76.00193359 64.54178223 -76.51949219 63.96637695 -77.05273438 63.37353516 C-78.03331319 62.28807648 -79.02131566 61.2092655 -80.01757812 60.13818359 C-81.328125 58.640625 -81.328125 58.640625 -83.1796875 55.8359375 C-82.79541016 53.16064453 -82.79541016 53.16064453 -82.1796875 50.8359375 C-80.62241943 50.8062085 -80.62241943 50.8062085 -79.03369141 50.77587891 C-75.13828509 50.69912522 -71.24321886 50.61052277 -67.34814453 50.51855469 C-65.67047904 50.48055036 -63.99273996 50.44565078 -62.31494141 50.4140625 C-44.03692011 50.6883695 -44.03692011 50.6883695 -28.1796875 42.8359375 C-25.38610668 38.12176987 -24.58634529 34.27490774 -25.1796875 28.8359375 C-27.01313878 23.64115888 -29.2448035 21.26009105 -34.1796875 18.8359375 C-45.10921319 15.84647962 -56.71446434 16.61292356 -67.9296875 16.7109375 C-74.6121875 16.7521875 -81.2946875 16.7934375 -88.1796875 16.8359375 C-88.5096875 39.2759375 -88.8396875 61.7159375 -89.1796875 84.8359375 C-102.0340947 84.8359375 -113.0803105 82.47089842 -124.1796875 75.8359375 C-125.79482983 74.22079517 -125.36411459 72.43452476 -125.42016602 70.19946289 C-125.44591202 69.21075699 -125.47165802 68.22205109 -125.4981842 67.2033844 C-125.58244733 62.64247005 -125.64832283 58.0817249 -125.69458008 53.52026367 C-125.72611011 51.12155609 -125.77374767 48.72300174 -125.83813477 46.32495117 C-125.92990167 42.86057066 -125.96829558 39.39901046 -125.99609375 35.93359375 C-126.03424698 34.87278091 -126.07240021 33.81196808 -126.11170959 32.7190094 C-126.09240297 25.23407924 -124.11175987 21.43199291 -119.04747009 15.93992615 C-114.25553082 10.54198215 -114.93390204 3.62234712 -115.1796875 -3.1640625 C-109.96772549 -5.62890054 -105.18351818 -6.94927028 -99.4921875 -7.7890625 C-98.24018555 -7.97625854 -98.24018555 -7.97625854 -96.96289062 -8.16723633 C-69.87688561 -11.98920352 -22.61125194 -18.03407543 0 0 Z " fill="#FEFEFE" transform="translate(251.1796875,246.1640625)"/>
<path d="M0 0 C9.75032712 1.36217805 17.3974193 3.29698918 24 11 C24.763125 11.825 25.52625 12.65 26.3125 13.5 C29.54521146 20.20488303 28.98445714 28.05847798 26.6875 35.0625 C23.91861194 41.13427596 19.17866356 45.81077781 14.51367188 50.47973633 C13.44889406 51.54915108 12.39935327 52.63384696 11.36132812 53.72924805 C7.29735817 57.95718055 3.07538079 61.30477368 -1.875 64.4375 C-2.61766113 64.90849121 -3.36032227 65.37948242 -4.12548828 65.86474609 C-39.22609218 87.66640947 -83.6715407 97.76714114 -124.2734375 88.47998047 C-140.57544632 84.30371035 -157.32023192 76.89017342 -167 62.5625 C-172.34595018 53.35772248 -174.54486177 44.37487585 -172.34375 33.8671875 C-169.86989215 24.84613688 -166.02337788 15.38410884 -158 10 C-158.61015994 14.29038782 -159.65592612 18.15631545 -161.0625 22.25 C-164.23915131 32.5130273 -163.70279523 40.27310055 -159 50 C-150.6171838 64.13670187 -135.88593213 71.24558728 -120.47265625 75.22265625 C-84.00061507 83.38681395 -41.88764597 74.80068379 -10.25 55.0625 C-0.04117234 48.39416947 10.16577835 40.95272094 16 30 C16.36996094 29.35675781 16.73992187 28.71351563 17.12109375 28.05078125 C18.78743761 24.16264557 18.51146118 20.13758976 18 16 C14.46400826 8.19135157 6.5823399 5.00134288 -1 2 C-0.67 1.34 -0.34 0.68 0 0 Z " fill="#FDFEFE" transform="translate(264,257)"/>
<path d="M0 0 C1.08784335 3.31395986 1.07262544 3.83580335 -0.4375 7.25 C-0.953125 8.1575 -1.46875 9.065 -2 10 C-2.6290625 9.84402344 -3.258125 9.68804687 -3.90625 9.52734375 C-9.68856288 8.21239007 -14.16754686 7.91991608 -20 9 C-20 10.65 -20 12.3 -20 14 C-18.90300781 14.37511719 -17.80601562 14.75023437 -16.67578125 15.13671875 C-15.22108923 15.65289979 -13.76667664 16.1698688 -12.3125 16.6875 C-11.59126953 16.93177734 -10.87003906 17.17605469 -10.12695312 17.42773438 C-4.07787079 19.60982344 -0.60810351 22.58784473 3 28 C3.09796875 27.40832031 3.1959375 26.81664062 3.296875 26.20703125 C4.47505827 19.98094206 6.14081078 16.42597873 11.0625 12.25 C16.84375234 9.78989262 23.33587161 9.12585351 29.375 11.0625 C33.25785665 12.8607082 36.1000221 15.12404509 38 19 C40.05843725 25.62854565 40.73538039 31.59589365 38.04296875 38.09765625 C35.53512114 42.67189515 31.97220158 45.68898189 27.08984375 47.55859375 C21.35509417 48.76985861 15.79800332 47.84996521 10.5625 45.375 C6.93634016 42.01416893 5.20287483 38.40574965 3 34 C2.62875 35.051875 2.2575 36.10375 1.875 37.1875 C0.09334348 41.3002959 -2.25374375 43.47848137 -6 46 C-15.52123051 49.70270075 -23.5226477 47.65365865 -33 45 C-34.06351675 41.61608307 -34.21442982 40.4195366 -32.5625 37.1875 C-32.046875 36.465625 -31.53125 35.74375 -31 35 C-29.90300781 35.16757812 -28.80601562 35.33515625 -27.67578125 35.5078125 C-26.22145218 35.7142334 -24.76701935 35.91992417 -23.3125 36.125 C-22.59126953 36.23714844 -21.87003906 36.34929687 -21.12695312 36.46484375 C-16.80903549 37.05633932 -13.88066506 37.06662636 -10 35 C-10 33.35 -10 31.7 -10 30 C-10.70125 29.82984375 -11.4025 29.6596875 -12.125 29.484375 C-26.34748011 25.85145889 -26.34748011 25.85145889 -31.5 20.3125 C-33.7104628 15.43106131 -34.05927864 11.08857088 -32.3046875 5.97265625 C-29.70154629 0.79918654 -26.3204 -0.78252 -21.125 -2.6875 C-13.50536448 -3.80803464 -7.26783524 -2.24447853 0 0 Z M16 22 C14.23290092 27.30129724 14.50050652 32.00101304 17 37 C18.16475062 38.37771762 18.16475062 38.37771762 21.375 38.3125 C24.97312784 38.3962787 24.97312784 38.3962787 26.6953125 36.2890625 C28.94196754 32.34732642 28.77412726 28.3961906 28 24 C25.89400826 20.80671116 25.89400826 20.80671116 23 19 C19.45176068 19 18.58072903 19.67734388 16 22 Z " fill="#FDFDFD" transform="translate(489,286)"/>
<path d="M0 0 C3.83318619 -0.08789644 7.66610928 -0.14069087 11.5 -0.1875 C13.11648438 -0.22520508 13.11648438 -0.22520508 14.765625 -0.26367188 C21.2591499 -0.32306387 26.13109094 0.14375225 32 3 C36.07518686 7.07518686 37.12248197 10.68196585 37.3125 16.3125 C37.26342364 21.26921279 35.86479299 23.98928982 33 28 C32.01 28.66 31.02 29.32 30 30 C31.72757427 34.87734352 34.44465815 38.49914926 37.5390625 42.59765625 C39 45 39 45 39 49 C34.84803129 49.61359144 31.1295481 49.84550048 27 49 C22.31330191 44.86609194 19.43288833 39.04997294 18 33 C15.69 33 13.38 33 11 33 C11.01160156 34.07121094 11.02320313 35.14242187 11.03515625 36.24609375 C11.04453299 37.64322743 11.05363331 39.04036299 11.0625 40.4375 C11.07087891 41.14455078 11.07925781 41.85160156 11.08789062 42.58007812 C11.09653588 44.38693559 11.05220011 46.19387603 11 48 C9.41105928 49.58894072 7.75198576 49.16998411 5.5625 49.1875 C4.75941406 49.20167969 3.95632813 49.21585937 3.12890625 49.23046875 C1 49 1 49 -1 47 C-1.24723816 45.0645752 -1.24723816 45.0645752 -1.24291992 42.67382812 C-1.24599655 41.77950073 -1.24907318 40.88517334 -1.25224304 39.96374512 C-1.24505753 38.99602173 -1.23787201 38.02829834 -1.23046875 37.03125 C-1.23001053 36.04000122 -1.22955231 35.04875244 -1.2290802 34.02746582 C-1.22605582 31.92926844 -1.21816401 29.83107335 -1.20581055 27.73291016 C-1.18757513 24.51326583 -1.18530068 21.29390928 -1.18554688 18.07421875 C-1.18063098 16.03906 -1.17480236 14.00390321 -1.16796875 11.96875 C-1.16685593 11.00102661 -1.1657431 10.03330322 -1.16459656 9.03625488 C-1.15502678 7.69476379 -1.15502678 7.69476379 -1.14526367 6.32617188 C-1.14145187 5.53722534 -1.13764008 4.74827881 -1.13371277 3.9354248 C-1 2 -1 2 0 0 Z M12 9 C10.69452245 10.08169646 10.69452245 10.08169646 10.8671875 12.6875 C10.86976563 13.780625 10.87234375 14.87375 10.875 16 C10.87242187 17.093125 10.86984375 18.18625 10.8671875 19.3125 C10.69452245 21.91830354 10.69452245 21.91830354 12 23 C18.33996768 23.4594521 18.33996768 23.4594521 24 21 C25.39935013 18.20129973 25.25265405 16.09501208 25 13 C23.33371825 10.70750125 22.34129306 10.07632752 19.5546875 9.453125 C18.67039062 9.38609375 17.78609375 9.3190625 16.875 9.25 C15.54082031 9.13398438 15.54082031 9.13398438 14.1796875 9.015625 C13.10074219 9.00789063 13.10074219 9.00789063 12 9 Z " fill="#FDFDFE" transform="translate(315,284)"/>
<path d="M0 0 C1.81242052 -0.02687279 3.62495233 -0.04633715 5.4375 -0.0625 C6.44683594 -0.07410156 7.45617187 -0.08570313 8.49609375 -0.09765625 C11 0 11 0 12 1 C12.08631874 2.34267413 12.10706473 3.68974322 12.09765625 5.03515625 C12.09515869 5.76355713 12.09266113 6.49195801 12.09008789 7.24243164 C12.08098389 8.1730542 12.07187988 9.10367676 12.0625 10.0625 C12.041875 13.011875 12.02125 15.96125 12 19 C17.94 19 23.88 19 30 19 C30 12.73 30 6.46 30 0 C38.49609375 -0.09765625 38.49609375 -0.09765625 41 0 C42.58681989 1.58681989 42.12728536 3.21248346 42.12939453 5.41210938 C42.13254669 6.34978149 42.13569885 7.28745361 42.13894653 8.25354004 C42.1369223 9.27330933 42.13489807 10.29307861 42.1328125 11.34375 C42.13376923 12.38317749 42.13472595 13.42260498 42.13571167 14.49353027 C42.13639363 16.69604554 42.13453827 18.89856279 42.13037109 21.10107422 C42.12502308 24.48539719 42.13031559 27.86958744 42.13671875 31.25390625 C42.13605797 33.38802113 42.13477681 35.52213592 42.1328125 37.65625 C42.13483673 38.67601929 42.13686096 39.69578857 42.13894653 40.74645996 C42.13421829 42.15296814 42.13421829 42.15296814 42.12939453 43.58789062 C42.12859894 44.41760376 42.12780334 45.24731689 42.12698364 46.10217285 C42 48 42 48 41 49 C39.33570949 49.09823937 37.66718069 49.12973631 36 49.125 C34.63875 49.12886719 34.63875 49.12886719 33.25 49.1328125 C31 49 31 49 30 48 C29.91348389 46.58429877 29.89295096 45.164405 29.90234375 43.74609375 C29.90556641 42.89208984 29.90878906 42.03808594 29.91210938 41.15820312 C29.92048828 40.26037109 29.92886719 39.36253906 29.9375 38.4375 C29.94201172 37.53580078 29.94652344 36.63410156 29.95117188 35.70507812 C29.96299756 33.47002411 29.98093362 31.23500398 30 29 C24.06 29 18.12 29 12 29 C12.03952742 34.83378691 12.03952742 34.83378691 12.09008789 40.66748047 C12.09258545 41.39338379 12.09508301 42.11928711 12.09765625 42.8671875 C12.10289307 43.61081543 12.10812988 44.35444336 12.11352539 45.12060547 C12 47 12 47 11 49 C9.35425434 49.02688151 7.70838587 49.04634123 6.0625 49.0625 C5.14597656 49.07410156 4.22945312 49.08570313 3.28515625 49.09765625 C1 49 1 49 0 48 C-0.09311889 46.49581261 -0.11746028 44.98728644 -0.11352539 43.48022461 C-0.11344986 42.51930405 -0.11337433 41.55838348 -0.11329651 40.56834412 C-0.10813522 39.523564 -0.10297394 38.47878387 -0.09765625 37.40234375 C-0.0962413 36.33834854 -0.09482635 35.27435333 -0.09336853 34.17811584 C-0.08775064 30.76454917 -0.07519511 27.351047 -0.0625 23.9375 C-0.05748731 21.62955824 -0.052924 19.32161545 -0.04882812 17.01367188 C-0.0377754 11.34242574 -0.02101987 5.67121747 0 0 Z " fill="#FDFCFD" transform="translate(789,284)"/>
<path d="M0 0 C2.90354537 2.09055266 5.37324835 4.54876885 7.86328125 7.1015625 C8.39663086 7.64135742 8.92998047 8.18115234 9.47949219 8.73730469 C12.91760129 12.24229494 16.20078665 15.84607501 19.3828125 19.5859375 C22.43597117 23.04666067 25.75047306 26.25340437 29.05078125 29.4765625 C28.55578125 30.9615625 28.55578125 30.9615625 28.05078125 32.4765625 C21.73386109 32.6034707 15.41727031 32.69095835 9.09936523 32.7512207 C6.95080276 32.77634535 4.8023256 32.81045111 2.65405273 32.85375977 C-0.43657487 32.91450042 -3.52607138 32.94279294 -6.6171875 32.96484375 C-7.57570114 32.99065018 -8.53421478 33.0164566 -9.52177429 33.04304504 C-16.22951348 33.04585798 -16.22951348 33.04585798 -19.94799805 30.10449219 C-20.60840088 29.23727539 -21.26880371 28.37005859 -21.94921875 27.4765625 C-22.72523438 26.63996094 -23.50125 25.80335938 -24.30078125 24.94140625 C-25.42613281 23.69037109 -25.42613281 23.69037109 -26.57421875 22.4140625 C-27.32960937 21.57746094 -28.085 20.74085938 -28.86328125 19.87890625 C-33.94921875 14.02150632 -33.94921875 14.02150632 -33.94921875 10.4765625 C-33.40620117 10.32098877 -32.86318359 10.16541504 -32.30371094 10.00512695 C-29.76670328 9.27371076 -27.23252538 8.5331988 -24.69921875 7.7890625 C-23.78785156 7.52158203 -22.87648437 7.25410156 -21.9375 6.97851562 C-15.78336906 5.13227634 -10.04075077 2.98638046 -4.26171875 0.1640625 C-1.94921875 -0.5234375 -1.94921875 -0.5234375 0 0 Z " fill="#FDFEFE" transform="translate(241.94921875,335.5234375)"/>
<path d="M0 0 C9.75032712 1.36217805 17.3974193 3.29698918 24 11 C24.763125 11.825 25.52625 12.65 26.3125 13.5 C29.54521146 20.20488303 28.98445714 28.05847798 26.6875 35.0625 C23.91861194 41.13427596 19.17866356 45.81077781 14.51367188 50.47973633 C13.44889406 51.54915108 12.39935327 52.63384696 11.36132812 53.72924805 C7.29677999 57.95778206 3.07421346 61.30200958 -1.875 64.4375 C-2.60388428 64.90414062 -3.33276855 65.37078125 -4.08374023 65.8515625 C-27.99849186 80.8094879 -27.99849186 80.8094879 -38.625 81.0625 C-41.6118746 79.72626663 -43.38592488 77.87548263 -45.5703125 75.47265625 C-47.13395217 73.75859105 -47.13395217 73.75859105 -50 72 C-48.93523437 71.63648438 -47.87046875 71.27296875 -46.7734375 70.8984375 C-24.17775294 63.11242306 4.01520289 52.49934029 16 30 C16.36996094 29.35675781 16.73992187 28.71351563 17.12109375 28.05078125 C18.78743761 24.16264557 18.51146118 20.13758976 18 16 C14.46400826 8.19135157 6.5823399 5.00134288 -1 2 C-0.67 1.34 -0.34 0.68 0 0 Z " fill="#009FE5" transform="translate(264,257)"/>
<path d="M0 0 C4.20820145 -0.08742801 8.41616776 -0.14053641 12.625 -0.1875 C14.40970703 -0.22520508 14.40970703 -0.22520508 16.23046875 -0.26367188 C24.05668847 -0.32925472 28.80496533 0.15996918 34.8125 5.5 C38.53946839 9.75939245 38.3418052 13.84435093 38.27734375 19.2734375 C37.74593724 24.49768745 35.16999241 27.04273348 31.25 30.25 C24.90256106 33.66785174 19.12924653 34.25461595 12 34 C12.01160156 34.99902344 12.02320313 35.99804688 12.03515625 37.02734375 C12.04417969 38.31769531 12.05320312 39.60804688 12.0625 40.9375 C12.07410156 42.22527344 12.08570313 43.51304687 12.09765625 44.83984375 C12 48 12 48 11 49 C9.33570949 49.09823937 7.66718069 49.12973631 6 49.125 C4.63875 49.12886719 4.63875 49.12886719 3.25 49.1328125 C1 49 1 49 0 48 C-0.09311889 46.49581261 -0.11746028 44.98728644 -0.11352539 43.48022461 C-0.11344986 42.51930405 -0.11337433 41.55838348 -0.11329651 40.56834412 C-0.10813522 39.523564 -0.10297394 38.47878387 -0.09765625 37.40234375 C-0.0962413 36.33834854 -0.09482635 35.27435333 -0.09336853 34.17811584 C-0.08775064 30.76454917 -0.07519511 27.351047 -0.0625 23.9375 C-0.05748731 21.62955824 -0.052924 19.32161545 -0.04882812 17.01367188 C-0.0377754 11.34242574 -0.02101987 5.67121747 0 0 Z M12 9 C11.97314588 11.31243792 11.95367159 13.6249627 11.9375 15.9375 C11.92589844 17.22527344 11.91429687 18.51304687 11.90234375 19.83984375 C11.63467451 22.86298403 11.63467451 22.86298403 13 24 C18.01773041 24.38597926 20.92309317 23.99772561 25 21 C26.38142556 19.83622098 26.38142556 19.83622098 26.25 16.625 C26.3210449 13.11557734 26.3210449 13.11557734 24.6875 11.125 C21.75520708 9.17013805 19.23175012 8.88144672 15.8125 8.9375 C14.554375 8.958125 13.29625 8.97875 12 9 Z " fill="#FDFDFD" transform="translate(748,284)"/>
<path d="M0 0 C3.71799994 3.78556941 4.5186059 6.31972031 4.64453125 11.578125 C4.68126953 12.82078125 4.71800781 14.0634375 4.75585938 15.34375 C4.78389648 17.27734375 4.78389648 17.27734375 4.8125 19.25 C4.85052734 20.55453125 4.88855469 21.8590625 4.92773438 23.203125 C5.09584011 30.07042318 5.09584011 30.07042318 5 33 C3.10511048 34.89488952 0.42860854 34.18019112 -2.08984375 34.23046875 C-4 34 -4 34 -6 32 C-6.99 32.515625 -7.98 33.03125 -9 33.5625 C-14.04219173 35.73074472 -18.1054099 34.86055381 -23.3125 33.3125 C-25.93351975 31.27392908 -26.81942976 29.06948263 -28 26 C-28.4103472 22.64883122 -28.19533746 20.54694488 -27.0625 17.375 C-23.48754364 13.25838358 -18.82327643 11.26827514 -13.41015625 10.75390625 C-11.27186611 10.75052822 -9.13399581 10.8645082 -7 11 C-7.33 10.01 -7.66 9.02 -8 8 C-12.95 8 -17.9 8 -23 8 C-23.99 5.69 -24.98 3.38 -26 1 C-17.31355138 -3.64623996 -8.86287781 -4.94275878 0 0 Z M-16 21 C-16 22.32 -16 23.64 -16 25 C-12.61608307 26.06351675 -11.4195366 26.21442982 -8.1875 24.5625 C-7.1046875 23.7890625 -7.1046875 23.7890625 -6 23 C-6.33 21.68 -6.66 20.36 -7 19 C-12.0205829 18.49708619 -12.0205829 18.49708619 -16 21 Z " fill="#FDFDFD" transform="translate(416,299)"/>
<path d="M0 0 C2.85521777 2.39220949 4.60781615 4.55871439 6 8 C6.25747923 11.68710253 6.08813884 15.29816872 6 19 C-4.395 19.495 -4.395 19.495 -15 20 C-14.67 20.99 -14.34 21.98 -14 23 C-9.40456709 25.29771645 -2.82752346 24.24581251 2 23 C3.5625 24.6875 3.5625 24.6875 5 27 C4.6875 29.75 4.6875 29.75 4 32 C-4.13433164 35.1633512 -10.92682 36.4853119 -19.24609375 32.96875 C-23.77607971 30.46666421 -25.90794252 25.96620176 -27.51953125 21.23828125 C-28.77876787 15.37208138 -27.80681187 9.85784672 -24.9375 4.625 C-18.7209245 -4.22511037 -9.16825799 -4.84360799 0 0 Z M-14.875 7.375 C-16.18973666 8.94466014 -16.18973666 8.94466014 -16 11 C-12.37 11.33 -8.74 11.66 -5 12 C-5.4452998 7.36980013 -5.4452998 7.36980013 -7 6 C-11.21400035 5.57380299 -11.21400035 5.57380299 -14.875 7.375 Z " fill="#FEFDFE" transform="translate(381,299)"/>
<path d="M0 0 C0.8146875 0.00257813 1.629375 0.00515625 2.46875 0.0078125 C3.2834375 0.00523437 4.098125 0.00265625 4.9375 0 C6.96875 0.1328125 6.96875 0.1328125 7.96875 1.1328125 C8.12661308 2.98455956 8.21982356 4.8419036 8.28515625 6.69921875 C8.34799805 8.3862793 8.34799805 8.3862793 8.41210938 10.10742188 C8.45142578 11.29142578 8.49074219 12.47542969 8.53125 13.6953125 C8.57443359 14.88318359 8.61761719 16.07105469 8.66210938 17.29492188 C8.76858546 20.24076034 8.87059841 23.1866868 8.96875 26.1328125 C13.10968698 26.34251809 13.10968698 26.34251809 16.96875 25.1328125 C16.99380615 24.44654785 17.0188623 23.7602832 17.04467773 23.05322266 C17.16046427 19.95455433 17.28326885 16.85620327 17.40625 13.7578125 C17.44556641 12.67757813 17.48488281 11.59734375 17.52539062 10.484375 C17.56728516 9.453125 17.60917969 8.421875 17.65234375 7.359375 C17.68900146 6.40627441 17.72565918 5.45317383 17.76342773 4.47119141 C17.96875 2.1328125 17.96875 2.1328125 18.96875 0.1328125 C22.26875 0.1328125 25.56875 0.1328125 28.96875 0.1328125 C31.22090426 4.63712103 30.15459447 10.83137461 30.15405273 15.84570312 C30.15624143 18.12388727 30.17440804 20.40158893 30.19335938 22.6796875 C30.19629293 24.12239417 30.19827798 25.56510315 30.19921875 27.0078125 C30.20332764 28.32523437 30.20743652 29.64265625 30.21166992 31 C29.96875 34.1328125 29.96875 34.1328125 27.96875 36.1328125 C25.28035615 36.40273156 22.67733064 36.22018607 19.96875 36.1328125 C19.96875 35.4728125 19.96875 34.8128125 19.96875 34.1328125 C18.834375 34.6484375 17.7 35.1640625 16.53125 35.6953125 C11.81307897 37.45207831 7.81024271 37.50687424 2.96875 36.1328125 C-0.49246174 33.96955516 -1.73866598 33.01056457 -3.03125 29.1328125 C-3.12627019 27.00687022 -3.16197704 24.87806369 -3.1640625 22.75 C-3.16599609 20.87634766 -3.16599609 20.87634766 -3.16796875 18.96484375 C-3.16410156 17.65902344 -3.16023437 16.35320312 -3.15625 15.0078125 C-3.16011719 13.69425781 -3.16398438 12.38070313 -3.16796875 11.02734375 C-3.16667969 9.78082031 -3.16539062 8.53429687 -3.1640625 7.25 C-3.16293457 6.10128418 -3.16180664 4.95256836 -3.16064453 3.76904297 C-2.98522842 0.19518801 -2.98522842 0.19518801 0 0 Z " fill="#FDFDFD" transform="translate(551.03125,296.8671875)"/>
<path d="M0 0 C4.12571558 3.94633664 6.06213944 7.37283665 7 13 C7.08620865 19.68117056 5.98702133 24.61213334 2 30 C-2.7974973 34.34059279 -7.6966705 35.23696727 -14 35 C-18.53885686 34.19985831 -21.9236409 32.96305814 -25.375 29.875 C-28.79737265 23.82003301 -30.76742198 18.20052118 -29.640625 11.20703125 C-28.17475436 6.15692812 -25.6232844 2.22736138 -21.4375 -0.9375 C-14.21762001 -4.08462718 -6.91847011 -3.86620389 0 0 Z M-16.25 7.875 C-18.65222429 12.16468622 -18.87110948 16.17358259 -18 21 C-16.36284401 23.66675551 -15.52809408 24.7776446 -12.625 26 C-9.88683121 26.17768558 -9.88683121 26.17768558 -7.1875 24.75 C-4.22870206 21.03036831 -4.29622367 18.29557935 -4.5078125 13.640625 C-4.86098042 10.72648253 -4.86098042 10.72648253 -7.25 7.8125 C-10.84481544 5.44318982 -12.84642664 5.03868887 -16.25 7.875 Z " fill="#FDFDFD" transform="translate(655,299)"/>
<path d="M0 0 C2.64233769 2.19257809 4.46669809 3.93339618 6 7 C6.09737784 9.093256 6.13076823 11.18963747 6.1328125 13.28515625 C6.13410156 14.53748047 6.13539063 15.78980469 6.13671875 17.08007812 C6.13285156 18.39427734 6.12898437 19.70847656 6.125 21.0625 C6.13080078 23.03959961 6.13080078 23.03959961 6.13671875 25.05664062 C6.13542969 26.30767578 6.13414062 27.55871094 6.1328125 28.84765625 C6.13168457 30.00273682 6.13055664 31.15781738 6.12939453 32.34790039 C6 35 6 35 5 36 C3.50261876 36.0979057 2.00057108 36.12974864 0.5 36.125 C-0.3146875 36.12757813 -1.129375 36.13015625 -1.96875 36.1328125 C-4 36 -4 36 -5 35 C-5.14552732 33.23266824 -5.22722469 31.45999006 -5.28125 29.6875 C-5.31863281 28.61242187 -5.35601563 27.53734375 -5.39453125 26.4296875 C-5.5 23 -5.5 23 -5.60546875 19.5703125 C-5.64285156 18.49523437 -5.68023438 17.42015625 -5.71875 16.3125 C-5.74904297 15.31863281 -5.77933594 14.32476562 -5.81054688 13.30078125 C-5.74727559 11.03716014 -5.74727559 11.03716014 -7 10 C-11.3409369 10.14158662 -11.3409369 10.14158662 -15 12 C-15.07490072 13.61167624 -15.08321077 15.22656092 -15.0625 16.83984375 C-15.05476562 17.82017578 -15.04703125 18.80050781 -15.0390625 19.81054688 C-15.01306962 21.89127665 -14.98702814 23.97200582 -14.9609375 26.05273438 C-14.95320312 27.03435547 -14.94546875 28.01597656 -14.9375 29.02734375 C-14.92589844 29.93218506 -14.91429687 30.83702637 -14.90234375 31.76928711 C-15 34 -15 34 -16 36 C-17.64574566 36.02688151 -19.29161413 36.04634123 -20.9375 36.0625 C-21.85402344 36.07410156 -22.77054688 36.08570313 -23.71484375 36.09765625 C-26 36 -26 36 -27 35 C-27.10087212 32.49075847 -27.13972032 30.00963616 -27.1328125 27.5 C-27.13376923 26.74912109 -27.13472595 25.99824219 -27.13571167 25.22460938 C-27.13639338 23.63411373 -27.13453972 22.04361533 -27.13037109 20.453125 C-27.12502267 18.01035345 -27.13031634 15.56776579 -27.13671875 13.125 C-27.13605797 11.58333293 -27.1347768 10.04166597 -27.1328125 8.5 C-27.13483673 7.76458984 -27.13686096 7.02917969 -27.13894653 6.27148438 C-27.11495161 1.11495161 -27.11495161 1.11495161 -26 0 C-23.32941149 -0.14115161 -20.67567762 -0.04247107 -18 0 C-17.67 0.99 -17.34 1.98 -17 3 C-16.2575 2.525625 -15.515 2.05125 -14.75 1.5625 C-9.84516757 -1.22433661 -5.50222163 -1.62664886 0 0 Z " fill="#FDFDFD" transform="translate(691,297)"/>
<path d="M0 0 C-0.33 2.31 -0.66 4.62 -1 7 C-4.28696233 7.79953138 -5.71023192 8.09658936 -9 7 C-11.33299825 6.96045766 -13.66708189 6.95598268 -16 7 C-16 7.66 -16 8.32 -16 9 C-15.19175781 9.23074219 -14.38351562 9.46148437 -13.55078125 9.69921875 C-2.48191505 13.07729251 -2.48191505 13.07729251 1 18 C2.46838781 21.48742104 2.02898257 22.90822187 0.875 26.5625 C-1.33516065 30.6144612 -3.51698205 32.9725443 -7.8125 34.75 C-14.86705533 35.55623489 -21.49209065 35.0826939 -28 32 C-28.495 30.515 -28.495 30.515 -29 29 C-27.0625 25.8125 -27.0625 25.8125 -25 23 C-23.824375 23.33 -22.64875 23.66 -21.4375 24 C-17.4988324 24.9969533 -14.04860871 25.16869203 -10 25 C-10 24.01 -10 23.02 -10 22 C-11.08667969 21.76216797 -11.08667969 21.76216797 -12.1953125 21.51953125 C-18.33170626 20.03861489 -22.81045913 18.85104732 -27 14 C-28.26372224 9.91148688 -28.2741007 7.79184647 -26.875 3.75 C-24.4690158 0.22122317 -22.12550983 -1.19377213 -18.1875 -2.6875 C-11.15375344 -3.69232094 -6.44948396 -2.76406455 0 0 Z " fill="#FEFEFE" transform="translate(728,299)"/>
<path d="M0 0 C0 3.3 0 6.6 0 10 C1.299375 9.979375 2.59875 9.95875 3.9375 9.9375 C5.29165633 9.91600546 6.64756083 9.92851801 8 10 C9 11 9 11 9.125 13.9375 C9 17 9 17 8 19 C5.36 19 2.72 19 0 19 C0.495 27.415 0.495 27.415 1 36 C3.31 36.66 5.62 37.32 8 38 C9.91269624 40.57798189 10 41.75755545 10 45 C4.46773854 46.9593426 0.76767545 47.30237833 -5 46 C-8.40563431 43.82619087 -9.71751983 42.84744051 -11 39 C-11.08106686 37.44578271 -11.10756898 35.88832973 -11.09765625 34.33203125 C-11.09443359 33.43935547 -11.09121094 32.54667969 -11.08789062 31.62695312 C-11.07951172 30.69818359 -11.07113281 29.76941406 -11.0625 28.8125 C-11.05798828 27.87212891 -11.05347656 26.93175781 -11.04882812 25.96289062 C-11.03704626 23.64186288 -11.02059558 21.32096356 -11 19 C-11.804375 19.020625 -12.60875 19.04125 -13.4375 19.0625 C-16 19 -16 19 -17 18 C-17.125 14.5 -17.125 14.5 -17 11 C-16 10 -16 10 -12.9375 9.9375 C-11.4834375 9.9684375 -11.4834375 9.9684375 -10 10 C-10 7.03 -10 4.06 -10 1 C-5.8922935 -0.58706842 -4.40767604 -1.10191901 0 0 Z " fill="#FDFDFE" transform="translate(599,287)"/>
<path d="M0 0 C2.72999542 0.5502552 5.41963412 1.15820715 8.125 1.8125 C15.45359418 3.53298592 22.67255344 4.72426307 30.15625 5.5078125 C33 6 33 6 35 8 C35.1953125 11.2578125 35.1953125 11.2578125 35.125 15.125 C35.10695312 16.40632813 35.08890625 17.68765625 35.0703125 19.0078125 C35.04710937 19.99523437 35.02390625 20.98265625 35 22 C30.49569147 24.25215426 24.30143789 23.18584447 19.28710938 23.18530273 C17.00892523 23.18749143 14.73122357 23.20565804 12.453125 23.22460938 C11.01041833 23.22754293 9.56770935 23.22952798 8.125 23.23046875 C6.80757812 23.23457764 5.49015625 23.23868652 4.1328125 23.24291992 C1 23 1 23 -1 21 C-1.24291992 18.95288086 -1.24291992 18.95288086 -1.23046875 16.46484375 C-1.22853516 15.57345703 -1.22660156 14.68207031 -1.22460938 13.76367188 C-1.21236328 12.83103516 -1.20011719 11.89839844 -1.1875 10.9375 C-1.18685547 10.00099609 -1.18621094 9.06449219 -1.18554688 8.09960938 C-1.14019224 1.14019224 -1.14019224 1.14019224 0 0 Z " fill="#FEFEFE" transform="translate(127,345)"/>
<path d="M0 0 C3.98680167 2.06723049 6.61569183 4.21516697 9 8 C9.89991132 12.9130294 9.50962889 16.96186709 7.3125 21.4375 C3.66616794 25.47803012 1.0055627 27.15438768 -4.4375 27.4375 C-8.94494978 27.28000175 -11.53618069 25.96898798 -15 23 C-18.57369906 19.0501221 -18.55972383 15.86165761 -18.421875 10.69921875 C-17.75447566 6.4290989 -16.21291454 4.84781062 -13 2 C-8.75183391 -0.52617284 -4.83396555 -0.68816871 0 0 Z " fill="#009EE4" transform="translate(121,235)"/>
<path d="M0 0 C0.02526787 7.10244999 0.04283201 14.20488848 0.05493164 21.30737305 C0.05997349 23.72567172 0.06680678 26.14396733 0.07543945 28.56225586 C0.08751157 32.02979283 0.09322963 35.49728966 0.09765625 38.96484375 C0.10281754 40.05337143 0.10797882 41.14189911 0.11329651 42.26341248 C0.11337204 43.26437454 0.11344757 44.26533661 0.11352539 45.29663086 C0.115746 46.18265488 0.11796661 47.06867889 0.12025452 47.98155212 C0 50 0 50 -1 51 C-2.49738124 51.0979057 -3.99942892 51.12974864 -5.5 51.125 C-6.3146875 51.12757813 -7.129375 51.13015625 -7.96875 51.1328125 C-10 51 -10 51 -11 50 C-11.12760854 48.50761759 -11.18827848 47.0094294 -11.22119141 45.51196289 C-11.24436432 44.55749771 -11.26753723 43.60303253 -11.29141235 42.61964417 C-11.3112619 41.58113815 -11.33111145 40.54263214 -11.3515625 39.47265625 C-11.37471527 38.41340439 -11.39786804 37.35415253 -11.42172241 36.26280212 C-11.46944276 34.01745536 -11.51466674 31.7720544 -11.55761719 29.52661133 C-11.6246462 26.08068846 -11.70240734 22.63512359 -11.78125 19.18945312 C-11.82616963 17.01303413 -11.87046143 14.83660206 -11.9140625 12.66015625 C-11.93796051 11.62367447 -11.96185852 10.58719269 -11.98648071 9.51930237 C-12.0033493 8.56168503 -12.0202179 7.60406769 -12.03759766 6.61743164 C-12.05456696 5.77217422 -12.07153625 4.92691681 -12.08901978 4.05604553 C-12 2 -12 2 -11 0 C-6.97268577 -0.83585767 -3.93421227 -1.15507777 0 0 Z " fill="#FEFEFD" transform="translate(437,282)"/>
<path d="M0 0 C0.02526787 7.10244999 0.04283201 14.20488848 0.05493164 21.30737305 C0.05997349 23.72567172 0.06680678 26.14396733 0.07543945 28.56225586 C0.08751157 32.02979283 0.09322963 35.49728966 0.09765625 38.96484375 C0.10281754 40.05337143 0.10797882 41.14189911 0.11329651 42.26341248 C0.11337204 43.26437454 0.11344757 44.26533661 0.11352539 45.29663086 C0.115746 46.18265488 0.11796661 47.06867889 0.12025452 47.98155212 C0 50 0 50 -1 51 C-2.49738124 51.0979057 -3.99942892 51.12974864 -5.5 51.125 C-6.3146875 51.12757813 -7.129375 51.13015625 -7.96875 51.1328125 C-10 51 -10 51 -11 50 C-11.09326716 48.43452952 -11.11745582 46.86487228 -11.11352539 45.29663086 C-11.11344986 44.29566879 -11.11337433 43.29470673 -11.11329651 42.26341248 C-11.10813522 41.1748848 -11.10297394 40.08635712 -11.09765625 38.96484375 C-11.0962413 37.85645645 -11.09482635 36.74806915 -11.09336853 35.60609436 C-11.08775033 32.04986931 -11.07519475 28.49370617 -11.0625 24.9375 C-11.05748734 22.53320403 -11.05292403 20.12890708 -11.04882812 17.72460938 C-11.03777499 11.81638496 -11.02101917 5.9081969 -11 0 C-3.375 -1.125 -3.375 -1.125 0 0 Z " fill="#FEFEFE" transform="translate(543,282)"/>
<path d="M0 0 C1.64574566 -0.02688151 3.29161413 -0.04634123 4.9375 -0.0625 C5.85402344 -0.07410156 6.77054688 -0.08570313 7.71484375 -0.09765625 C10 0 10 0 11 1 C11.18460168 3.42263565 11.30819512 5.81932651 11.38671875 8.24609375 C11.41224319 8.97240494 11.43776764 9.69871613 11.46406555 10.44703674 C11.51615609 11.98617125 11.56557303 13.52539817 11.61254883 15.06469727 C11.6870898 17.42451403 11.77772872 19.78336244 11.86914062 22.14257812 C11.91765812 23.63538477 11.96521609 25.12822298 12.01171875 26.62109375 C12.04077805 27.32946884 12.06983734 28.03784393 12.09977722 28.76768494 C12.14473023 30.51152774 12.08126459 32.25747179 12 34 C10 36 10 36 7.87109375 36.23046875 C7.06800781 36.21628906 6.26492188 36.20210938 5.4375 36.1875 C4.63183594 36.18105469 3.82617188 36.17460937 2.99609375 36.16796875 C1 36 1 36 0 35 C-0.08851529 32.40640678 -0.11525945 29.83960309 -0.09765625 27.24609375 C-0.09553383 26.08292381 -0.09553383 26.08292381 -0.09336853 24.89625549 C-0.08775345 22.40996506 -0.07519846 19.9237634 -0.0625 17.4375 C-0.05748694 15.75586067 -0.0529237 14.07421994 -0.04882812 12.39257812 C-0.03777913 8.26168434 -0.02050445 4.13085724 0 0 Z " fill="#FEFDFE" transform="translate(611,297)"/>
<path d="M0 0 C9.75032712 1.36217805 17.3974193 3.29698918 24 11 C24.763125 11.825 25.52625 12.65 26.3125 13.5 C29.54521146 20.20488303 28.98445714 28.05847798 26.6875 35.0625 C23.91861194 41.13427596 19.17866356 45.81077781 14.51367188 50.47973633 C13.44889406 51.54915108 12.39935327 52.63384696 11.36132812 53.72924805 C7.29677999 57.95778206 3.07421346 61.30200958 -1.875 64.4375 C-2.60388428 64.90414062 -3.33276855 65.37078125 -4.08374023 65.8515625 C-29.40193632 81.6872983 -29.40193632 81.6872983 -39 80.6875 C-39.66 80.460625 -40.32 80.23375 -41 80 C-41 79.67 -41 79.34 -41 79 C-39.72769531 78.76539063 -38.45539063 78.53078125 -37.14453125 78.2890625 C-31.61457386 77.05441708 -26.76160186 74.85228174 -21.6875 72.375 C-20.76541748 71.92914551 -19.84333496 71.48329102 -18.89331055 71.02392578 C-11.82290785 67.54064411 -5.31691315 63.73768486 1 59 C1.86625 58.36578125 2.7325 57.7315625 3.625 57.078125 C12.4555776 50.34750183 21.79135364 41.98344331 25 31 C25.77740068 24.72526596 26.01038258 19.17045148 23.3125 13.375 C20.99040557 10.99014626 18.74934315 8.88112953 16 7 C15.34 7 14.68 7 14 7 C14.42152344 7.48210937 14.84304688 7.96421875 15.27734375 8.4609375 C15.82519531 9.09257812 16.37304688 9.72421875 16.9375 10.375 C17.48277344 11.00148438 18.02804687 11.62796875 18.58984375 12.2734375 C21.03015502 15.26129783 21.13602117 17.20871667 21.125 21 C21.12886719 22.3303125 21.12886719 22.3303125 21.1328125 23.6875 C21 26 21 26 20 28 C19.34 28 18.68 28 18 28 C18.04640625 27.20335937 18.0928125 26.40671875 18.140625 25.5859375 C18.37593647 18.8971907 18.37593647 18.8971907 16.5 12.5625 C11.52436659 7.46247575 5.55815572 4.59593664 -1 2 C-0.67 1.34 -0.34 0.68 0 0 Z " fill="#06B2F5" transform="translate(264,257)"/>
<path d="M0 0 C3.98680167 2.06723049 6.61569183 4.21516697 9 8 C9.89991132 12.9130294 9.50962889 16.96186709 7.3125 21.4375 C3.66616794 25.47803012 1.0055627 27.15438768 -4.4375 27.4375 C-9.07333869 27.30571194 -11.45874963 25.90564133 -15 23 C-14.67 22.34 -14.34 21.68 -14 21 C-13.360625 21.495 -12.72125 21.99 -12.0625 22.5 C-7.9640602 24.50739908 -4.49018412 24.75649841 0 24 C2.87029869 22.20606332 4.49131638 21.01736724 6 18 C6.61110626 13.06749945 6.71521964 9.23313732 4.1875 4.875 C-0.52393416 2.10356814 -4.67151177 2.05732892 -10 3 C-13.43597292 4.51917849 -13.43597292 4.51917849 -15 8 C-15.38842946 12.03651691 -15.28998615 15.95952637 -15 20 C-15.66 20.33 -16.32 20.66 -17 21 C-18.98363675 17.0327265 -18.54751158 12.3131746 -18 8 C-14.35673029 0.58230287 -7.60708535 -1.08295312 0 0 Z " fill="#01B1F4" transform="translate(121,235)"/>
<path d="M0 0 C1.9375 1.125 1.9375 1.125 3 3 C3.38976435 6.11811483 3.50422245 8.11019567 1.9375 10.875 C-1.1069286 12.64273274 -3.5631012 12.36823916 -7 12 C-8.9375 10.875 -8.9375 10.875 -10 9 C-10.38976435 5.88188517 -10.50422245 3.88980433 -8.9375 1.125 C-5.8930714 -0.64273274 -3.4368988 -0.36823916 0 0 Z " fill="#FDFDFD" transform="translate(620,282)"/>
<path d="M0 0 C6.42590164 0.9877064 12.14202052 2.13609892 18 5 C18 5.66 18 6.32 18 7 C15.525 6.505 15.525 6.505 13 6 C13.49371094 6.55429687 13.98742187 7.10859375 14.49609375 7.6796875 C15.13675781 8.40414063 15.77742188 9.12859375 16.4375 9.875 C17.07558594 10.59429687 17.71367187 11.31359375 18.37109375 12.0546875 C20.97053618 15.1590576 21.13657247 17.01906989 21.125 21 C21.12886719 22.3303125 21.12886719 22.3303125 21.1328125 23.6875 C21 26 21 26 20 28 C19.34 28 18.68 28 18 28 C18.06960938 26.80503906 18.06960938 26.80503906 18.140625 25.5859375 C18.37593647 18.8971907 18.37593647 18.8971907 16.5 12.5625 C11.52436659 7.46247575 5.55815572 4.59593664 -1 2 C-0.67 1.34 -0.34 0.68 0 0 Z " fill="#0EB9F9" transform="translate(264,257)"/>
<path d="M0 0 C0.66 0 1.32 0 2 0 C0.20794157 9.22502804 -9.34260772 17.56340903 -16.578125 22.90234375 C-18.69378114 24.31610768 -20.82101527 25.68642765 -23 27 C-23 26.01 -23 25.02 -23 24 C-20.85051031 22.18143036 -18.71066582 20.52433354 -16.4375 18.875 C-9.39271771 13.56839112 -3.8271679 8.06954741 0 0 Z " fill="#06BAF5" transform="translate(281,285)"/>
<path d="M0 0 C0.66 0.66 1.32 1.32 2 2 C-0.94735886 5.99998702 -3.12082737 8.5498021 -8.1484375 9.3359375 C-13.77208126 9.43459792 -16.63810346 8.57899203 -21 5 C-20.67 4.34 -20.34 3.68 -20 3 C-19.360625 3.495 -18.72125 3.99 -18.0625 4.5 C-13.9640602 6.50739908 -10.49018412 6.75649841 -6 6 C-3.12970131 4.20606332 -1.50868362 3.01736724 0 0 Z " fill="#08B7F8" transform="translate(127,253)"/>
<path d="M0 0 C6.42590164 0.9877064 12.14202052 2.13609892 18 5 C18 5.66 18 6.32 18 7 C17.44570313 6.84402344 16.89140625 6.68804687 16.3203125 6.52734375 C15.59585937 6.33269531 14.87140625 6.13804687 14.125 5.9375 C13.40570313 5.74027344 12.68640625 5.54304688 11.9453125 5.33984375 C9.92726407 4.78867393 9.92726407 4.78867393 8 6 C5.8359375 5.22265625 5.8359375 5.22265625 3.375 4.0625 C2.55773437 3.68222656 1.74046875 3.30195313 0.8984375 2.91015625 C0.27195312 2.60980469 -0.35453125 2.30945313 -1 2 C-0.67 1.34 -0.34 0.68 0 0 Z " fill="#53E4FE" transform="translate(264,257)"/>
<path d="M0 0 C0 0.99 0 1.98 0 3 C-3.87154744 4.72984035 -7.768042 6.35266597 -11.75 7.8125 C-12.48734375 8.08707031 -13.2246875 8.36164063 -13.984375 8.64453125 C-16 9 -16 9 -19 7 C-17.79601562 6.57847656 -16.59203125 6.15695312 -15.3515625 5.72265625 C-13.77601743 5.16933983 -12.20049792 4.61595064 -10.625 4.0625 C-9.43390625 3.64581055 -9.43390625 3.64581055 -8.21875 3.22070312 C-7.45820313 2.95322266 -6.69765625 2.68574219 -5.9140625 2.41015625 C-5.2123291 2.16402588 -4.5105957 1.91789551 -3.78759766 1.66430664 C-1.93494905 1.01232236 -1.93494905 1.01232236 0 0 Z " fill="#26BBF6" transform="translate(233,322)"/>
<path d="M0 0 C5.23517403 2.39322241 7.29888643 6.16098377 10 11 C9.34 11.66 8.68 12.32 8 13 C7.67386719 12.45730469 7.34773438 11.91460937 7.01171875 11.35546875 C6.57472656 10.64003906 6.13773437 9.92460937 5.6875 9.1875 C5.25824219 8.47980469 4.82898438 7.77210938 4.38671875 7.04296875 C3.07499292 4.96597433 3.07499292 4.96597433 1.33203125 3.36328125 C0 2 0 2 0 0 Z " fill="#11C5FA" transform="translate(282,263)"/>
<path d="M0 0 C0.66 0.66 1.32 1.32 2 2 C-1.3 4.31 -4.6 6.62 -8 9 C-8 8.01 -8 7.02 -8 6 C-6.25 4.39453125 -6.25 4.39453125 -4 2.8125 C-3.2575 2.28269531 -2.515 1.75289063 -1.75 1.20703125 C-1.1725 0.80871094 -0.595 0.41039062 0 0 Z " fill="#09B1EF" transform="translate(266,303)"/>
<path d="M0 0 C0.6875 1.75 0.6875 1.75 1 4 C-0.4375 6.25 -0.4375 6.25 -2 8 C-2.66 6.68 -3.32 5.36 -4 4 C-2.68 2.68 -1.36 1.36 0 0 Z " fill="#E2F9FD" transform="translate(105,267)"/>
<path d="M0 0 C2.64 0.33 5.28 0.66 8 1 C7.360625 1.12375 6.72125 1.2475 6.0625 1.375 C5.381875 1.58125 4.70125 1.7875 4 2 C3.67 2.66 3.34 3.32 3 4 C1.68 3.34 0.36 2.68 -1 2 C-0.67 1.34 -0.34 0.68 0 0 Z " fill="#CBF6FF" transform="translate(264,257)"/>
<path d="" fill="#FFFFFF" transform="translate(0,0)"/>
</svg>
