<?xml version="1.0" encoding="UTF-8"?>
<svg version="1.1" xmlns="http://www.w3.org/2000/svg" width="932" height="621">
<path d="M0 0 C1.72597412 0.02900391 1.72597412 0.02900391 3.48681641 0.05859375 C7.20017831 0.12543918 10.91231528 0.21535798 14.625 0.3125 C15.77460205 0.33481689 16.9242041 0.35713379 18.10864258 0.38012695 C31.43843425 0.80818768 43.82263098 3.27818925 53.3125 13.1875 C61.98896608 23.54049438 62.88891136 36.02847869 62 49 C60.43902594 59.00081685 54.94152535 67.08446119 47.19140625 73.4375 C40.08953371 78.50122373 32.42729942 81.02935774 24 83 C24.33 84.98 24.66 86.96 25 89 C17.70407671 91.15233175 10.37856137 93.15041247 3 95 C1.93241455 95.2769873 1.93241455 95.2769873 0.84326172 95.55957031 C-2.97422568 96.48593918 -6.16226989 96.94307856 -10 96 C-14.1252968 92.90003133 -16.95629557 89.13255044 -20 85 C-21.59755639 83.07782015 -23.20148985 81.16091813 -24.8125 79.25 C-26.21421278 77.50470576 -27.61063075 75.7551364 -29 74 C-29.56332031 73.30519531 -30.12664062 72.61039062 -30.70703125 71.89453125 C-32.125 70.0625 -32.125 70.0625 -34 67 C-33.6171875 64.80859375 -33.6171875 64.80859375 -33 63 C-31.29855835 62.970271 -31.29855835 62.970271 -29.56274414 62.93994141 C-25.31888154 62.86336171 -21.07533864 62.77472879 -16.83178711 62.68261719 C-15.0017736 62.64454232 -13.17169073 62.60965362 -11.34155273 62.578125 C-8.69750315 62.53200367 -6.05392242 62.47409169 -3.41015625 62.4140625 C-2.60353043 62.40251129 -1.7969046 62.39096008 -0.96583557 62.37905884 C7.18577556 62.17143949 14.49251388 61.26796496 21 56 C24.95450777 51.50004288 25.35352021 47.3141512 25.27734375 41.5078125 C24.86211988 37.753253 23.54415341 35.74500763 21 33 C13.78843074 28.4535759 5.94326163 28.81587401 -2.3046875 28.68359375 C-3.26189697 28.66494263 -4.21910645 28.6462915 -5.20532227 28.6270752 C-8.76179265 28.55906604 -12.31840651 28.49873375 -15.875 28.4375 C-23.83625 28.293125 -31.7975 28.14875 -40 28 C-40 51.1 -40 74.2 -40 98 C-46.29151611 98 -50.93447162 97.65142738 -56.875 96.3125 C-57.61363281 96.16361328 -58.35226563 96.01472656 -59.11328125 95.86132812 C-63.50370625 94.89117355 -67.28229897 93.46909821 -71.28955078 91.41479492 C-72.17587189 90.96303391 -73.06219299 90.51127289 -73.97537231 90.04582214 C-74.97756302 89.52814018 -74.97756302 89.52814018 -76 89 C-76.11609586 81.54153868 -76.20481645 74.08327369 -76.25906086 66.62409019 C-76.28510226 63.16003775 -76.32039692 59.69660562 -76.37719727 56.23291016 C-76.44215686 52.24649606 -76.46622587 48.26032894 -76.48828125 44.2734375 C-76.51408768 43.03572601 -76.5398941 41.79801453 -76.56648254 40.52279663 C-76.56960572 30.92348409 -76.56960572 30.92348409 -73.54907227 27.32543945 C-72.28728149 26.17434692 -72.28728149 26.17434692 -71 25 C-69.07301084 21.24650884 -68.65122311 17.87688384 -68.375 13.6875 C-68.30023438 12.61886719 -68.22546875 11.55023438 -68.1484375 10.44921875 C-68.09945312 9.64097656 -68.05046875 8.83273438 -68 8 C-48.03451493 -1.98274254 -21.76290727 -0.47699523 0 0 Z " fill="#053B8B" transform="translate(206,239)"/>
<path d="M0 0 C10.4964316 0.77751345 18.74003414 4.25138259 26 12 C29.74373366 17.19292088 30.50519636 21.63452581 30 28 C24.95471855 47.81640665 8.35898721 60.70500477 -8.45703125 70.703125 C-19.37532171 77 -19.37532171 77 -22 77 C-19.37852871 82.19252967 -15.37188538 85.81472248 -11.25 89.8125 C-6.46881215 94.47326614 -1.85716917 99.17551647 2.47192383 104.26318359 C3.89132913 105.87648433 5.37204534 107.3428895 6.9375 108.8125 C9 111 9 111 9 114 C2.43495587 114.15258023 -4.12962841 114.2573944 -10.69604492 114.32958984 C-12.92798957 114.35969657 -15.15981655 114.40059198 -17.39135742 114.45263672 C-20.60625279 114.52571881 -23.81957956 114.55951828 -27.03515625 114.5859375 C-28.02709488 114.61690521 -29.01903351 114.64787292 -30.04103088 114.67977905 C-36.04166922 114.68267066 -39.30607943 113.84758564 -43.60894775 109.56694031 C-44.067995 109.04985001 -44.52704224 108.5327597 -45 108 C-45.82886719 107.07058594 -46.65773437 106.14117187 -47.51171875 105.18359375 C-48.22972656 104.27738281 -48.94773437 103.37117188 -49.6875 102.4375 C-50.41324219 101.52871094 -51.13898438 100.61992187 -51.88671875 99.68359375 C-52.58410156 98.79800781 -53.28148437 97.91242188 -54 97 C-54.74894531 96.10410156 -55.49789062 95.20820313 -56.26953125 94.28515625 C-58 92 -58 92 -58 90 C-58.83402344 90.20496094 -59.66804688 90.40992188 -60.52734375 90.62109375 C-61.65269531 90.89050781 -62.77804688 91.15992188 -63.9375 91.4375 C-65.03964844 91.70433594 -66.14179688 91.97117187 -67.27734375 92.24609375 C-94.65113582 97.78978931 -127.55989058 95.33760777 -151.875 80.6875 C-163.17922264 72.93603305 -171.98504686 64.20026952 -175.52734375 50.625 C-177.80963507 37.94979532 -174.62667355 27.34444014 -167.5 16.875 C-163.02273528 10.48109799 -163.02273528 10.48109799 -159 9 C-159.90076998 13.05346489 -161.47634262 16.73706161 -163.0625 20.5625 C-166.20727079 28.73890406 -166.47458799 39.12035059 -163.4375 47.375 C-157.70746348 59.39215993 -147.64010983 67.66366176 -135.48046875 72.83984375 C-96.90604816 85.69798395 -55.33801951 79.73400383 -19.35546875 61.80664062 C-10.8138238 57.39730499 -3.38163258 52.14966356 4 46 C5.03253906 45.17886719 6.06507813 44.35773438 7.12890625 43.51171875 C13.78605394 37.68784669 18.51960459 30.38042854 19.3125 21.5 C18.89093737 16.77849854 17.84747777 13.73905772 14.3359375 10.43359375 C9.61916139 6.68460238 4.58690341 4.19854995 -1 2 C-0.67 1.34 -0.34 0.68 0 0 Z " fill="#053C8B" transform="translate(269,261)"/>
<path d="M0 0 C1.38251953 -0.0309375 1.38251953 -0.0309375 2.79296875 -0.0625 C10.40468122 -0.10544337 17.02626966 0.77189138 23 5.75 C26.91777114 10.64721393 26.62191039 16.23259681 26 22.25 C24.53031368 26.29527521 22.07687541 29.287736 19 32.25 C19.721875 33.22582031 20.44375 34.20164062 21.1875 35.20703125 C22.12537208 36.49191599 23.06285176 37.77708722 24 39.0625 C24.47695313 39.70509766 24.95390625 40.34769531 25.4453125 41.00976562 C26.12207031 41.94272461 26.12207031 41.94272461 26.8125 42.89453125 C27.23144531 43.46534424 27.65039062 44.03615723 28.08203125 44.62426758 C29 46.25 29 46.25 29 49.25 C24.55240327 49.78450346 20.42699994 50.02999523 16 49.25 C13.06214865 46.68486113 11.62272716 43.75414995 10 40.25 C9.38125 39.280625 8.7625 38.31125 8.125 37.3125 C7 35.25 7 35.25 7 33.25 C5.02 33.25 3.04 33.25 1 33.25 C1.01160156 34.32121094 1.02320313 35.39242187 1.03515625 36.49609375 C1.04453299 37.89322743 1.05363331 39.29036299 1.0625 40.6875 C1.07087891 41.39455078 1.07925781 42.10160156 1.08789062 42.83007812 C1.09653588 44.63693559 1.05220011 46.44387603 1 48.25 C0 49.25 0 49.25 -2.50390625 49.34765625 C-3.51324219 49.33605469 -4.52257812 49.32445312 -5.5625 49.3125 C-6.57441406 49.30347656 -7.58632813 49.29445313 -8.62890625 49.28515625 C-9.80259766 49.26775391 -9.80259766 49.26775391 -11 49.25 C-11.95388152 46.38835545 -12.10109943 44.7497723 -12.03759766 41.79443359 C-12.02072906 40.89695404 -12.00386047 39.99947449 -11.98648071 39.07479858 C-11.9625827 38.10909943 -11.93868469 37.14340027 -11.9140625 36.1484375 C-11.89282318 35.15623199 -11.87158386 34.16402649 -11.84970093 33.14175415 C-11.80344918 31.04528999 -11.75452174 28.9488834 -11.703125 26.85253906 C-11.62514479 23.63098159 -11.55807952 20.40932488 -11.4921875 17.1875 C-11.44596639 15.15363087 -11.39911312 13.11977598 -11.3515625 11.0859375 C-11.33171295 10.11618988 -11.3118634 9.14644226 -11.29141235 8.14730835 C-11.26823944 7.25613312 -11.24506653 6.36495789 -11.22119141 5.44677734 C-11.20263092 4.6586264 -11.18407043 3.87047546 -11.16494751 3.05844116 C-10.72680083 -1.74528397 -3.65899082 0.01980509 0 0 Z M0 11.25 C-0.07244053 13.26964199 -0.08377188 15.29167124 -0.0625 17.3125 C-0.05347656 18.41722656 -0.04445313 19.52195312 -0.03515625 20.66015625 C-0.02355469 21.51480469 -0.01195312 22.36945313 0 23.25 C1.77007714 23.33114106 3.54122098 23.38925505 5.3125 23.4375 C6.29863281 23.47230469 7.28476562 23.50710938 8.30078125 23.54296875 C11.00806958 23.47400315 11.00806958 23.47400315 12.8359375 21.92578125 C14.62432877 19.35121798 14.31745118 17.29753132 14 14.25 C12.38805234 11.22403736 12.38805234 11.22403736 10.3125 10.5625 C4.79417783 9.55255682 4.79417783 9.55255682 0 11.25 Z " fill="#0A4093" transform="translate(328,282.75)"/>
<path d="M0 0 C0.80308594 0.01417969 1.60617187 0.02835937 2.43359375 0.04296875 C3.64208984 0.05263672 3.64208984 0.05263672 4.875 0.0625 C6.87109375 0.23046875 6.87109375 0.23046875 7.87109375 1.23046875 C7.95741249 2.57314288 7.97815848 3.92021197 7.96875 5.265625 C7.96625244 5.99402588 7.96375488 6.72242676 7.96118164 7.47290039 C7.95207764 8.40352295 7.94297363 9.33414551 7.93359375 10.29296875 C7.91296875 13.24234375 7.89234375 16.19171875 7.87109375 19.23046875 C13.81109375 19.23046875 19.75109375 19.23046875 25.87109375 19.23046875 C25.83151606 13.35163872 25.83151606 13.35163872 25.78100586 7.47290039 C25.7785083 6.74449951 25.77601074 6.01609863 25.7734375 5.265625 C25.76558228 4.14232788 25.76558228 4.14232788 25.75756836 2.99633789 C25.87109375 1.23046875 25.87109375 1.23046875 26.87109375 0.23046875 C28.53538426 0.13222938 30.20391306 0.10073244 31.87109375 0.10546875 C33.23234375 0.10160156 33.23234375 0.10160156 34.62109375 0.09765625 C36.87109375 0.23046875 36.87109375 0.23046875 37.87109375 1.23046875 C37.96932119 2.69852167 37.99907745 4.17124335 38.00048828 5.64257812 C38.00364044 6.58025024 38.0067926 7.51792236 38.01004028 8.48400879 C38.00801605 9.50377808 38.00599182 10.52354736 38.00390625 11.57421875 C38.00486298 12.61364624 38.0058197 13.65307373 38.00680542 14.72399902 C38.00748738 16.92651429 38.00563202 19.12903154 38.00146484 21.33154297 C37.99611683 24.71586594 38.00140934 28.10005619 38.0078125 31.484375 C38.00715172 33.61848988 38.00587056 35.75260467 38.00390625 37.88671875 C38.00593048 38.90648804 38.00795471 39.92625732 38.01004028 40.97692871 C38.00531204 42.38343689 38.00531204 42.38343689 38.00048828 43.81835938 C37.99969269 44.64807251 37.99889709 45.47778564 37.99807739 46.3326416 C37.87109375 48.23046875 37.87109375 48.23046875 36.87109375 49.23046875 C35.20680324 49.32870812 33.53827444 49.36020506 31.87109375 49.35546875 C30.50984375 49.35933594 30.50984375 49.35933594 29.12109375 49.36328125 C26.87109375 49.23046875 26.87109375 49.23046875 25.87109375 48.23046875 C25.78477501 46.88779462 25.76402902 45.54072553 25.7734375 44.1953125 C25.77593506 43.46691162 25.77843262 42.73851074 25.78100586 41.98803711 C25.79010986 41.05741455 25.79921387 40.12679199 25.80859375 39.16796875 C25.82921875 36.21859375 25.84984375 33.26921875 25.87109375 30.23046875 C19.93109375 30.23046875 13.99109375 30.23046875 7.87109375 30.23046875 C7.87109375 36.50046875 7.87109375 42.77046875 7.87109375 49.23046875 C4.24109375 49.23046875 0.61109375 49.23046875 -3.12890625 49.23046875 C-4.29709631 46.89408864 -4.26159457 45.50707995 -4.27416992 42.90429688 C-4.28054977 42.00996948 -4.28692963 41.11564209 -4.29350281 40.19421387 C-4.29461563 39.22649048 -4.29572845 38.25876709 -4.296875 37.26171875 C-4.3002034 36.27046997 -4.3035318 35.27922119 -4.30696106 34.25793457 C-4.31202918 32.15975408 -4.31436942 30.06156551 -4.31420898 27.96337891 C-4.31639727 24.74368107 -4.3345592 21.52432475 -4.35351562 18.3046875 C-4.35644913 16.26953243 -4.35843421 14.23437572 -4.359375 12.19921875 C-4.36656052 11.23149536 -4.37374603 10.26377197 -4.38114929 9.26672363 C-4.37807266 8.37239624 -4.37499603 7.47806885 -4.37182617 6.55664062 C-4.37325119 5.76769409 -4.37467621 4.97874756 -4.37614441 4.16589355 C-4.00160103 1.23390058 -2.89838054 0.31376964 0 0 Z " fill="#0A3F8F" transform="translate(795.12890625,282.76953125)"/>
<path d="M0 0 C1.38251953 -0.0309375 1.38251953 -0.0309375 2.79296875 -0.0625 C10.32512125 -0.10499451 16.90356836 0.8123836 22.9375 5.5625 C26.37225564 10.03809069 27.2156955 13.62358993 26.9375 19.1875 C26.26987596 24.22502683 24.81965493 27.8218597 21 31.25 C15.05478273 34.97952287 7.81283017 34.92071321 1 35.25 C1.01160156 36.17683594 1.02320313 37.10367188 1.03515625 38.05859375 C1.04417969 39.25613281 1.05320312 40.45367187 1.0625 41.6875 C1.07410156 42.88246094 1.08570313 44.07742188 1.09765625 45.30859375 C1 48.25 1 48.25 0 49.25 C-1.66429051 49.34823937 -3.33281931 49.37973631 -5 49.375 C-6.36125 49.37886719 -6.36125 49.37886719 -7.75 49.3828125 C-10 49.25 -10 49.25 -11 48.25 C-11.09822744 46.78194708 -11.1279837 45.3092254 -11.12939453 43.83789062 C-11.13412277 42.43138245 -11.13412277 42.43138245 -11.13894653 40.99645996 C-11.1369223 39.97669067 -11.13489807 38.95692139 -11.1328125 37.90625 C-11.13376923 36.86682251 -11.13472595 35.82739502 -11.13571167 34.75646973 C-11.13639363 32.55395446 -11.13453827 30.35143721 -11.13037109 28.14892578 C-11.12502308 24.76460281 -11.13031559 21.38041256 -11.13671875 17.99609375 C-11.13605797 15.86197887 -11.13477681 13.72786408 -11.1328125 11.59375 C-11.13483673 10.57398071 -11.13686096 9.55421143 -11.13894653 8.50354004 C-11.13579437 7.56586792 -11.13264221 6.6281958 -11.12939453 5.66210938 C-11.12859894 4.83239624 -11.12780334 4.00268311 -11.12698364 3.14782715 C-10.7977832 -1.77222028 -3.7237803 0.02015578 0 0 Z M0 11.25 C-0.09873816 13.24799572 -0.12971799 15.24957158 -0.125 17.25 C-0.12757813 18.343125 -0.13015625 19.43625 -0.1328125 20.5625 C-0.30547755 23.16830354 -0.30547755 23.16830354 1 24.25 C2.62139437 24.37494616 4.24884122 24.42571624 5.875 24.4375 C7.20144531 24.45876953 7.20144531 24.45876953 8.5546875 24.48046875 C11.25766726 24.42068424 11.25766726 24.42068424 14 22.25 C14.94858058 18.5911892 15.53500532 16.32001063 13.8125 12.875 C10.780251 10.15643193 3.18489326 8.06510674 0 11.25 Z " fill="#093D8E" transform="translate(762,282.75)"/>
<path d="M0 0 C10.4964316 0.77751345 18.74003414 4.25138259 26 12 C29.74373366 17.19292088 30.50519636 21.63452581 30 28 C24.95471855 47.81640665 8.35898721 60.70500477 -8.45703125 70.703125 C-19.37532171 77 -19.37532171 77 -22 77 C-22.495 77.99 -22.495 77.99 -23 79 C-27.91427279 77.51082643 -31.40319126 74.55813338 -35 71 C-35.33 70.34 -35.66 69.68 -36 69 C-34.96166016 68.5978125 -34.96166016 68.5978125 -33.90234375 68.1875 C-19.80816456 62.54240056 -7.70750459 55.65908521 4 46 C4.77754639 45.38668823 4.77754639 45.38668823 5.57080078 44.76098633 C11.7350433 39.8278624 17.41862874 32.90685631 19 25 C19.46977782 19.73848836 18.9907837 16.39271356 16 12 C11.02244899 7.31455879 5.31057964 4.48332995 -1 2 C-0.67 1.34 -0.34 0.68 0 0 Z " fill="#0076C8" transform="translate(269,261)"/>
<path d="M0 0 C3.1875 1.75 3.1875 1.75 3.9765625 3.6875 C4.28712545 6.72411551 2.87954929 8.31344903 1.1875 10.75 C0.218125 10.585 -0.75125 10.42 -1.75 10.25 C-9.46067746 9.0665724 -9.46067746 9.0665724 -16.8125 10.75 C-16.92661667 13.18034078 -16.92661667 13.18034078 -15.8125 15.75 C-13.1749108 16.97545525 -10.82392587 17.8683094 -8.0625 18.6875 C-1.82036555 20.54554542 1.49821189 22.24423034 5.1875 27.75 C6.80638243 31.9139524 6.33117894 35.27107019 5.0625 39.5 C2.56309554 43.83230107 0.07820685 45.82770397 -4.375 48 C-13.26940061 49.9405965 -21.35149063 48.89479994 -29.8125 45.75 C-30.9921875 41.1015625 -30.9921875 41.1015625 -29.375 37.9375 C-28.859375 37.215625 -28.34375 36.49375 -27.8125 35.75 C-26.77802734 35.98396484 -26.77802734 35.98396484 -25.72265625 36.22265625 C-19.35607202 37.54138632 -14.22894942 37.80187695 -7.8125 36.75 C-7.4825 35.43 -7.1525 34.11 -6.8125 32.75 C-7.97007812 32.32589844 -9.12765625 31.90179688 -10.3203125 31.46484375 C-25.74860269 25.61918545 -25.74860269 25.61918545 -29.0546875 20.76953125 C-30.68733048 16.41862187 -30.71978385 12.27277589 -29.8125 7.75 C-24.58406748 -3.17014388 -10.07683563 -3.31642692 0 0 Z " fill="#073D91" transform="translate(487.8125,284.25)"/>
<path d="M0 0 C4.72028306 4.72028306 5.62037951 9.09555713 5.73046875 15.58984375 C5.71068532 17.8517492 5.67513986 20.11356381 5.625 22.375 C5.60469727 24.11620117 5.60469727 24.11620117 5.58398438 25.89257812 C5.5488141 28.74137052 5.49959287 31.58918844 5.4375 34.4375 C1.10416667 34.4375 -3.22916667 34.4375 -7.5625 34.4375 C-9.16751567 34.66064288 -10.77165129 34.89017885 -12.375 35.125 C-17.47177167 35.62866328 -20.24256925 35.25867926 -24.5625 32.4375 C-26.72875559 28.84963917 -27.58381645 26.50332234 -27.5 22.3125 C-26.38779981 18.90175275 -25.09795978 16.97295978 -22.5625 14.4375 C-18.94440481 12.68740936 -15.74143657 12.10103758 -11.75 11.8125 C-10.28626953 11.70035156 -10.28626953 11.70035156 -8.79296875 11.5859375 C-8.05691406 11.53695313 -7.32085937 11.48796875 -6.5625 11.4375 C-6.8925 10.4475 -7.2225 9.4575 -7.5625 8.4375 C-12.71421623 8.34711901 -17.48163204 8.59068867 -22.5625 9.4375 C-24.18199011 6.86536866 -24.60658751 5.76080841 -24.1875 2.6875 C-23.98125 1.945 -23.775 1.2025 -23.5625 0.4375 C-15.84385302 -1.9374683 -7.58940354 -3.32868576 0 0 Z M-15.5625 21.4375 C-15.2325 22.7575 -14.9025 24.0775 -14.5625 25.4375 C-11.64767222 26.24717438 -10.10136783 26.65595993 -7.25 25.5 C-6.693125 25.149375 -6.13625 24.79875 -5.5625 24.4375 C-5.5625 22.7875 -5.5625 21.1375 -5.5625 19.4375 C-9.41895121 19.21713136 -12.05473216 19.83394899 -15.5625 21.4375 Z " fill="#023692" transform="translate(417.5625,297.5625)"/>
<path d="M0 0 C0 0.99 0 1.98 0 3 C1.7015625 2.01 1.7015625 2.01 3.4375 1 C7.99133984 -1.26077155 11.97840889 -1.93915254 17 -1 C20.42309457 0.89362678 21.65824124 2.14990784 23.11450195 5.7722168 C24.00523937 9.01909835 24.24412926 11.66306471 24.23046875 15.01953125 C24.22853516 16.12361328 24.22660156 17.22769531 24.22460938 18.36523438 C24.20624023 20.07163086 24.20624023 20.07163086 24.1875 21.8125 C24.18685547 22.96943359 24.18621094 24.12636719 24.18554688 25.31835938 C24.14040824 33.85959176 24.14040824 33.85959176 23 35 C21.33570949 35.09823937 19.66718069 35.12973631 18 35.125 C16.63875 35.12886719 16.63875 35.12886719 15.25 35.1328125 C13 35 13 35 12 34 C11.84235595 32.22130274 11.74899323 30.43681524 11.68359375 28.65234375 C11.64169922 27.57275391 11.59980469 26.49316406 11.55664062 25.38085938 C11.51732422 24.24455078 11.47800781 23.10824219 11.4375 21.9375 C11.39431641 20.79732422 11.35113281 19.65714844 11.30664062 18.48242188 C11.20017161 15.65507805 11.09815793 12.82764262 11 10 C6.85906302 9.79029441 6.85906302 9.79029441 3 11 C2.97494385 11.69150146 2.9498877 12.38300293 2.92407227 13.09545898 C2.80847839 16.20967866 2.68558758 19.32356789 2.5625 22.4375 C2.52318359 23.52611328 2.48386719 24.61472656 2.44335938 25.73632812 C2.40146484 26.77080078 2.35957031 27.80527344 2.31640625 28.87109375 C2.26141968 30.30859985 2.26141968 30.30859985 2.20532227 31.77514648 C2 34 2 34 1 35 C-0.66429051 35.09823937 -2.33281931 35.12973631 -4 35.125 C-5.36125 35.12886719 -5.36125 35.12886719 -6.75 35.1328125 C-9 35 -9 35 -10 34 C-10.08843793 31.55169574 -10.11528752 29.13179401 -10.09765625 26.68359375 C-10.0962413 25.95253922 -10.09482635 25.22148468 -10.09336853 24.46827698 C-10.08775408 22.12464368 -10.07519922 19.78110461 -10.0625 17.4375 C-10.05748686 15.85221492 -10.05292363 14.26692834 -10.04882812 12.68164062 C-10.03777997 8.7877239 -10.02050572 4.89387795 -10 1 C-3.375 -1.125 -3.375 -1.125 0 0 Z " fill="#073E97" transform="translate(676,297)"/>
<path d="M0 0 C4.18831162 2.82467528 6.17041702 5.48285805 8 10.1875 C8.6875 13.8125 8.6875 13.8125 7.6875 20.8125 C-2.7075 21.3075 -2.7075 21.3075 -13.3125 21.8125 C-10.71151294 25.03556264 -10.71151294 25.03556264 -7.75390625 25.10546875 C-6.80386719 25.07066406 -5.85382813 25.03585937 -4.875 25 C-3.45380859 24.95939453 -3.45380859 24.95939453 -2.00390625 24.91796875 C-0.67166016 24.86576172 -0.67166016 24.86576172 0.6875 24.8125 C2.0075 24.8125 3.3275 24.8125 4.6875 24.8125 C6.30699011 27.38463134 6.73158751 28.48919159 6.3125 31.5625 C6.003125 32.67625 6.003125 32.67625 5.6875 33.8125 C-2.36491777 36.15502153 -9.66712757 37.13607148 -17.58984375 33.796875 C-21.47049388 31.57936064 -23.62808281 27.83083423 -25.3125 23.8125 C-26.11394674 17.28909627 -25.9542276 11.19255686 -22.58984375 5.43359375 C-17.0123144 -1.6449221 -8.07436735 -2.89458452 0 0 Z M-13.1875 9.1875 C-14.50223666 10.75716014 -14.50223666 10.75716014 -14.3125 12.8125 C-10.6825 12.8125 -7.0525 12.8125 -3.3125 12.8125 C-3.88375354 9.06974788 -3.88375354 9.06974788 -5.3125 7.8125 C-9.52650035 7.38630299 -9.52650035 7.38630299 -13.1875 9.1875 Z " fill="#073E90" transform="translate(381.3125,297.1875)"/>
<path d="M0 0 C5.03416026 3.59582876 8.46817854 7.74384625 9.625 13.875 C9.70417159 20.49572396 9.21449362 25.78934491 4.625 30.875 C-0.68341379 34.9669023 -4.52085889 36.25621852 -11.21875 36.15625 C-16.2441879 35.5007581 -20.12637018 33.05791246 -23.75 29.625 C-27.48088084 23.31120166 -28.17932917 16.92234364 -26.375 9.875 C-20.8110218 -0.65681589 -11.10720316 -3.70240105 0 0 Z M-13.75 9.1875 C-16.17910468 13.20486543 -16.19027371 17.29183967 -15.375 21.875 C-14.17263316 24.18885631 -14.17263316 24.18885631 -12.375 25.875 C-8.875 26.625 -8.875 26.625 -5.375 25.875 C-2.75178901 23.08254959 -2.40693265 21.17303809 -2 17.375 C-2.40536003 13.59163974 -2.85949572 11.72590485 -5.375 8.875 C-8.88246039 7.60634412 -10.45832977 7.36841908 -13.75 9.1875 Z " fill="#084197" transform="translate(654.375,297.125)"/>
<path d="M0 0 C4.07166495 2.90833211 7.01178079 6.03534238 8.625 10.875 C9.57527159 24.56256579 9.57527159 24.56256579 5.625 29.875 C1.11472185 34.26337874 -3.09816583 35.69429888 -9.3125 36.1875 C-14.93552568 36.01580456 -19.01850316 34.05456247 -23.25 30.375 C-26.72552494 26.28614713 -26.58940447 22.78221475 -26.6875 17.5625 C-26.72488281 16.26699219 -26.76226562 14.97148437 -26.80078125 13.63671875 C-26.20416485 8.36569494 -23.52343133 4.19374507 -19.375 0.875 C-13.12857638 -2.05368651 -6.52091223 -2.17363741 0 0 Z M-13.0625 9.8125 C-15.80737327 13.44760244 -16.01050298 15.35283871 -15.72265625 19.78125 C-15.23953689 22.6908228 -14.77698359 24.09288314 -12.375 25.875 C-7.76680084 26.50877058 -7.76680084 26.50877058 -3.6875 24.65234375 C-1.50481293 21.69662168 -1.85030866 18.88888821 -1.94921875 15.328125 C-2.23896242 12.57018222 -2.23896242 12.57018222 -4.6875 9.75 C-8.34016716 7.20162756 -9.44749825 7.20633595 -13.0625 9.8125 Z " fill="#073D92" transform="translate(521.375,297.125)"/>
<path d="M0 0 C0.0246519 4.82380802 0.04283693 9.64757967 0.05493164 14.47143555 C0.05997174 16.11369464 0.06680378 17.75594923 0.07543945 19.39819336 C0.08751926 21.75375479 0.09323139 24.10925709 0.09765625 26.46484375 C0.10281754 27.20339096 0.10797882 27.94193817 0.11329651 28.7028656 C0.1134925 30.46898088 0.06194719 32.23497146 0 34 C-1 35 -1 35 -3.06640625 35.09765625 C-3.89011719 35.08605469 -4.71382812 35.07445312 -5.5625 35.0625 C-6.38878906 35.05347656 -7.21507812 35.04445313 -8.06640625 35.03515625 C-8.70449219 35.02355469 -9.34257813 35.01195312 -10 35 C-10 34.34 -10 33.68 -10 33 C-11.134375 33.515625 -12.26875 34.03125 -13.4375 34.5625 C-18.1277179 36.30054174 -22.20490989 36.52529533 -27 35 C-29.70552388 32.80176185 -31.44778333 31.10443333 -33 28 C-33.08543895 25.89471067 -33.10714725 23.78668843 -33.09765625 21.6796875 C-33.09443359 20.42285156 -33.09121094 19.16601562 -33.08789062 17.87109375 C-33.07951172 16.55238281 -33.07113281 15.23367188 -33.0625 13.875 C-33.05748489 12.53515789 -33.05292201 11.195314 -33.04882812 9.85546875 C-33.03701086 6.57026794 -33.02053617 3.28515603 -33 0 C-29.37 0 -25.74 0 -22 0 C-21.67 8.58 -21.34 17.16 -21 26 C-18.36 25.34 -15.72 24.68 -13 24 C-12.97494385 23.30849854 -12.9498877 22.61699707 -12.92407227 21.90454102 C-12.80847839 18.79032134 -12.68558758 15.67643211 -12.5625 12.5625 C-12.52318359 11.47388672 -12.48386719 10.38527344 -12.44335938 9.26367188 C-12.40146484 8.22919922 -12.35957031 7.19472656 -12.31640625 6.12890625 C-12.27974854 5.17056885 -12.24309082 4.21223145 -12.20532227 3.22485352 C-12 1 -12 1 -11 0 C-3.58695652 -1.19565217 -3.58695652 -1.19565217 0 0 Z " fill="#083F93" transform="translate(583,297)"/>
<path d="M0 0 C-0.52268466 2.76276177 -1.10869587 5.3260876 -2 8 C-2.639375 7.835 -3.27875 7.67 -3.9375 7.5 C-7.97586652 6.84067485 -11.91807258 6.91996221 -16 7 C-15.14846828 9.28535271 -15.14846828 9.28535271 -12.41796875 9.89453125 C-11.35191406 10.19746094 -10.28585937 10.50039063 -9.1875 10.8125 C-5.54558815 11.99471395 -3.23167281 12.81044952 -0.25 15.25 C1.42089203 18.92596246 1.87292723 22.08714196 1 26 C-1.28472571 29.73864207 -3.05134903 31.54543808 -7 33.4375 C-14.12092624 34.9903011 -22.41783816 33.98521838 -29 31 C-28.5020163 27.26512223 -28.12508244 25.18762365 -26 22 C-25.11248047 22.2165625 -25.11248047 22.2165625 -24.20703125 22.4375 C-20.07470059 23.40822694 -16.2770238 24.27593702 -12 24 C-12 23.01 -12 22.02 -12 21 C-12.66386719 20.82984375 -13.32773437 20.6596875 -14.01171875 20.484375 C-19.14269378 19.07616579 -23.13937572 17.86062428 -27 14 C-28.60430264 10.79139471 -28.48105318 7.4809543 -28 4 C-25.01252656 -1.08976957 -21.76145452 -2.22936153 -16.3125 -3.75 C-10.49792078 -4.18883617 -4.87194687 -3.24796458 0 0 Z " fill="#063C91" transform="translate(731,299)"/>
<path d="M0 0 C1.05743408 0.21934204 1.05743408 0.21934204 2.13623047 0.44311523 C5.38142967 1.11315186 8.62817927 1.77536746 11.875 2.4375 C12.98359375 2.66759766 14.0921875 2.89769531 15.234375 3.13476562 C21.2151511 4.34851136 27.08655791 5.33044703 33.17626953 5.77368164 C35 6 35 6 36 7 C36.09981214 9.6773138 36.13879875 12.32304175 36.125 15 C36.13080078 16.12535156 36.13080078 16.12535156 36.13671875 17.2734375 C36.12661053 22.87338947 36.12661053 22.87338947 35 24 C32.50245859 24.11327366 30.0336001 24.16417191 27.53515625 24.16796875 C26.4123954 24.17296135 26.4123954 24.17296135 25.26695251 24.17805481 C23.68066016 24.18312693 22.0943571 24.18546305 20.50805664 24.18530273 C18.07615631 24.18748773 15.64471051 24.20563581 13.21289062 24.22460938 C11.67448072 24.22754349 10.13606866 24.22952817 8.59765625 24.23046875 C7.86740738 24.23765427 7.13715851 24.24483978 6.38478088 24.25224304 C1.22882307 24.22882307 1.22882307 24.22882307 -1 22 C-1.24291992 19.96875 -1.24291992 19.96875 -1.23046875 17.5 C-1.22853516 16.613125 -1.22660156 15.72625 -1.22460938 14.8125 C-1.21236328 13.884375 -1.20011719 12.95625 -1.1875 12 C-1.18685547 11.071875 -1.18621094 10.14375 -1.18554688 9.1875 C-1.14037187 2.28074374 -1.14037187 2.28074374 0 0 Z " fill="#053C8C" transform="translate(130,351)"/>
<path d="M0 0 C0.33 3.3 0.66 6.6 1 10 C2.11375 9.938125 3.2275 9.87625 4.375 9.8125 C5.57125 9.874375 6.7675 9.93625 8 10 C10 13 10 13 9.6875 16.125 C9 19 9 19 8 20 C5.36 20 2.72 20 0 20 C0.495 27.92 0.495 27.92 1 36 C4.465 36.495 4.465 36.495 8 37 C9.5 38.75 9.5 38.75 10 41 C9.625 43.75 9.625 43.75 9 46 C3.75931285 47.74689572 -1.27457269 47.63904715 -6.375 45.75 C-9.19267119 43.87155254 -9.79367025 43.06332575 -11 40 C-11.31884766 37.70996094 -11.31884766 37.70996094 -11.4140625 35.234375 C-11.45273437 34.34492188 -11.49140625 33.45546875 -11.53125 32.5390625 C-11.5621875 31.61867188 -11.593125 30.69828125 -11.625 29.75 C-11.66367187 28.81414062 -11.70234375 27.87828125 -11.7421875 26.9140625 C-11.83624844 24.60956946 -11.92189399 22.30507987 -12 20 C-13.65 19.67 -15.3 19.34 -17 19 C-17 16.36 -17 13.72 -17 11 C-15.02 10.67 -13.04 10.34 -11 10 C-10.67 7.36 -10.34 4.72 -10 2 C-6.19956554 0.26265853 -4.40285423 0 0 0 Z " fill="#083E96" transform="translate(601,286)"/>
<path d="M0 0 C4.01117557 2.10756683 6.55142868 4.01718517 8.09375 8.28125 C8.69696217 12.71384281 9.15186241 17.15662746 7.109375 21.2578125 C4.2579639 24.83087703 1.23860021 26.97686532 -3.2734375 27.6171875 C-8.98193491 27.70610491 -12.5304573 27.33686275 -16.90625 23.28125 C-20.15640553 18.51435522 -20.43843983 14.86924317 -19.90625 9.28125 C-18.11816667 5.14042545 -15.5749741 2.84935687 -11.90625 0.28125 C-7.83022803 -1.07742399 -4.11874159 -1.55296814 0 0 Z " fill="#0095DF" transform="translate(123.90625,238.71875)"/>
<path d="M0 0 C1.64574566 -0.02688151 3.29161413 -0.04634123 4.9375 -0.0625 C5.85402344 -0.07410156 6.77054687 -0.08570313 7.71484375 -0.09765625 C10 0 10 0 11 1 C11.09839214 2.5293463 11.12798539 4.06319566 11.12939453 5.59570312 C11.13254669 6.57341675 11.13569885 7.55113037 11.13894653 8.55847168 C11.1369223 9.62198853 11.13489807 10.68550537 11.1328125 11.78125 C11.13376923 12.86506958 11.13472595 13.94888916 11.13571167 15.06555176 C11.13639365 17.3622239 11.13453811 19.65889795 11.13037109 21.95556641 C11.12502312 25.48474428 11.1303155 29.01379487 11.13671875 32.54296875 C11.13605797 34.76822945 11.13477682 36.99349007 11.1328125 39.21875 C11.13483673 40.28226685 11.13686096 41.34578369 11.13894653 42.44152832 C11.13579437 43.41924194 11.13264221 44.39695557 11.12939453 45.40429688 C11.12820114 46.70216125 11.12820114 46.70216125 11.12698364 48.02624512 C11 50 11 50 10 51 C8.31391034 51.07205511 6.62499341 51.08386068 4.9375 51.0625 C4.01839844 51.05347656 3.09929687 51.04445313 2.15234375 51.03515625 C1.44207031 51.02355469 0.73179687 51.01195312 0 51 C-0.98130583 48.05608252 -1.09389457 46.30820355 -1.02172852 43.25317383 C-1.00163223 42.29240433 -0.98153595 41.33163483 -0.96083069 40.3417511 C-0.93379562 39.30729355 -0.90676056 38.272836 -0.87890625 37.20703125 C-0.84348976 35.61528328 -0.84348976 35.61528328 -0.80735779 33.99137878 C-0.73071549 30.5982833 -0.64669324 27.20541571 -0.5625 23.8125 C-0.5092799 21.51368307 -0.4565395 19.21485498 -0.40429688 16.91601562 C-0.27509954 11.2772024 -0.1398408 5.63855877 0 0 Z " fill="#002F87" transform="translate(428,281)"/>
<path d="M0 0 C3.3 0 6.6 0 10 0 C10 16.83 10 33.66 10 51 C6.37 51 2.74 51 -1 51 C-1.02464156 43.89754492 -1.042832 36.79511449 -1.05493164 29.69262695 C-1.05997349 27.27432828 -1.06680678 24.85603267 -1.07543945 22.43774414 C-1.08751157 18.97020717 -1.09322963 15.50271034 -1.09765625 12.03515625 C-1.10281754 10.94662857 -1.10797882 9.85810089 -1.11329651 8.73658752 C-1.11337204 7.73562546 -1.11344757 6.73466339 -1.11352539 5.70336914 C-1.115746 4.81734512 -1.11796661 3.93132111 -1.12025452 3.01844788 C-1 1 -1 1 0 0 Z " fill="#043B8F" transform="translate(535,281)"/>
<path d="M0 0 C0.66 0 1.32 0 2 0 C1.09923002 4.05346489 -0.47634262 7.73706161 -2.0625 11.5625 C-5.20727079 19.73890406 -5.47458799 30.12035059 -2.4375 38.375 C3.29253652 50.39215993 13.35989017 58.66366176 25.51953125 63.83984375 C44.95703083 70.31901028 64.5292694 72.35902188 84.8125 69.6875 C86.37484375 69.4877356 86.37484375 69.4877356 87.96875 69.28393555 C95.75086039 68.25256424 103.37623608 66.89251886 111 65 C111 65.99 111 66.98 111 68 C108.58484982 68.63137175 106.168096 69.25508812 103.75 69.875 C102.75613281 70.13603516 102.75613281 70.13603516 101.7421875 70.40234375 C90.75819857 73.20015225 80.14817566 74.36508083 68.8125 74.3125 C67.53673096 74.30686035 66.26096191 74.3012207 64.9465332 74.29541016 C42.64214311 74.00932934 20.48363169 68.66774192 3.5625 53.25 C-6.43537475 42.49118764 -8.322788 30.04127788 -8 16 C-9.32 20.29 -10.64 24.58 -12 29 C-12.99 28.34 -13.98 27.68 -15 27 C-12.34991481 16.71470435 -7.5589658 7.5589658 0 0 Z M-7 13 C-6 15 -6 15 -6 15 Z " fill="#002A84" transform="translate(108,270)"/>
<path d="M0 0 C1 1 1 1 1.11352539 4.32641602 C1.11336629 5.80225556 1.10767314 7.27810069 1.09765625 8.75390625 C1.0962413 9.52935287 1.09482635 10.3047995 1.09336853 11.10374451 C1.08775345 13.59003494 1.07519846 16.0762366 1.0625 18.5625 C1.05748694 20.24413933 1.0529237 21.92578006 1.04882812 23.60742188 C1.03777913 27.73831566 1.02050445 31.86914276 1 36 C-0.64574566 36.02688151 -2.29161413 36.04634123 -3.9375 36.0625 C-4.85402344 36.07410156 -5.77054688 36.08570313 -6.71484375 36.09765625 C-9 36 -9 36 -10 35 C-10.08847743 32.47905924 -10.11527301 29.98569107 -10.09765625 27.46484375 C-10.0962413 26.71159317 -10.09482635 25.95834259 -10.09336853 25.18226624 C-10.08775376 22.7673044 -10.07519883 20.35243399 -10.0625 17.9375 C-10.0574869 16.30403779 -10.05292366 14.67057414 -10.04882812 13.03710938 C-10.03777954 9.02470415 -10.02050506 5.01236759 -10 1 C-6.74696956 -0.62651522 -3.60774398 -0.11453156 0 0 Z " fill="#043B92" transform="translate(623,296)"/>
<path d="M0 0 C0 0.66 0 1.32 0 2 C0.98742187 1.98839844 1.97484375 1.97679687 2.9921875 1.96484375 C4.27351563 1.95582031 5.55484375 1.94679688 6.875 1.9375 C8.15117187 1.92589844 9.42734375 1.91429687 10.7421875 1.90234375 C14 2 14 2 16 3 C16 3.66 16 4.32 16 5 C16.99 5.33 17.98 5.66 19 6 C20.01973129 9.05919388 20.11533602 11.12418025 20.09765625 14.32421875 C20.09443359 15.35224609 20.09121094 16.38027344 20.08789062 17.43945312 C20.07951172 18.51130859 20.07113281 19.58316406 20.0625 20.6875 C20.05798828 21.77095703 20.05347656 22.85441406 20.04882812 23.97070312 C20.03703743 26.64719085 20.02058063 29.32356777 20 32 C18.02 32 16.04 32 14 32 C14 31.01 14 30.02 14 29 C13.34 28.67 12.68 28.34 12 28 C12.33 25.03 12.66 22.06 13 19 C10.03 19 7.06 19 4 19 C4 18.01 4 17.02 4 16 C6.31 14.68 8.62 13.36 11 12 C10.67 11.01 10.34 10.02 10 9 C4.84828377 8.90961901 0.08086796 9.15318867 -5 10 C-6.61949011 7.42786866 -7.04408751 6.32330841 -6.625 3.25 C-6.41875 2.5075 -6.2125 1.765 -6 1 C-3.92446352 0.4465236 -2.15634036 0 0 0 Z M14 11 C15 14 15 14 15 14 Z " fill="#094296" transform="translate(400,297)"/>
<path d="M0 0 C0.33 0 0.66 0 1 0 C1.13535156 0.66644531 1.27070312 1.33289063 1.41015625 2.01953125 C4.00213575 13.1169285 9.48451695 22.51080191 19 29 C45.54582908 45.40153011 76.7586282 47.64483936 107.02734375 42.40234375 C110.44763293 41.93941368 113.55448578 41.71083746 117 42 C118.77734375 43.53125 118.77734375 43.53125 119.9375 45.5 C120.33839844 46.1496875 120.73929687 46.799375 121.15234375 47.46875 C121.57193359 48.22671875 121.57193359 48.22671875 122 49 C120.515 49.495 120.515 49.495 119 50 C116 46.25 116 46.25 116 44 C115.16597656 44.20496094 114.33195312 44.40992188 113.47265625 44.62109375 C112.34730469 44.89050781 111.22195312 45.15992188 110.0625 45.4375 C108.96035156 45.70433594 107.85820312 45.97117187 106.72265625 46.24609375 C79.34886418 51.78978931 46.44010942 49.33760777 22.125 34.6875 C11.60309077 27.47247653 3.14583363 19.33879057 -1 7 C-0.625 3.1875 -0.625 3.1875 0 0 Z " fill="#002580" transform="translate(95,307)"/>
<path d="M0 0 C0.87454834 0.00523682 1.74909668 0.01047363 2.65014648 0.01586914 C3.59438477 0.0190918 4.53862305 0.02231445 5.51147461 0.02563477 C6.50469727 0.03401367 7.49791992 0.04239258 8.52124023 0.05102539 C9.51833008 0.05553711 10.51541992 0.06004883 11.54272461 0.06469727 C14.01478872 0.07652532 16.48673541 0.0930069 18.95874023 0.11352539 C18.62874023 1.10352539 18.29874023 2.09352539 17.95874023 3.11352539 C12.01874023 3.11352539 6.07874023 3.11352539 -0.04125977 3.11352539 C-0.04125977 17.30352539 -0.04125977 31.49352539 -0.04125977 46.11352539 C1.93874023 46.11352539 3.91874023 46.11352539 5.95874023 46.11352539 C5.95874023 41.82352539 5.95874023 37.53352539 5.95874023 33.11352539 C6.94874023 32.61852539 6.94874023 32.61852539 7.95874023 32.11352539 C7.95874023 31.78352539 7.95874023 31.45352539 7.95874023 31.11352539 C9.06733398 30.99235352 10.17592773 30.87118164 11.31811523 30.74633789 C12.78170257 30.57746243 14.24524181 30.40816967 15.70874023 30.23852539 C16.43834961 30.15989258 17.16795898 30.08125977 17.91967773 30.00024414 C23.01732036 29.39779547 26.31967465 28.75259098 29.95874023 25.11352539 C30.45374023 27.09352539 30.45374023 27.09352539 30.95874023 29.11352539 C26.19873598 32.80740882 22.53149072 33.84726495 16.58374023 34.36352539 C15.84768555 34.44086914 15.11163086 34.51821289 14.35327148 34.59790039 C12.55657005 34.78457067 10.75779911 34.95114003 8.95874023 35.11352539 C8.9703418 36.04036133 8.98194336 36.96719727 8.99389648 37.92211914 C9.00291992 39.1196582 9.01194336 40.31719727 9.02124023 41.55102539 C9.0328418 42.74598633 9.04444336 43.94094727 9.05639648 45.17211914 C8.95874023 48.11352539 8.95874023 48.11352539 7.95874023 49.11352539 C6.29444972 49.21176476 4.62592093 49.2432617 2.95874023 49.23852539 C1.59749023 49.24239258 1.59749023 49.24239258 0.20874023 49.24633789 C-2.04125977 49.11352539 -2.04125977 49.11352539 -3.04125977 48.11352539 C-3.13948721 46.64547247 -3.16924347 45.17275079 -3.1706543 43.70141602 C-3.17538254 42.29490784 -3.17538254 42.29490784 -3.1802063 40.85998535 C-3.17818207 39.84021606 -3.17615784 38.82044678 -3.17407227 37.76977539 C-3.17502899 36.7303479 -3.17598572 35.69092041 -3.17697144 34.61999512 C-3.17765339 32.41747985 -3.17579803 30.2149626 -3.17163086 28.01245117 C-3.16628284 24.6281282 -3.17157535 21.24393795 -3.17797852 17.85961914 C-3.17731774 15.72550426 -3.17603658 13.59138947 -3.17407227 11.45727539 C-3.1760965 10.4375061 -3.17812073 9.41773682 -3.1802063 8.36706543 C-3.17705414 7.42939331 -3.17390198 6.49172119 -3.1706543 5.52563477 C-3.1698587 4.69592163 -3.16906311 3.8662085 -3.16824341 3.01135254 C-2.98945858 0.33933353 -2.67215216 0.1486127 0 0 Z " fill="#033890" transform="translate(754.041259765625,282.886474609375)"/>
<path d="M0 0 C2.39763185 2.39763185 2.34280586 3.33273498 2.625 6.625 C2.69976563 7.44226563 2.77453125 8.25953125 2.8515625 9.1015625 C2.92503906 10.04128906 2.92503906 10.04128906 3 11 C3.33 11 3.66 11 4 11 C4 13.97 4 16.94 4 20 C3.34 19.67 2.68 19.34 2 19 C1.67 21.31 1.34 23.62 1 26 C3.64 26 6.28 26 9 26 C9 18.74 9 11.48 9 4 C9.99 3.67 10.98 3.34 12 3 C12.02886751 7.14581887 12.04675327 11.29161216 12.0625 15.4375 C12.07087891 16.62150391 12.07925781 17.80550781 12.08789062 19.02539062 C12.09272461 20.71245117 12.09272461 20.71245117 12.09765625 22.43359375 C12.10551147 23.99678345 12.10551147 23.99678345 12.11352539 25.59155273 C12 28 12 28 11 29 C9.33570949 29.09823937 7.66718069 29.12973631 6 29.125 C4.63875 29.12886719 4.63875 29.12886719 3.25 29.1328125 C1 29 1 29 0 28 C-0.15764405 26.22130274 -0.25100677 24.43681524 -0.31640625 22.65234375 C-0.35830078 21.57275391 -0.40019531 20.49316406 -0.44335938 19.38085938 C-0.48267578 18.24455078 -0.52199219 17.10824219 -0.5625 15.9375 C-0.60568359 14.79732422 -0.64886719 13.65714844 -0.69335938 12.48242188 C-0.79982839 9.65507805 -0.90184207 6.82764262 -1 4 C-5.14093698 3.79029441 -5.14093698 3.79029441 -9 5 C-9.02505615 5.69150146 -9.0501123 6.38300293 -9.07592773 7.09545898 C-9.19152161 10.20967866 -9.31441242 13.32356789 -9.4375 16.4375 C-9.47681641 17.52611328 -9.51613281 18.61472656 -9.55664062 19.73632812 C-9.59853516 20.77080078 -9.64042969 21.80527344 -9.68359375 22.87109375 C-9.73858032 24.30859985 -9.73858032 24.30859985 -9.79467773 25.77514648 C-10 28 -10 28 -11 29 C-12.99958364 29.04080783 -15.00045254 29.04254356 -17 29 C-17 28.01 -17 27.02 -17 26 C-15.68 26 -14.36 26 -13 26 C-13.0628418 25.03960815 -13.0628418 25.03960815 -13.12695312 24.05981445 C-13.293758 21.1446882 -13.39741901 18.23056291 -13.5 15.3125 C-13.56703125 14.30509766 -13.6340625 13.29769531 -13.703125 12.25976562 C-13.89603507 4.95329664 -13.89603507 4.95329664 -11.28466797 2.17504883 C-7.44266305 -0.31764396 -4.48289353 -1.97774715 0 0 Z " fill="#043C8F" transform="translate(688,303)"/>
<path d="M0 0 C1.98 0 3.96 0 6 0 C6 15.51 6 31.02 6 47 C4.02 47 2.04 47 0 47 C0 31.49 0 15.98 0 0 Z " fill="#073E8D" transform="translate(430,282)"/>
<path d="M0 0 C0.80308594 0.01417969 1.60617187 0.02835937 2.43359375 0.04296875 C3.64208984 0.05263672 3.64208984 0.05263672 4.875 0.0625 C6.87109375 0.23046875 6.87109375 0.23046875 7.87109375 1.23046875 C7.95760986 2.64616998 7.97814279 4.06606375 7.96875 5.484375 C7.96552734 6.33837891 7.96230469 7.19238281 7.95898438 8.07226562 C7.95060547 8.97009766 7.94222656 9.86792969 7.93359375 10.79296875 C7.92908203 11.69466797 7.92457031 12.59636719 7.91992188 13.52539062 C7.908096 15.76048189 7.89161595 17.99544312 7.87109375 20.23046875 C6.88109375 20.56046875 5.89109375 20.89046875 4.87109375 21.23046875 C4.87109375 15.29046875 4.87109375 9.35046875 4.87109375 3.23046875 C2.89109375 4.22046875 2.89109375 4.22046875 0.87109375 5.23046875 C0.54109375 18.76046875 0.21109375 32.29046875 -0.12890625 46.23046875 C1.52109375 46.23046875 3.17109375 46.23046875 4.87109375 46.23046875 C4.54109375 47.22046875 4.21109375 48.21046875 3.87109375 49.23046875 C1.56109375 49.23046875 -0.74890625 49.23046875 -3.12890625 49.23046875 C-4.29709631 46.89408864 -4.26159457 45.50707995 -4.27416992 42.90429688 C-4.28054977 42.00996948 -4.28692963 41.11564209 -4.29350281 40.19421387 C-4.29461563 39.22649048 -4.29572845 38.25876709 -4.296875 37.26171875 C-4.3002034 36.27046997 -4.3035318 35.27922119 -4.30696106 34.25793457 C-4.31202918 32.15975408 -4.31436942 30.06156551 -4.31420898 27.96337891 C-4.31639727 24.74368107 -4.3345592 21.52432475 -4.35351562 18.3046875 C-4.35644913 16.26953243 -4.35843421 14.23437572 -4.359375 12.19921875 C-4.36656052 11.23149536 -4.37374603 10.26377197 -4.38114929 9.26672363 C-4.37807266 8.37239624 -4.37499603 7.47806885 -4.37182617 6.55664062 C-4.37325119 5.76769409 -4.37467621 4.97874756 -4.37614441 4.16589355 C-4.00160103 1.23390058 -2.89838054 0.31376964 0 0 Z " fill="#043796" transform="translate(795.12890625,282.76953125)"/>
<path d="M0 0 C-0.52268466 2.76276177 -1.10869587 5.3260876 -2 8 C-6.29 7.34 -10.58 6.68 -15 6 C-15 5.34 -15 4.68 -15 4 C-15.66 3.67 -16.32 3.34 -17 3 C-15.39592672 2.97291433 -13.7917215 2.95356517 -12.1875 2.9375 C-11.29417969 2.92589844 -10.40085937 2.91429687 -9.48046875 2.90234375 C-7 3 -7 3 -4 4 C-4 3.01 -4 2.02 -4 1 C-6.5829465 0.72368479 -9.16274443 0.47828726 -11.75 0.25 C-12.47960937 0.16878906 -13.20921875 0.08757812 -13.9609375 0.00390625 C-17.49374327 -0.28514149 -19.51848891 -0.32501998 -22.5 1.6875 C-24.21826768 4.336496 -24.43342053 5.63185105 -24.25 8.75 C-24.21390625 9.54921875 -24.1778125 10.3484375 -24.140625 11.171875 C-24.09421875 11.77515625 -24.0478125 12.3784375 -24 13 C-23.34773437 13.17015625 -22.69546875 13.3403125 -22.0234375 13.515625 C-16.63277496 15.01038098 -12.45246128 16.60206902 -8 20 C-8.33 22.31 -8.66 24.62 -9 27 C-12.96 27.495 -12.96 27.495 -17 28 C-14.9927092 24.9890638 -14.16115776 24.36983503 -11 23 C-11.81275418 20.78720125 -11.81275418 20.78720125 -14.109375 20.2890625 C-14.98078125 20.06992187 -15.8521875 19.85078125 -16.75 19.625 C-20.96120033 18.43815241 -23.84706639 17.15293361 -27 14 C-28.60430264 10.79139471 -28.48105318 7.4809543 -28 4 C-25.01252656 -1.08976957 -21.76145452 -2.22936153 -16.3125 -3.75 C-10.49792078 -4.18883617 -4.87194687 -3.24796458 0 0 Z " fill="#012F88" transform="translate(731,299)"/>
<path d="M0 0 C3.74728174 0.56993078 5.45229753 2.08848175 8.08203125 4.75390625 C8.84966797 5.52669922 9.61730469 6.29949219 10.40820312 7.09570312 C11.59833008 8.31676758 11.59833008 8.31676758 12.8125 9.5625 C13.59431641 10.34947266 14.37613281 11.13644531 15.18164062 11.94726562 C19.44921063 16.27187917 23.56248068 20.68380977 27.50488281 25.30712891 C28.91401414 26.90264109 30.38735649 28.35566715 31.9375 29.8125 C34 32 34 32 34 35 C27.77038023 35.05059881 21.5408132 35.08569062 15.31103516 35.10986328 C13.1905723 35.11993751 11.07012339 35.13359733 8.94970703 35.15087891 C5.90654057 35.17506489 2.86355734 35.18646869 -0.1796875 35.1953125 C-1.60787308 35.21079636 -1.60787308 35.21079636 -3.06491089 35.22659302 C-3.94567291 35.22674408 -4.82643494 35.22689514 -5.73388672 35.22705078 C-6.51110077 35.231492 -7.28831482 35.23593323 -8.08908081 35.24050903 C-10 35 -10 35 -12 33 C-9.86913558 30.86913558 -5.10833065 31.74039128 -2.15234375 31.68359375 C-0.82270348 31.6524221 -0.82270348 31.6524221 0.53379822 31.62062073 C3.376617 31.555026 6.21953117 31.49619448 9.0625 31.4375 C10.98503606 31.3943242 12.90756234 31.35071022 14.83007812 31.30664062 C19.55328668 31.19933457 24.27659153 31.09809549 29 31 C28.53844009 30.54290649 28.07688019 30.08581299 27.60133362 29.61486816 C13.45190071 15.59745097 13.45190071 15.59745097 8.49609375 9.71484375 C6.23100011 7.11856148 3.76348582 4.73883577 1.28515625 2.34765625 C0 1 0 1 0 0 Z " fill="#002981" transform="translate(244,340)"/>
<path d="M0 0 C0.87567627 0.17390259 0.87567627 0.17390259 1.76904297 0.35131836 C4.47010183 0.88486414 7.17251875 1.41120817 9.875 1.9375 C11.25171875 2.21110352 11.25171875 2.21110352 12.65625 2.49023438 C18.13608774 3.55147056 23.53906287 4.3291068 29.10595703 4.75610352 C31 5 31 5 32 6 C32.09981214 8.6773138 32.13879875 11.32304175 32.125 14 C32.13080078 15.12535156 32.13080078 15.12535156 32.13671875 16.2734375 C32.12661053 21.87338947 32.12661053 21.87338947 31 23 C28.55169574 23.08843793 26.13179401 23.11528752 23.68359375 23.09765625 C22.95253922 23.0962413 22.22148468 23.09482635 21.46827698 23.09336853 C19.12464368 23.08775408 16.78110461 23.07519922 14.4375 23.0625 C12.85221492 23.05748686 11.26692834 23.05292363 9.68164062 23.04882812 C5.7877239 23.03777997 1.89387795 23.02050572 -2 23 C-1.505 21.515 -1.505 21.515 -1 20 C8.9 20 18.8 20 29 20 C29 16.04 29 12.08 29 8 C28.16339844 7.97421875 27.32679688 7.9484375 26.46484375 7.921875 C17.11867434 7.46646918 8.9435721 5.69309244 0 3 C0 2.01 0 1.02 0 0 Z " fill="#002D86" transform="translate(134,352)"/>
<path d="M0 0 C1.38251953 -0.0309375 1.38251953 -0.0309375 2.79296875 -0.0625 C8.84019401 -0.09661693 14.5645897 0.37401092 20 3.25 C20.66 4.24 21.32 5.23 22 6.25 C21.01 6.58 20.02 6.91 19 7.25 C19 6.59 19 5.93 19 5.25 C9.43 4.59 -0.14 3.93 -10 3.25 C-10 17.44 -10 31.63 -10 46.25 C-7.69 46.25 -5.38 46.25 -3 46.25 C-3 41.96 -3 37.67 -3 33.25 C-1.68 33.58 -0.36 33.91 1 34.25 C1.02685412 36.56243792 1.04632841 38.8749627 1.0625 41.1875 C1.07410156 42.47527344 1.08570313 43.76304687 1.09765625 45.08984375 C1 48.25 1 48.25 0 49.25 C-1.85287502 49.32226502 -3.70833878 49.3338122 -5.5625 49.3125 C-6.57441406 49.30347656 -7.58632813 49.29445313 -8.62890625 49.28515625 C-9.80259766 49.26775391 -9.80259766 49.26775391 -11 49.25 C-11.95388152 46.38835545 -12.10109943 44.7497723 -12.03759766 41.79443359 C-12.02072906 40.89695404 -12.00386047 39.99947449 -11.98648071 39.07479858 C-11.9625827 38.10909943 -11.93868469 37.14340027 -11.9140625 36.1484375 C-11.89282318 35.15623199 -11.87158386 34.16402649 -11.84970093 33.14175415 C-11.80344918 31.04528999 -11.75452174 28.9488834 -11.703125 26.85253906 C-11.62514479 23.63098159 -11.55807952 20.40932488 -11.4921875 17.1875 C-11.44596639 15.15363087 -11.39911312 13.11977598 -11.3515625 11.0859375 C-11.33171295 10.11618988 -11.3118634 9.14644226 -11.29141235 8.14730835 C-11.26823944 7.25613312 -11.24506653 6.36495789 -11.22119141 5.44677734 C-11.20263092 4.6586264 -11.18407043 3.87047546 -11.16494751 3.05844116 C-10.72680083 -1.74528397 -3.65899082 0.01980509 0 0 Z " fill="#012F8D" transform="translate(328,282.75)"/>
<path d="M0 0 C-1.07401108 2.91517292 -1.77810176 4.77810176 -4 7 C-4.33145587 9.4255024 -4.33145587 9.4255024 -4.31884766 12.27587891 C-4.33871735 13.3768692 -4.35858704 14.4778595 -4.37905884 15.61221313 C-4.39061005 16.80494843 -4.40216125 17.99768372 -4.4140625 19.2265625 C-4.43342865 20.44451508 -4.4527948 21.66246765 -4.4727478 22.91732788 C-4.53268215 26.8198133 -4.57898471 30.72232799 -4.625 34.625 C-4.66316699 37.2656381 -4.70221795 39.90626357 -4.7421875 42.546875 C-4.83839504 49.03113826 -4.92340176 55.51547708 -5 62 C-3.57608923 62.48263722 -2.15147097 62.96318743 -0.7265625 63.44287109 C0.06669434 63.71070404 0.85995117 63.97853699 1.67724609 64.25448608 C9.86523623 66.88251335 18.45024357 68.26295203 27 69 C27.33 69.99 27.66 70.98 28 72 C15.33937992 71.57299764 3.98879605 69.44134146 -7 63 C-7.11600357 55.52426726 -7.20476984 48.04872951 -7.25906086 40.57227802 C-7.28512227 37.10035151 -7.32045387 33.62904208 -7.37719727 30.1574707 C-7.44206834 26.16351501 -7.46620862 22.17020442 -7.48828125 18.17578125 C-7.51408768 16.93290848 -7.5398941 15.69003571 -7.56648254 14.40950012 C-7.56960697 4.8057112 -7.56960697 4.8057112 -4.59448242 1.67651367 C-2 0 -2 0 0 0 Z " fill="#002B85" transform="translate(137,265)"/>
<path d="M0 0 C6.83183596 -0.05089944 13.66362262 -0.08581716 20.49560547 -0.10986328 C22.81756416 -0.11989264 25.13951032 -0.1335194 27.46142578 -0.15087891 C30.80764877 -0.17526201 34.15370408 -0.18651404 37.5 -0.1953125 C38.5305249 -0.20563507 39.5610498 -0.21595764 40.62280273 -0.22659302 C46.44311844 -0.22748981 51.42041926 0.32031371 57 2 C56.67 2.66 56.34 3.32 56 4 C48.50659187 3.93312583 41.01371069 3.84336929 33.52075195 3.73754883 C30.97068544 3.7042539 28.42054441 3.67623637 25.87036133 3.65356445 C22.20882351 3.620103 18.54797136 3.56779019 14.88671875 3.51171875 C13.7428923 3.50532883 12.59906586 3.4989389 11.420578 3.49235535 C9.82926811 3.46266411 9.82926811 3.46266411 8.20581055 3.43237305 C7.27093307 3.42126999 6.3360556 3.41016693 5.37284851 3.39872742 C2.60990138 2.93444882 1.71960483 2.15635823 0 0 Z " fill="#00287D" transform="translate(165,264)"/>
<path d="M0 0 C1.32 0 2.64 0 4 0 C4.33 0.66 4.66 1.32 5 2 C5.99 2.33 6.98 2.66 8 3 C8.33 3.99 8.66 4.98 9 6 C8.01 6.66 7.02 7.32 6 8 C5.49156938 10.31753588 5.49156938 10.31753588 5.48828125 13.0078125 C5.43510742 14.48701172 5.43510742 14.48701172 5.38085938 15.99609375 C5.35830078 17.02863281 5.33574219 18.06117188 5.3125 19.125 C5.27833984 20.16527344 5.24417969 21.20554687 5.20898438 22.27734375 C5.12632942 24.85145507 5.05723845 27.42521829 5 30 C3.35 30 1.7 30 0 30 C0 20.1 0 10.2 0 0 Z " fill="#0E4598" transform="translate(670,299)"/>
<path d="M0 0 C-0.66 0.99 -1.32 1.98 -2 3 C-4.68939882 3.38614162 -7.17272777 3.58242107 -9.875 3.66015625 C-11.07189453 3.7132621 -11.07189453 3.7132621 -12.29296875 3.7674408 C-14.86162514 3.87943564 -17.43050002 3.97210952 -20 4.0625 C-23.33371332 4.19089389 -26.66694172 4.32827428 -30 4.47265625 C-30.82193848 4.50759186 -31.64387695 4.54252747 -32.49072266 4.57852173 C-41.04047404 4.98062539 -49.51034716 5.93815257 -58 7 C-57.01 6.67 -56.02 6.34 -55 6 C-55 5.34 -55 4.68 -55 4 C-36.63819025 0.07062214 -18.73240021 -0.16989061 0 0 Z " fill="#002F8A" transform="translate(206,239)"/>
<path d="M0 0 C2.3125 0.0625 2.3125 0.0625 5 1 C7.71385724 5.43263349 8.57379397 8.94589278 7.62890625 14.078125 C6.3044506 18.12552986 3.9215392 20.82127804 0.3125 23.03515625 C-7.99833813 26.75771916 -17.54050821 25.60292055 -26 23 C-26 22.01 -26 21.02 -26 20 C-24.9275 20.165 -23.855 20.33 -22.75 20.5 C-14.8427409 21.48314056 -6.84174803 21.42577237 1 20 C2.89489282 15.26276795 3.6909827 11.04717795 3 6 C1.6351132 2.59758176 1.6351132 2.59758176 0 0 Z " fill="#002E89" transform="translate(486,308)"/>
<path d="M0 0 C3.65044786 1.29131489 5.11589826 3.40946813 7.24511719 6.546875 C9.28724142 9.46371747 11.27660789 11.66251366 14 14 C18.71850832 14.74916137 22.51677392 13.46742163 27 12 C29.54144711 11.29087932 32.08311127 10.58253604 34.625 9.875 C35.77226562 9.52179688 36.91953125 9.16859375 38.1015625 8.8046875 C41 8 41 8 44 8 C43.505 6.515 43.505 6.515 43 5 C45.475 5.495 45.475 5.495 48 6 C48 7.32 48 8.64 48 10 C40.70407671 12.15233175 33.37856137 14.15041247 26 16 C25.28827637 16.1846582 24.57655273 16.36931641 23.84326172 16.55957031 C20.02035209 17.48725496 16.83714792 17.97279806 13 17 C8.93645993 13.82364792 5.98617742 10.17949542 3 6 C2.41476563 5.26136719 1.82953125 4.52273438 1.2265625 3.76171875 C0 2 0 2 0 0 Z " fill="#002C84" transform="translate(183,318)"/>
<path d="M0 0 C0.66 0 1.32 0 2 0 C-2.38774165 17.30023851 -16.6195867 28.68999872 -31 38 C-35.88380179 40.89052661 -40.91567522 43.48307894 -46 46 C-46 45.01 -46 44.02 -46 43 C-44.58227539 41.85253906 -44.58227539 41.85253906 -42.59765625 40.765625 C-41.87650635 40.36013428 -41.15535645 39.95464355 -40.41235352 39.53686523 C-39.24917603 38.89986694 -39.24917603 38.89986694 -38.0625 38.25 C-31.6160961 34.58710459 -25.625277 30.86307344 -20 26 C-18.73929687 24.95392578 -18.73929687 24.95392578 -17.453125 23.88671875 C-9.38366809 16.97515728 -4.50526299 9.53036403 0 0 Z " fill="#0064BF" transform="translate(296,291)"/>
<path d="M0 0 C3.63 0 7.26 0 11 0 C11.33 8.25 11.66 16.5 12 25 C10.68 25 9.36 25 8 25 C8 17.41 8 9.82 8 2 C6.35 2 4.7 2 3 2 C3.01571045 2.71655762 3.0314209 3.43311523 3.04760742 4.17138672 C3.10981863 7.40584476 3.14894649 10.64017719 3.1875 13.875 C3.21263672 15.00292969 3.23777344 16.13085938 3.26367188 17.29296875 C3.27333984 18.36933594 3.28300781 19.44570313 3.29296875 20.5546875 C3.3086792 21.54968262 3.32438965 22.54467773 3.34057617 23.56982422 C3.22818604 24.37178223 3.1157959 25.17374023 3 26 C2.01 26.66 1.02 27.32 0 28 C0 18.76 0 9.52 0 0 Z " fill="#01328F" transform="translate(550,297)"/>
<path d="M0 0 C-0.391875 0.556875 -0.78375 1.11375 -1.1875 1.6875 C-2.31870498 4.08129305 -2.31870498 4.08129305 -0.875 6.6875 C0.7798036 9.12932988 0.7798036 9.12932988 3.1875 9.8125 C3.785625 9.874375 4.38375 9.93625 5 10 C5 10.66 5 11.32 5 12 C3.02 12 1.04 12 -1 12 C1.31 12.33 3.62 12.66 6 13 C6 13.66 6 14.32 6 15 C0.66011194 15.92067036 -2.92525 16.35171342 -8 14 C-9.72329345 10.55341311 -9.49702577 6.76911208 -9 3 C-6.3745635 -0.20886683 -4.00742101 -0.33395175 0 0 Z " fill="#073F96" transform="translate(403,314)"/>
<path d="M0 0 C1.875 1.0625 1.875 1.0625 3 3 C3.5 6.5 3.5 6.5 3 10 C0.8125 12 0.8125 12 -2 13 C-4.83028135 12.8652247 -6.45900646 12.32459612 -8.875 10.875 C-10 9 -10 9 -9.875 5.4375 C-8.43492891 -0.21992216 -5.33249072 -0.55546778 0 0 Z " fill="#003294" transform="translate(622,281)"/>
<path d="M0 0 C6.75 0.75 6.75 0.75 9 3 C8.64700993 6.44165321 7.95418308 8.06872538 6 11 C5.030625 10.835 4.06125 10.67 3.0625 10.5 C-4.64817746 9.3165724 -4.64817746 9.3165724 -12 11 C-11.67 12.65 -11.34 14.3 -11 16 C-8.03 16.99 -5.06 17.98 -2 19 C-2.66 19.66 -3.32 20.32 -4 21 C-10.12199466 20.66607302 -10.12199466 20.66607302 -12.8125 18.625 C-13.91720934 17.11329248 -14.96141481 15.55787778 -16 14 C-13.70833333 7.35416667 -13.70833333 7.35416667 -11 6 C-9.21140489 5.87792129 -7.41771619 5.82451552 -5.625 5.8125 C-4.19027344 5.79123047 -4.19027344 5.79123047 -2.7265625 5.76953125 C0.03010017 6.00254428 1.64947395 6.59079836 4 8 C4.33 6.68 4.66 5.36 5 4 C4.360625 3.71125 3.72125 3.4225 3.0625 3.125 C1 2 1 2 0 0 Z " fill="#012C89" transform="translate(483,284)"/>
<path d="M0 0 C0.66 1.32 1.32 2.64 2 4 C-2.76000426 7.69388343 -6.42724952 8.73373956 -12.375 9.25 C-13.11105469 9.32734375 -13.84710937 9.4046875 -14.60546875 9.484375 C-16.40217018 9.67104528 -18.20094113 9.83761464 -20 10 C-19.98839844 10.92683594 -19.97679687 11.85367187 -19.96484375 12.80859375 C-19.95582031 14.00613281 -19.94679688 15.20367187 -19.9375 16.4375 C-19.92589844 17.63246094 -19.91429687 18.82742188 -19.90234375 20.05859375 C-20 23 -20 23 -21 24 C-22.68608966 24.07205511 -24.37500659 24.08386068 -26.0625 24.0625 C-26.98160156 24.05347656 -27.90070312 24.04445313 -28.84765625 24.03515625 C-29.55792969 24.02355469 -30.26820313 24.01195312 -31 24 C-31.33 23.34 -31.66 22.68 -32 22 C-29.04335481 20.5216774 -26.25770263 20.93967217 -23 21 C-23 16.71 -23 12.42 -23 8 C-22.34 7.67 -21.68 7.34 -21 7 C-21 6.67 -21 6.34 -21 6 C-19.89140625 5.87882812 -18.7828125 5.75765625 -17.640625 5.6328125 C-16.17703766 5.46393704 -14.71349843 5.29464428 -13.25 5.125 C-12.52039063 5.04636719 -11.79078125 4.96773438 -11.0390625 4.88671875 C-5.73334028 4.28419695 -5.73334028 4.28419695 -1 2 C-0.67 1.34 -0.34 0.68 0 0 Z " fill="#012A88" transform="translate(783,308)"/>
<path d="M0 0 C10.33528924 0.76557698 18.97538468 4.14895935 26 12 C27.21875 14.21875 27.21875 14.21875 28 16 C24.82461668 15.65978036 23.97723135 14.97533396 21.75 12.5625 C20 10 20 10 20 8 C18.68 8 17.36 8 16 8 C16.61875 8.763125 17.2375 9.52625 17.875 10.3125 C21.95649252 15.47438759 22.20894379 17.62721432 22 24 C21.34 24.33 20.68 24.66 20 25 C19.91363281 24.34773438 19.82726562 23.69546875 19.73828125 23.0234375 C18.77397374 17.02526787 17.6396094 13.23616511 13 9 C10.42014861 7.4414506 7.75722371 6.20930864 5 5 C3 4 1 3 -1 2 C-0.67 1.34 -0.34 0.68 0 0 Z " fill="#0060B8" transform="translate(269,261)"/>
<path d="M0 0 C1.9375 0.5625 1.9375 0.5625 4 2 C4.75 5.625 4.75 5.625 5 9 C-2.79604733 12.09630249 -9.51872799 13.47392979 -17.5625 10.5 C-18.696875 10.005 -19.83125 9.51 -21 9 C-18.6441079 7.51666053 -17.48337396 6.92161503 -14.6875 7.375 C-13.800625 7.58125 -12.91375 7.7875 -12 8 C-7.21150631 8.17735162 -2.72581485 7.77156161 2 7 C1.34 6.34 0.68 5.68 0 5 C-0.78375 5 -1.5675 5 -2.375 5 C-5.20104177 5 -6.602028 4.42102044 -9 3 C-9 3.66 -9 4.32 -9 5 C-10.32 4.67 -11.64 4.34 -13 4 C-12.67 3.01 -12.34 2.02 -12 1 C-10.82630859 1.01740234 -10.82630859 1.01740234 -9.62890625 1.03515625 C-8.61699219 1.04417969 -7.60507812 1.05320312 -6.5625 1.0625 C-5.04849609 1.07990234 -5.04849609 1.07990234 -3.50390625 1.09765625 C-1.05978933 1.28612676 -1.05978933 1.28612676 0 0 Z " fill="#002A8A" transform="translate(383,321)"/>
<path d="M0 0 C1.37478516 0.01740234 1.37478516 0.01740234 2.77734375 0.03515625 C3.69644531 0.04417969 4.61554687 0.05320312 5.5625 0.0625 C6.27277344 0.07410156 6.98304688 0.08570313 7.71484375 0.09765625 C8.04484375 1.74765625 8.37484375 3.39765625 8.71484375 5.09765625 C8.38484375 4.43765625 8.05484375 3.77765625 7.71484375 3.09765625 C5.07484375 3.09765625 2.43484375 3.09765625 -0.28515625 3.09765625 C-0.28515625 9.03765625 -0.28515625 14.97765625 -0.28515625 21.09765625 C-2.68575442 22.29795533 -4.17876274 22.21225368 -6.85546875 22.1953125 C-7.75136719 22.19208984 -8.64726563 22.18886719 -9.5703125 22.18554688 C-10.50746094 22.17716797 -11.44460938 22.16878906 -12.41015625 22.16015625 C-13.35503906 22.15564453 -14.29992187 22.15113281 -15.2734375 22.14648438 C-17.61074012 22.13467982 -19.94791686 22.11821384 -22.28515625 22.09765625 C-21.29515625 20.61265625 -21.29515625 20.61265625 -20.28515625 19.09765625 C-17.33451477 18.87679985 -14.60147394 18.81704636 -11.66015625 18.91015625 C-10.45746094 18.93045898 -10.45746094 18.93045898 -9.23046875 18.95117188 C-7.24841247 18.98656574 -5.26670074 19.04037391 -3.28515625 19.09765625 C-3.29675781 17.80988281 -3.30835938 16.52210938 -3.3203125 15.1953125 C-3.32968895 13.51692853 -3.3387893 11.83854299 -3.34765625 10.16015625 C-3.35603516 9.31001953 -3.36441406 8.45988281 -3.37304688 7.58398438 C-3.37788086 6.3706543 -3.37788086 6.3706543 -3.3828125 5.1328125 C-3.39066772 4.00951538 -3.39066772 4.00951538 -3.39868164 2.86352539 C-3.22295389 0.13010851 -2.72767288 0.11656722 0 0 Z " fill="#052E95" transform="translate(824.28515625,282.90234375)"/>
<path d="M0 0 C12.19073231 -0.44062888 12.19073231 -0.44062888 16 3 C18.32826375 6.21522137 18.39711181 9.10830425 18 13 C15.73529412 17.63235294 15.73529412 17.63235294 13 19 C10.7927077 19.07092842 8.58332548 19.08415025 6.375 19.0625 C5.18648438 19.05347656 3.99796875 19.04445313 2.7734375 19.03515625 C1.85820312 19.02355469 0.94296875 19.01195312 0 19 C0 18.67 0 18.34 0 18 C1.2375 17.87625 2.475 17.7525 3.75 17.625 C8.13160349 17.07536423 10.836091 16.163909 14 13 C14.28602162 8.85490567 14.28602162 8.85490567 13 5 C9.43545584 3.62902148 5.76644005 3.92756846 2 4 C1.67 7.96 1.34 11.92 1 16 C2.65 16 4.3 16 6 16 C6 16.33 6 16.66 6 17 C4.02 17 2.04 17 0 17 C0 11.39 0 5.78 0 0 Z " fill="#002F8D" transform="translate(327,290)"/>
<path d="M0 0 C1.60379341 -0.05416188 3.20811406 -0.09286638 4.8125 -0.125 C5.70582031 -0.14820313 6.59914063 -0.17140625 7.51953125 -0.1953125 C10.966001 0.07606307 12.60656148 1.60656148 15 4 C15.66 4.33 16.32 4.66 17 5 C18.03361589 9.05495465 18.23975999 11.36463604 16.75 15.3125 C15 18 15 18 12 20 C9.08203125 20.1953125 9.08203125 20.1953125 5.8125 20.125 C4.72582031 20.10695313 3.63914062 20.08890625 2.51953125 20.0703125 C1.27236328 20.03550781 1.27236328 20.03550781 0 20 C0 19.67 0 19.34 0 19 C3.63 18.67 7.26 18.34 11 18 C11 17.34 11 16.68 11 16 C11.66 15.67 12.32 15.34 13 15 C13.84172822 11.60867549 13.84172822 11.60867549 14 8 C12.38805234 4.97403736 12.38805234 4.97403736 10.3125 4.3125 C7.19641489 3.89140742 4.13969957 3.93962116 1 4 C0.94610913 5.95803507 0.90725783 7.91648909 0.875 9.875 C0.84019531 11.51082031 0.84019531 11.51082031 0.8046875 13.1796875 C0.69939466 16.1371051 0.69939466 16.1371051 3 18 C1.35 18 -0.3 18 -2 18 C-2 12.72 -2 7.44 -2 2 C-1.34 1.67 -0.68 1.34 0 1 C0 0.67 0 0.34 0 0 Z " fill="#002F87" transform="translate(762,290)"/>
<path d="M0 0 C7.440829 0.55806217 12.74204941 4.39001051 17.75 9.6875 C23.88628493 17.0846654 26.1664851 25.84985631 26.0625 35.3125 C26.05347656 36.38113281 26.04445313 37.44976562 26.03515625 38.55078125 C26.02355469 39.35902344 26.01195312 40.16726563 26 41 C25.34 41 24.68 41 24 41 C23.84144531 39.74445313 23.68289063 38.48890625 23.51953125 37.1953125 C21.34228793 20.28643362 21.34228793 20.28643362 11.046875 7.25 C7.26365562 4.93963702 3.18173229 3.43037121 -1 2 C-0.67 1.34 -0.34 0.68 0 0 Z " fill="#002983" transform="translate(242,243)"/>
<path d="M0 0 C0.79052765 -0.00570007 1.5810553 -0.01140015 2.39553833 -0.01727295 C4.07178401 -0.02673708 5.74804842 -0.03326252 7.42431641 -0.03710938 C9.99023933 -0.04680857 12.55535927 -0.07781494 15.12109375 -0.109375 C16.74739106 -0.11590543 18.37369412 -0.12115574 20 -0.125 C20.76883514 -0.1373468 21.53767029 -0.1496936 22.32980347 -0.16241455 C27.67956817 -0.14003154 27.67956817 -0.14003154 30.14111328 1.72363281 C30.46837402 2.21186523 30.79563477 2.70009766 31.1328125 3.203125 C25.75766345 3.25248009 20.38264565 3.28882302 15.00732422 3.31298828 C13.17787377 3.32305984 11.34843947 3.33671776 9.51904297 3.35400391 C6.89286316 3.37820177 4.26689575 3.38959632 1.640625 3.3984375 C0.40930344 3.41392136 0.40930344 3.41392136 -0.84689331 3.42971802 C-2.85507892 3.43011684 -4.86274132 3.3256204 -6.8671875 3.203125 C-7.5271875 2.543125 -8.1871875 1.883125 -8.8671875 1.203125 C-6.85006231 -0.81400019 -2.76766554 0.01521864 0 0 Z " fill="#00144F" transform="translate(240.8671875,371.796875)"/>
<path d="M0 0 C0.33 0.66 0.66 1.32 1 2 C1.66 2.33 2.32 2.66 3 3 C0.37249493 14.04013097 -4.67037045 22.36413673 -14 29 C-22.59487016 34.22940895 -22.59487016 34.22940895 -26.296875 33.625 C-26.85890625 33.41875 -27.4209375 33.2125 -28 33 C-25.88672993 30.88672993 -23.83952748 29.92648912 -21.14990234 28.69165039 C-14.85975346 25.7809814 -9.69140381 23.06070909 -6 17 C-5.42378906 16.05833984 -5.42378906 16.05833984 -4.8359375 15.09765625 C-2.18608382 10.28407312 -0.94760719 5.38639878 0 0 Z " fill="#002886" transform="translate(265,285)"/>
<path d="M0 0 C-0.33 0.66 -0.66 1.32 -1 2 C-2.98 2 -4.96 2 -7 2 C-7 9.26 -7 16.52 -7 24 C-8.33333333 24 -9.66666667 24 -11 24 C-11.02887236 20.18751574 -11.04675492 16.3750593 -11.0625 12.5625 C-11.07087891 11.47388672 -11.07925781 10.38527344 -11.08789062 9.26367188 C-11.09111328 8.22919922 -11.09433594 7.19472656 -11.09765625 6.12890625 C-11.10289307 5.17056885 -11.10812988 4.21223145 -11.11352539 3.22485352 C-11 1 -11 1 -10 0 C-2.40963855 -1.20481928 -2.40963855 -1.20481928 0 0 Z " fill="#023D8E" transform="translate(582,297)"/>
<path d="M0 0 C0.33 0.99 0.66 1.98 1 3 C1.66 3.33 2.32 3.66 3 4 C-0.67039036 9.16148645 -3.7758424 11.60274013 -10 13 C-16.11974312 13.9625227 -20.92575818 12.5138002 -26 9 C-28.5 6.25 -28.5 6.25 -30 4 C-29.01 3.34 -28.02 2.68 -27 2 C-26.401875 2.969375 -25.80375 3.93875 -25.1875 4.9375 C-22.64258295 7.99573838 -20.60454724 8.57021287 -16.6875 9 C-11.65216197 9.16308787 -7.65351919 8.99436537 -3 7 C-1.4146763 4.67557268 -0.81352786 2.74565652 0 0 Z " fill="#002F8A" transform="translate(659,320)"/>
<path d="M0 0 C10.89 0 21.78 0 33 0 C32.67 0.99 32.34 1.98 32 3 C21.11 3 10.22 3 -1 3 C-0.67 2.01 -0.34 1.02 0 0 Z " fill="#00165C" transform="translate(133,372)"/>
<path d="M0 0 C2.64 0 5.28 0 8 0 C8.25394531 0.54269531 8.50789063 1.08539063 8.76953125 1.64453125 C9.11371094 2.35996094 9.45789063 3.07539063 9.8125 3.8125 C10.14894531 4.52019531 10.48539062 5.22789062 10.83203125 5.95703125 C11.89951035 8.03199676 11.89951035 8.03199676 13.51171875 9.51171875 C15 11 15 11 15.90625 13.1484375 C16.83617633 15.22088718 16.83617633 15.22088718 19.09375 15.5390625 C19.8878125 15.56742187 20.681875 15.59578125 21.5 15.625 C25.80677966 15.80677966 25.80677966 15.80677966 28 18 C28.33 17.34 28.66 16.68 29 16 C29 16.99 29 17.98 29 19 C24.55240327 19.53450346 20.42699994 19.77999523 16 19 C13.06214865 16.43486113 11.62272716 13.50414995 10 10 C9.38125 9.030625 8.7625 8.06125 8.125 7.0625 C7 5 7 5 7 3 C4.69 3 2.38 3 0 3 C0 2.01 0 1.02 0 0 Z " fill="#00328C" transform="translate(328,313)"/>
<path d="M0 0 C0.495 0.99 0.495 0.99 1 2 C-5.86864848 3.25806856 -12.72072425 3.22033837 -19.6875 3.25 C-20.91017578 3.270625 -22.13285156 3.29125 -23.39257812 3.3125 C-25.15311523 3.32023437 -25.15311523 3.32023437 -26.94921875 3.328125 C-28.54769653 3.34214355 -28.54769653 3.34214355 -30.1784668 3.35644531 C-33.32891695 2.9584478 -34.68273932 2.11389428 -37 0 C-32.05227976 -0.16745546 -27.1044028 -0.32803118 -22.15625 -0.48217773 C-20.4722693 -0.53561424 -18.78834761 -0.59094488 -17.10449219 -0.64819336 C-14.68697842 -0.73005852 -12.26933568 -0.80515472 -9.8515625 -0.87890625 C-9.0963028 -0.90594131 -8.34104309 -0.93297638 -7.56289673 -0.96083069 C-2.22774341 -1.11387171 -2.22774341 -1.11387171 0 0 Z " fill="#002F83" transform="translate(214,302)"/>
<path d="M0 0 C0.99 0.33 1.98 0.66 3 1 C3 6.94 3 12.88 3 19 C4.65 19 6.3 19 8 19 C7.67 19.99 7.34 20.98 7 22 C4.69 22 2.38 22 0 22 C-1.16581918 19.66836164 -1.12905609 18.27846518 -1.1328125 15.68359375 C-1.13410156 14.83732422 -1.13539063 13.99105469 -1.13671875 13.11914062 C-1.13285156 12.23419922 -1.12898437 11.34925781 -1.125 10.4375 C-1.12886719 9.54869141 -1.13273438 8.65988281 -1.13671875 7.74414062 C-1.13542969 6.89916016 -1.13414062 6.05417969 -1.1328125 5.18359375 C-1.13168457 4.40556396 -1.13055664 3.62753418 -1.12939453 2.82592773 C-1 1 -1 1 0 0 Z " fill="#053A8E" transform="translate(792,310)"/>
<path d="M0 0 C0.99 0 1.98 0 3 0 C3.66 0.99 4.32 1.98 5 3 C8.29386853 4.33801985 11.59145051 5.47940207 14.97070312 6.57421875 C19.70298902 8.21147585 22.7866474 9.967433 26 14 C25.8125 16.8125 25.8125 16.8125 25 19 C24.01 19 23.02 19 22 19 C22 17.35 22 15.7 22 14 C20.83082031 13.55269531 19.66164063 13.10539062 18.45703125 12.64453125 C16.9085849 12.03453724 15.3604226 11.42382185 13.8125 10.8125 C12.65911133 10.37454102 12.65911133 10.37454102 11.48242188 9.92773438 C6.60841535 7.98231546 3.34079531 6.09063313 0 2 C0 1.34 0 0.68 0 0 Z " fill="#002A89" transform="translate(459,303)"/>
<path d="M0 0 C0.33 0 0.66 0 1 0 C1.33 7.92 1.66 15.84 2 24 C6.29 24.33 10.58 24.66 15 25 C15.33 23.68 15.66 22.36 16 21 C16.33 21.99 16.66 22.98 17 24 C17.66 23.67 18.32 23.34 19 23 C18.67 24.65 18.34 26.3 18 28 C12.7304717 29.75650943 7.69747614 29.61726405 2.5625 27.75 C0 26 0 26 -0.66772461 24.21582031 C-1.04856528 21.67613629 -1.01312903 19.3620215 -0.87890625 16.796875 C-0.83056641 15.8171875 -0.78222656 14.8375 -0.73242188 13.828125 C-0.67634766 12.81234375 -0.62027344 11.7965625 -0.5625 10.75 C-0.51029297 9.71875 -0.45808594 8.6875 -0.40429688 7.625 C-0.27484366 5.08300961 -0.13988672 2.54143407 0 0 Z " fill="#00308B" transform="translate(592,304)"/>
<path d="M0 0 C0.02886751 4.14581887 0.04675327 8.29161216 0.0625 12.4375 C0.07087891 13.62150391 0.07925781 14.80550781 0.08789062 16.02539062 C0.09111328 17.15009766 0.09433594 18.27480469 0.09765625 19.43359375 C0.10289307 20.47572021 0.10812988 21.51784668 0.11352539 22.59155273 C0 25 0 25 -1 26 C-2.68608966 26.07205511 -4.37500659 26.08386068 -6.0625 26.0625 C-6.98160156 26.05347656 -7.90070312 26.04445313 -8.84765625 26.03515625 C-9.55792969 26.02355469 -10.26820313 26.01195312 -11 26 C-10.505 24.515 -10.505 24.515 -10 23 C-7.69 23 -5.38 23 -3 23 C-3 15.74 -3 8.48 -3 1 C-1 0 -1 0 0 0 Z " fill="#002B95" transform="translate(700,306)"/>
<path d="M0 0 C0.66 0 1.32 0 2 0 C2 0.99 2 1.98 2 3 C5.3 3 8.6 3 12 3 C11.67 3.99 11.34 4.98 11 6 C8.03 6 5.06 6 2 6 C2 5.34 2 4.68 2 4 C0.865625 4.515625 -0.26875 5.03125 -1.4375 5.5625 C-6.03033525 7.28685629 -10.28975116 7.4678882 -15 6 C-16.76171875 4.4453125 -16.76171875 4.4453125 -18 3 C-14.93319665 1.97773222 -13.77807025 2.03027602 -10.6875 2.5 C-6.90436539 2.98834581 -3.74987022 2.86535467 0 2 C0 1.34 0 0.68 0 0 Z " fill="#00308B" transform="translate(571,326)"/>
<path d="M0 0 C0.33 0.66 0.66 1.32 1 2 C-5.78014645 12.21878807 -13.68574827 20.36076758 -24 27 C-24.66 26.67 -25.32 26.34 -26 26 C-22.54913051 22.42882497 -18.97215439 19.3294189 -15.0625 16.25 C-10.52001818 12.58883315 -7.09493701 8.8914789 -4.18359375 3.8125 C-3 2 -3 2 0 0 Z " fill="#0064C3" transform="translate(288,291)"/>
<path d="M0 0 C0 0.99 0 1.98 0 3 C-3.64135269 6.50648777 -7.21564559 7.02870867 -12.15625 6.94921875 C-13.2596875 6.86285156 -14.363125 6.77648437 -15.5 6.6875 C-16.6034375 6.60886719 -17.706875 6.53023438 -18.84375 6.44921875 C-21.86713739 6.0189099 -24.23431755 5.26416455 -27 4 C-26.67 3.34 -26.34 2.68 -26 2 C-24.92621094 2.09539062 -23.85242188 2.19078125 -22.74609375 2.2890625 C-21.30994743 2.40170143 -19.87374633 2.51364346 -18.4375 2.625 C-17.73302734 2.68945312 -17.02855469 2.75390625 -16.30273438 2.8203125 C-11.43795308 3.17900605 -7.67844876 2.6076746 -3 1 C-2.01 0.67 -1.02 0.34 0 0 Z " fill="#00288B" transform="translate(729,326)"/>
<path d="M0 0 C2.88859789 2.04315461 4.74784756 3.7638839 6.5625 6.8125 C6.3125 9.625 6.3125 9.625 5.5625 11.8125 C3.5625 8.8125 3.5625 8.8125 3.25 6.75 C2.7347935 4.62748365 2.7347935 4.62748365 0.6015625 3.69921875 C-3.56141244 2.48457182 -7.44010363 2.59905698 -11.75 2.6875 C-13.00393555 2.70103516 -13.00393555 2.70103516 -14.28320312 2.71484375 C-16.33475969 2.73829011 -18.38616777 2.77415734 -20.4375 2.8125 C-15.27990969 -2.83628938 -6.83993593 -2.36288696 0 0 Z " fill="#00348D" transform="translate(654.4375,297.1875)"/>
<path d="M0 0 C1.01771484 0.00451172 2.03542969 0.00902344 3.08398438 0.01367188 C5.57688509 0.02537563 8.06966074 0.04177152 10.5625 0.0625 C9.5725 1.5475 9.5725 1.5475 8.5625 3.0625 C5.76513672 3.40307617 5.76513672 3.40307617 2.2421875 3.35546875 C0.98535156 3.34580078 -0.27148438 3.33613281 -1.56640625 3.32617188 C-2.88511719 3.30103516 -4.20382813 3.27589844 -5.5625 3.25 C-6.90232903 3.23495483 -8.24217404 3.22126613 -9.58203125 3.20898438 C-12.86758842 3.17352872 -16.15234582 3.12410849 -19.4375 3.0625 C-19.1075 2.4025 -18.7775 1.7425 -18.4375 1.0625 C-12.34954555 -0.26532546 -6.20377757 -0.05247177 0 0 Z " fill="#001A67" transform="translate(195.4375,238.9375)"/>
<path d="M0 0 C3.24865912 2.94715944 5.60846273 5.82538818 7 10 C7.06937062 12.22818441 7.08457084 14.45834524 7.0625 16.6875 C7.05347656 17.86699219 7.04445313 19.04648437 7.03515625 20.26171875 C7.02355469 21.16535156 7.01195312 22.06898438 7 23 C4.79669058 19.69503587 4.44183716 17.50106204 3.75 13.625 C2.59474189 8.07155526 2.59474189 8.07155526 -0.8125 3.75 C-4.00798181 1.99561783 -6.38094515 1.25850392 -10 1 C-6.39923985 -1.35434317 -4.05378086 -1.37828549 0 0 Z " fill="#013388" transform="translate(523,298)"/>
<path d="M0 0 C1.77734375 1.53125 1.77734375 1.53125 2.9375 3.5 C3.33839844 4.1496875 3.73929688 4.799375 4.15234375 5.46875 C4.43207031 5.9740625 4.71179688 6.479375 5 7 C4.01 7.33 3.02 7.66 2 8 C-1 4.25 -1 4.25 -1 2 C-2.30324219 2.32484375 -2.30324219 2.32484375 -3.6328125 2.65625 C-4.78523438 2.9346875 -5.93765625 3.213125 -7.125 3.5 C-8.26195312 3.7784375 -9.39890625 4.056875 -10.5703125 4.34375 C-13.81466698 4.96453765 -16.70814457 5.12006768 -20 5 C-20.33 4.01 -20.66 3.02 -21 2 C-18.81347261 1.66034526 -16.62571975 1.32857523 -14.4375 1 C-13.21933594 0.814375 -12.00117188 0.62875 -10.74609375 0.4375 C-7.06526474 0.00762216 -3.69547235 -0.32290535 0 0 Z " fill="#002B86" transform="translate(212,349)"/>
<path d="M0 0 C0.33 -0.66 0.66 -1.32 1 -2 C1.66 -1.67 2.32 -1.34 3 -1 C3 -0.34 3 0.32 3 1 C-7.395 1.495 -7.395 1.495 -18 2 C-18.33 2.66 -18.66 3.32 -19 4 C-19.99 3.67 -20.98 3.34 -22 3 C-21 0 -21 0 -17.8125 -1.6875 C-11.11216157 -4.2614105 -6.37958261 -2.63982729 0 0 Z " fill="#013385" transform="translate(386,317)"/>
<path d="M0 0 C6.27 0 12.54 0 19 0 C19 0.66 19 1.32 19 2 C18.34 2 17.68 2 17 2 C17 2.66 17 3.32 17 4 C15.10448978 4.05441656 13.2085208 4.09298035 11.3125 4.125 C10.25675781 4.14820313 9.20101562 4.17140625 8.11328125 4.1953125 C4.97748141 3.99858729 2.82354627 3.33057654 0 2 C0 1.34 0 0.68 0 0 Z " fill="#043786" transform="translate(803,309)"/>
<path d="M0 0 C0.66 0 1.32 0 2 0 C3.97668799 3.95337599 3.43317742 8.69196156 3 13 C1.74851933 16.67014539 0.08360545 19.30769652 -3.25 21.4375 C-3.8275 21.623125 -4.405 21.80875 -5 22 C-5.33 21.01 -5.66 20.02 -6 19 C-5.34 19 -4.68 19 -4 19 C-3.690625 18.38125 -3.38125 17.7625 -3.0625 17.125 C-2.375 15.75 -1.6875 14.375 -1 13 C-0.77049681 10.795636 -0.58924067 8.58607827 -0.4375 6.375 C-0.31181641 4.59222656 -0.31181641 4.59222656 -0.18359375 2.7734375 C-0.12300781 1.85820312 -0.06242187 0.94296875 0 0 Z " fill="#02338F" transform="translate(351,292)"/>
<path d="M0 0 C6.93 0 13.86 0 21 0 C20.67 0.99 20.34 1.98 20 3 C9.605 3.495 9.605 3.495 -1 4 C-0.67 2.68 -0.34 1.36 0 0 Z " fill="#002E8C" transform="translate(752,283)"/>
<path d="M0 0 C0 0.99 0 1.98 0 3 C-0.60328125 2.95359375 -1.2065625 2.9071875 -1.828125 2.859375 C-7.04721751 2.49704655 -7.04721751 2.49704655 -11.4375 5 C-11.953125 5.66 -12.46875 6.32 -13 7 C-13.66 7 -14.32 7 -15 7 C-15 9.64 -15 12.28 -15 15 C-15.66 15 -16.32 15 -17 15 C-17.48621272 7.82836241 -17.48621272 7.82836241 -15.3125 4.125 C-11.52899812 0.64826854 -4.97940899 -2.4897045 0 0 Z " fill="#002D94" transform="translate(720,296)"/>
<path d="M0 0 C4.27650657 1.52732377 5.94669176 4.03499099 8 8 C8.60111858 11.32850786 8.86650576 14.62259563 9 18 C7.68 17.67 6.36 17.34 5 17 C4.90203125 16.26394531 4.8040625 15.52789062 4.703125 14.76953125 C3.54506458 7.13205407 3.54506458 7.13205407 -1 1 C-0.67 0.67 -0.34 0.34 0 0 Z " fill="#053099" transform="translate(381,298)"/>
<path d="M0 0 C3 3 3 3 3.34057617 4.99291992 C3.32486572 5.73131104 3.30915527 6.46970215 3.29296875 7.23046875 C3.28330078 8.03291016 3.27363281 8.83535156 3.26367188 9.66210938 C3.23853516 10.49548828 3.21339844 11.32886719 3.1875 12.1875 C3.17396484 13.03248047 3.16042969 13.87746094 3.14648438 14.74804688 C3.11115799 16.83230384 3.05735139 18.91623277 3 21 C1.68 21 0.36 21 -1 21 C-0.67 14.07 -0.34 7.14 0 0 Z " fill="#063180" transform="translate(800,311)"/>
<path d="M0 0 C-1.35157591 3.28025803 -2.44885766 4.59355466 -5.66796875 6.0703125 C-6.39693359 6.40933594 -7.12589844 6.74835938 -7.87695312 7.09765625 C-8.63943359 7.43667969 -9.40191406 7.77570313 -10.1875 8.125 C-10.93064453 8.47175781 -11.67378906 8.81851562 -12.43945312 9.17578125 C-16.89274933 11.21313499 -21.25750291 12.7813981 -26 14 C-26.33 13.34 -26.66 12.68 -27 12 C-26.28457031 11.72027344 -25.56914062 11.44054687 -24.83203125 11.15234375 C-17.78430399 8.31684158 -11.23339323 5.07609283 -4.6171875 1.35546875 C-2 0 -2 0 0 0 Z " fill="#0064C3" transform="translate(260,318)"/>
<path d="M0 0 C1.71733546 0.25849167 3.42486238 0.58311164 5.125 0.9375 C9.54133716 1.79543251 13.51514001 2.19932711 18 2 C18 3.32 18 4.64 18 6 C7.44191344 6.55353075 7.44191344 6.55353075 3 3 C2.566875 3.474375 2.13375 3.94875 1.6875 4.4375 C0 6 0 6 -3 7 C-1.125 1.125 -1.125 1.125 0 0 Z " fill="#002F91" transform="translate(460,320)"/>
<path d="M0 0 C3.09851777 1.8074687 4.59108071 2.86760812 5.8125 6.25 C5.874375 6.8275 5.93625 7.405 6 8 C5.01 8 4.02 8 3 8 C2.67 6.68 2.34 5.36 2 4 C-3.28 4 -8.56 4 -14 4 C-14 3.34 -14 2.68 -14 2 C-9.46117112 -0.34262136 -5.00180154 -0.74302124 0 0 Z " fill="#00308E" transform="translate(693,296)"/>
<path d="M0 0 C1.65 0.33 3.3 0.66 5 1 C5.04241723 3.33294775 5.04092937 5.66702567 5 8 C4 9 4 9 0.4375 9.0625 C-0.696875 9.041875 -1.83125 9.02125 -3 9 C-2.67 6.69 -2.34 4.38 -2 2 C-1.34 2 -0.68 2 0 2 C0 1.34 0 0.68 0 0 Z " fill="#06439B" transform="translate(618,281)"/>
<path d="M0 0 C2.6875 -0.3125 2.6875 -0.3125 6 0 C9.10164769 2.55024365 10.72566416 4.17699247 12 8 C12.03954234 10.33299825 12.04401732 12.66708189 12 15 C9.42902749 12.91873654 8.86821441 11.6178218 7.75 8.375 C7.1725 7.26125 6.595 6.1475 6 5 C2.41136476 3.9384058 2.41136476 3.9384058 -1 4 C-0.67 2.68 -0.34 1.36 0 0 Z " fill="#01318C" transform="translate(643,302)"/>
<path d="M0 0 C2.33294775 -0.04241723 4.66702567 -0.04092937 7 0 C8 1 8 1 8.11352539 2.85766602 C8.10828857 3.64842529 8.10305176 4.43918457 8.09765625 5.25390625 C8.09443359 6.10791016 8.09121094 6.96191406 8.08789062 7.84179688 C8.07951172 8.73962891 8.07113281 9.63746094 8.0625 10.5625 C8.05798828 11.46419922 8.05347656 12.36589844 8.04882812 13.29492188 C8.03700225 15.53001314 8.0205222 17.76497437 8 20 C7.01 20.33 6.02 20.66 5 21 C5 15.06 5 9.12 5 3 C3.35 2.67 1.7 2.34 0 2 C0 1.34 0 0.68 0 0 Z " fill="#002A8C" transform="translate(795,283)"/>
<path d="M0 0 C4.16785699 1.54723229 6.4005179 4.61565094 9.0625 8 C11.52724492 11.10565184 13.65550114 13.77033409 17 16 C16.34 16.66 15.68 17.32 15 18 C9.12824665 13.3515286 4.27440516 8.17290719 0 2 C0 1.34 0 0.68 0 0 Z " fill="#00226C" transform="translate(216,357)"/>
<path d="M0 0 C0.99 0 1.98 0 3 0 C1.77377763 6.28438967 -2.04226191 9.37056155 -7 13 C-9.74499888 14.61410047 -10.52714774 15.06447985 -13.75 14.625 C-14.86375 14.315625 -14.86375 14.315625 -16 14 C-13.6476009 12.43173393 -11.60558817 11.33457432 -9.0625 10.1875 C-5.3931535 8.37980724 -3.24243312 6.49819566 -1 3 C-0.67 2.01 -0.34 1.02 0 0 Z " fill="#002D86" transform="translate(231,288)"/>
<path d="M0 0 C-0.96558401 2.54563057 -1.93868805 3.94635204 -4 5.75 C-8.35676881 7.56532034 -12.3467113 7.70504374 -17 7 C-19.40342402 5.90494882 -20.95691016 4.7204967 -23 3 C-20 2 -20 2 -17.875 3 C-13.77329636 4.42667953 -10.19263996 3.9892746 -6 3 C-1.32 0 -1.32 0 0 0 Z " fill="#007FD4" transform="translate(130,259)"/>
<path d="M0 0 C0.66 0 1.32 0 2 0 C2.22523024 3.62415933 2.42731308 7.24924219 2.625 10.875 C2.68945312 11.90753906 2.75390625 12.94007813 2.8203125 14.00390625 C2.871875 14.99003906 2.9234375 15.97617187 2.9765625 16.9921875 C3.02893066 17.90339355 3.08129883 18.81459961 3.13525391 19.75341797 C3 22 3 22 1 24 C-1 22 -1 22 -1.24291992 19.96875 C-1.23881104 19.1540625 -1.23470215 18.339375 -1.23046875 17.5 C-1.22853516 16.613125 -1.22660156 15.72625 -1.22460938 14.8125 C-1.21236328 13.884375 -1.20011719 12.95625 -1.1875 12 C-1.18685547 11.071875 -1.18621094 10.14375 -1.18554688 9.1875 C-1.14037187 2.28074374 -1.14037187 2.28074374 0 0 Z " fill="#002A8F" transform="translate(130,351)"/>
<path d="M0 0 C3.10393062 2.50507444 3.49415888 4.55411561 4 8.4375 C4.54152084 12.58351892 5.37846545 14.75870049 8 18 C8 18.66 8 19.32 8 20 C6.25 19.9375 6.25 19.9375 4 19 C-0.78501707 13.01872866 -0.43923568 7.43040362 0 0 Z " fill="#01338E" transform="translate(356,309)"/>
<path d="M0 0 C4.58013103 0.26941947 6.72765065 2.16630739 9.70703125 5.3984375 C13.43051504 10.01060776 13.19217577 14.33081465 13 20 C12.67 20 12.34 20 12 20 C11.87625 19.2575 11.7525 18.515 11.625 17.75 C10.32486476 12.02940493 7.24648302 6.4295801 2.25 3.25 C1.5075 2.8375 0.765 2.425 0 2 C0 1.34 0 0.68 0 0 Z " fill="#002984" transform="translate(222,267)"/>
<path d="M0 0 C0 0.99 0 1.98 0 3 C-1.55460937 3.16435547 -1.55460937 3.16435547 -3.140625 3.33203125 C-4.51049264 3.49153639 -5.88028037 3.65172884 -7.25 3.8125 C-7.93191406 3.88275391 -8.61382812 3.95300781 -9.31640625 4.02539062 C-13.35854844 4.51594186 -16.00546098 5.18297231 -19 8 C-19 6.68 -19 5.36 -19 4 C-12.76335625 -0.53574091 -7.56198897 -0.44701413 0 0 Z " fill="#002D8D" transform="translate(481,283)"/>
<path d="M0 0 C8.415 1.98 8.415 1.98 17 4 C15 6 15 6 11.3125 6.3125 C6.95260367 6.22482384 3.87332363 4.93666181 0 3 C0 2.01 0 1.02 0 0 Z " fill="#003197" transform="translate(501,327)"/>
<path d="M0 0 C0.33 0 0.66 0 1 0 C1 5.61 1 11.22 1 17 C3.31 17 5.62 17 8 17 C8.66 17.66 9.32 18.32 10 19 C9.67 19.33 9.34 19.66 9 20 C5.7 20 2.4 20 -1 20 C-0.67 13.4 -0.34 6.8 0 0 Z " fill="#003088" transform="translate(823,312)"/>
<path d="M0 0 C0.99 0 1.98 0 3 0 C3 4.62 3 9.24 3 14 C2.01 14 1.02 14 0 14 C-1.33257403 4.58997722 -1.33257403 4.58997722 0 0 Z " fill="#063AA6" transform="translate(628,307)"/>
<path d="M0 0 C7.38804781 -0.36334661 7.38804781 -0.36334661 10 1.1875 C11.30894168 3.55995679 11.21620175 5.3335118 11 8 C9 7 9 7 8 4 C2.84828377 3.90961901 -1.91913204 4.15318867 -7 5 C-7 4.34 -7 3.68 -7 3 C-4.69 2.34 -2.38 1.68 0 1 C0 0.67 0 0.34 0 0 Z " fill="#01338E" transform="translate(402,302)"/>
<path d="M0 0 C4.96916636 0.51405169 9.29026351 1.23384882 14 3 C13.01 3.33 12.02 3.66 11 4 C10.67 4.99 10.34 5.98 10 7 C5.05 5.02 5.05 5.02 0 3 C0 2.01 0 1.02 0 0 Z " fill="#0054AA" transform="translate(269,261)"/>
<path d="M0 0 C1.65 0.33 3.3 0.66 5 1 C5 2.32 5 3.64 5 5 C0.46298506 6.45184478 -3.18061476 7.23509196 -8 7 C-8 6.34 -8 5.68 -8 5 C-5.03 4.34 -2.06 3.68 1 3 C0.67 2.01 0.34 1.02 0 0 Z " fill="#00247B" transform="translate(226,323)"/>
<path d="M0 0 C2 2 2 2 2.22705078 4.33837891 C2.21657715 5.29147949 2.20610352 6.24458008 2.1953125 7.2265625 C2.18886719 8.2578125 2.18242188 9.2890625 2.17578125 10.3515625 C2.15902344 11.43179687 2.14226563 12.51203125 2.125 13.625 C2.11597656 14.71296875 2.10695313 15.8009375 2.09765625 16.921875 C2.07403409 19.61480152 2.04109556 22.30729255 2 25 C0.02 25 -1.96 25 -4 25 C-4 24.01 -4 23.02 -4 22 C-2.68 22 -1.36 22 0 22 C0 14.74 0 7.48 0 0 Z " fill="#002F87" transform="translate(675,307)"/>
<path d="M0 0 C6.06455266 -0.71347678 6.06455266 -0.71347678 8.61328125 1.23046875 C10 2.8125 10 2.8125 12 6 C11.67 6.99 11.34 7.98 11 9 C8 8 8 8 6.8125 5.9375 C6.544375 5.298125 6.27625 4.65875 6 4 C3.69 4 1.38 4 -1 4 C-0.67 2.68 -0.34 1.36 0 0 Z " fill="#02348E" transform="translate(370,302)"/>
<path d="M0 0 C-2 3 -2 3 -4.27734375 3.546875 C-5.15519531 3.61390625 -6.03304688 3.6809375 -6.9375 3.75 C-8.25041016 3.86601562 -8.25041016 3.86601562 -9.58984375 3.984375 C-12 4 -12 4 -15 3 C-14.67 2.01 -14.34 1.02 -14 0 C-12.948125 0.020625 -11.89625 0.04125 -10.8125 0.0625 C-0.22222222 -0.11111111 -0.22222222 -0.11111111 0 0 Z " fill="#00268A" transform="translate(412,329)"/>
<path d="M0 0 C0 0.66 0 1.32 0 2 C-0.99580078 2.11214844 -0.99580078 2.11214844 -2.01171875 2.2265625 C-8.32857683 3.10640253 -8.32857683 3.10640253 -13 7.125 C-13.66 8.07375 -14.32 9.0225 -15 10 C-15.66 10 -16.32 10 -17 10 C-16.74433121 6.54847139 -15.73802926 5.75511431 -13.125 3.3125 C-8.57292073 -0.05603866 -5.54562154 -0.10463437 0 0 Z " fill="#008CD7" transform="translate(122,238)"/>
<path d="M0 0 C0.33 0 0.66 0 1 0 C1 5.94 1 11.88 1 18 C3.64 18 6.28 18 9 18 C8.67 18.99 8.34 19.98 8 21 C5.69 21 3.38 21 1 21 C-0.17426264 18.65147472 -0.11508173 17.26225935 -0.09765625 14.6484375 C-0.09443359 13.79765625 -0.09121094 12.946875 -0.08789062 12.0703125 C-0.07951172 11.18085938 -0.07113281 10.29140625 -0.0625 9.375 C-0.05798828 8.4778125 -0.05347656 7.580625 -0.04882812 6.65625 C-0.03702591 4.43743352 -0.02056155 2.21874982 0 0 Z " fill="#0018BD" transform="translate(791,311)"/>
<path d="M0 0 C3.36295835 1.44126786 5.62927102 3.20592655 8 6 C8 6.99 8 7.98 8 9 C2.46153846 9.36923077 2.46153846 9.36923077 0.125 7.5 C-0.24625 7.005 -0.6175 6.51 -1 6 C0.32 5.67 1.64 5.34 3 5 C2.2575 4.319375 2.2575 4.319375 1.5 3.625 C0 2 0 2 0 0 Z " fill="#002475" transform="translate(270,366)"/>
<path d="M0 0 C0.99 0 1.98 0 3 0 C5.04296875 2.40625 5.04296875 2.40625 7.1875 5.5 C8.26064453 7.03140625 8.26064453 7.03140625 9.35546875 8.59375 C9.89816406 9.3878125 10.44085938 10.181875 11 11 C10.01 11.66 9.02 12.32 8 13 C1.48063781 4.738041 1.48063781 4.738041 0 0 Z " fill="#023289" transform="translate(344,315)"/>
<path d="M0 0 C0.24492187 0.56203125 0.48984375 1.1240625 0.7421875 1.703125 C2.22926539 4.41865854 4.04062782 6.46391438 6.125 8.75 C6.84945312 9.54921875 7.57390625 10.3484375 8.3203125 11.171875 C8.87460938 11.77515625 9.42890625 12.3784375 10 13 C9.01 13.66 8.02 14.32 7 15 C5.49412261 13.04594482 3.99521356 11.08718716 2.5 9.125 C2.07074219 8.56941406 1.64148438 8.01382812 1.19921875 7.44140625 C-2 3.2265625 -2 3.2265625 -2 1 C-1.34 0.67 -0.68 0.34 0 0 Z " fill="#002682" transform="translate(174,303)"/>
<path d="M0 0 C2 2 2 2 2.1953125 4.8203125 C2.16050781 6.45613281 2.16050781 6.45613281 2.125 8.125 C2.10695313 9.22070312 2.08890625 10.31640625 2.0703125 11.4453125 C2.04710937 12.28835938 2.02390625 13.13140625 2 14 C0.68 14 -0.64 14 -2 14 C-2.05410687 12.22950311 -2.09284119 10.45853151 -2.125 8.6875 C-2.14820313 7.70136719 -2.17140625 6.71523438 -2.1953125 5.69921875 C-2 3 -2 3 0 0 Z " fill="#05359B" transform="translate(460,289)"/>
<path d="M0 0 C5.61 0 11.22 0 17 0 C12.96076287 2.69282475 10.04463848 3.13300939 5.25 3.0625 C4.45078125 3.05347656 3.6515625 3.04445313 2.828125 3.03515625 C2.22484375 3.02355469 1.6215625 3.01195312 1 3 C0.67 2.01 0.34 1.02 0 0 Z " fill="#003A97" transform="translate(319,283)"/>
<path d="M0 0 C2 2 2 2 2 4.3125 C0.51634262 8.29982922 -1.46048033 9.64032022 -5 12 C-7.375 11.8125 -7.375 11.8125 -9 11 C-8.236875 10.4225 -7.47375 9.845 -6.6875 9.25 C-3.28656383 6.4027046 -1.40282544 4.20847632 0 0 Z " fill="#01318A" transform="translate(527,319)"/>
<path d="M0 0 C3.17051657 3.17051657 3.59774563 4.57822854 4.015625 8.92578125 C3.99337043 11.8800748 3.14648438 14.30238969 2 17 C1.34 16.67 0.68 16.34 0 16 C0 10.72 0 5.44 0 0 Z " fill="#05378B" transform="translate(490,309)"/>
<path d="M0 0 C0.99 0 1.98 0 3 0 C3.05410687 1.77049689 3.09284119 3.54146849 3.125 5.3125 C3.14820313 6.29863281 3.17140625 7.28476562 3.1953125 8.30078125 C3 11 3 11 1 14 C1.66 14.33 2.32 14.66 3 15 C2.34 15.99 1.68 16.98 1 18 C-0.2062252 14.38132441 -0.10816918 11.07493749 -0.0625 7.3125 C-0.05798828 6.61060547 -0.05347656 5.90871094 -0.04882812 5.18554688 C-0.03706927 3.45699462 -0.01913454 1.72848635 0 0 Z " fill="#002F90" transform="translate(495,307)"/>
<path d="M0 0 C-0.33 0.66 -0.66 1.32 -1 2 C-3.64 2 -6.28 2 -9 2 C-9 3.98 -9 5.96 -9 8 C-9.99 8.495 -9.99 8.495 -11 9 C-11.09765625 2.84765625 -11.09765625 2.84765625 -11 1 C-8.58198497 -1.41801503 -2.95078895 -1.47539447 0 0 Z " fill="#00258C" transform="translate(582,297)"/>
<path d="M0 0 C1.50433594 0.01353516 1.50433594 0.01353516 3.0390625 0.02734375 C3.80992187 0.03894531 4.58078125 0.05054688 5.375 0.0625 C5.045 0.7225 4.715 1.3825 4.375 2.0625 C1.43359375 2.6953125 1.43359375 2.6953125 -2.1875 3.1875 C-3.38503906 3.35507812 -4.58257812 3.52265625 -5.81640625 3.6953125 C-6.74324219 3.81648438 -7.67007812 3.93765625 -8.625 4.0625 C-8.295 3.0725 -7.965 2.0825 -7.625 1.0625 C-4.98041621 -0.25979189 -2.94738699 -0.03427194 0 0 Z " fill="#003695" transform="translate(512.625,295.9375)"/>
<path d="M0 0 C0 0.66 0 1.32 0 2 C0.99 2.66 1.98 3.32 3 4 C1.41705218 4.05437607 -0.16644256 4.09296271 -1.75 4.125 C-2.63171875 4.14820313 -3.5134375 4.17140625 -4.421875 4.1953125 C-7.1135858 3.99139502 -8.69904974 3.36551721 -11 2 C-8.56079856 -0.43920144 -3.28707881 0 0 0 Z " fill="#01349B" transform="translate(410,309)"/>
<path d="M0 0 C0.66 0.33 1.32 0.66 2 1 C1.34 2.32 0.68 3.64 0 5 C-0.66 5 -1.32 5 -2 5 C-2 7.64 -2 10.28 -2 13 C-2.66 13 -3.32 13 -4 13 C-4.49230769 5.73846154 -4.49230769 5.73846154 -2 2 C-1.34 1.34 -0.68 0.68 0 0 Z " fill="#03349E" transform="translate(707,298)"/>
<path d="M0 0 C2.97 0 5.94 0 9 0 C9 0.99 9 1.98 9 3 C5.7 3 2.4 3 -1 3 C-0.67 2.01 -0.34 1.02 0 0 Z " fill="#003189" transform="translate(615,329)"/>
<path d="M0 0 C0.33 0.99 0.66 1.98 1 3 C0.01 3 -0.98 3 -2 3 C-2 4.32 -2 5.64 -2 7 C-1.01 7.33 -0.02 7.66 1 8 C-0.65 8.33 -2.3 8.66 -4 9 C-4.33 6.69 -4.66 4.38 -5 2 C-3.35 1.34 -1.7 0.68 0 0 Z " fill="#043E9F" transform="translate(398,297)"/>
<path d="M0 0 C0.99 0 1.98 0 3 0 C3.125 7.75 3.125 7.75 2 10 C1.01 9.67 0.02 9.34 -1 9 C-0.67 6.03 -0.34 3.06 0 0 Z " fill="#002597" transform="translate(138,250)"/>
<path d="M0 0 C6.0546875 -0.1953125 6.0546875 -0.1953125 8 0 C8.66 0.66 9.32 1.32 10 2 C9 3 9 3 6.71484375 3.09765625 C5.34005859 3.08025391 5.34005859 3.08025391 3.9375 3.0625 C3.01839844 3.05347656 2.09929687 3.04445313 1.15234375 3.03515625 C0.44207031 3.02355469 -0.26820313 3.01195312 -1 3 C-0.67 2.01 -0.34 1.02 0 0 Z " fill="#00287E" transform="translate(319,329)"/>
<path d="M0 0 C-2.85478326 1.90318884 -4.41941308 2.4619099 -7.6875 3.125 C-8.49574219 3.29257812 -9.30398437 3.46015625 -10.13671875 3.6328125 C-10.75160156 3.75398438 -11.36648437 3.87515625 -12 4 C-10.21875 0.1015625 -10.21875 0.1015625 -8.25 -0.8125 C-5.36824559 -1.0526462 -2.82252185 -0.57733402 0 0 Z " fill="#002791" transform="translate(220,330)"/>
<path d="M0 0 C1.69752187 0.25245197 3.38471545 0.57645775 5.0625 0.9375 C5.98160156 1.13214844 6.90070312 1.32679688 7.84765625 1.52734375 C8.91306641 1.76130859 8.91306641 1.76130859 10 2 C9.01 2.33 8.02 2.66 7 3 C7 3.66 7 4.32 7 5 C1.25 3.25 1.25 3.25 -1 1 C-0.67 0.67 -0.34 0.34 0 0 Z " fill="#002A97" transform="translate(593,328)"/>
<path d="M0 0 C3.78717347 1.48781815 5.77407001 3.61988409 8 7 C7.67 7.99 7.34 8.98 7 10 C5.82739389 8.71372289 4.6620717 7.42080217 3.5 6.125 C2.8503125 5.40570313 2.200625 4.68640625 1.53125 3.9453125 C0 2 0 2 0 0 Z " fill="#00287E" transform="translate(216,357)"/>
<path d="M0 0 C0 0.66 0 1.32 0 2 C0.66 2.33 1.32 2.66 2 3 C-1.3125 3.6875 -1.3125 3.6875 -5 4 C-6.9375 2.5625 -6.9375 2.5625 -8 1 C-5.07175348 0.02391783 -3.04386724 -0.08226668 0 0 Z " fill="#023090" transform="translate(648,323)"/>
<path d="M0 0 C0.33 0 0.66 0 1 0 C1.03738281 0.60328125 1.07476562 1.2065625 1.11328125 1.828125 C1.56253341 7.99367772 1.56253341 7.99367772 5 13 C4.34 13.66 3.68 14.32 3 15 C0.9375 13.6875 0.9375 13.6875 -1 11 C-1.05898893 7.27297245 -0.58315738 3.67642697 0 0 Z " fill="#002E95" transform="translate(393,317)"/>
<path d="M0 0 C0.99 0 1.98 0 3 0 C2.67 2.64 2.34 5.28 2 8 C-0.31 7.67 -2.62 7.34 -5 7 C-5 6.67 -5 6.34 -5 6 C-3.02 6 -1.04 6 1 6 C1 5.01 1 4.02 1 3 C-1.31 3 -3.62 3 -6 3 C-6 2.67 -6 2.34 -6 2 C-4.02 2 -2.04 2 0 2 C0 1.34 0 0.68 0 0 Z " fill="#023A8A" transform="translate(606,296)"/>
<path d="M0 0 C4.77576339 0.4682121 8.04476345 1.24331998 12 4 C8.70303895 5.09898702 7.59505097 4.87124444 4.3125 4.0625 C3.10013672 3.77052734 3.10013672 3.77052734 1.86328125 3.47265625 C0.94095703 3.23869141 0.94095703 3.23869141 0 3 C0 2.01 0 1.02 0 0 Z " fill="#002C96" transform="translate(773,284)"/>
<path d="M0 0 C2.0625 1.6875 2.0625 1.6875 4 4 C3.75 6.75 3.75 6.75 3 9 C2.01 9 1.02 9 0 9 C0 6 0 3 0 0 Z " fill="#01328B" transform="translate(481,313)"/>
<path d="M0 0 C3.82946843 1.45255699 5.12050295 3.42895561 7 7 C6.01 7.33 5.02 7.66 4 8 C2.35 5.69 0.7 3.38 -1 1 C-0.67 0.67 -0.34 0.34 0 0 Z " fill="#012F8D" transform="translate(381,298)"/>
<path d="M0 0 C2.31 0 4.62 0 7 0 C7.33 1.65 7.66 3.3 8 5 C7.67 4.34 7.34 3.68 7 3 C4.69 3 2.38 3 0 3 C0 2.01 0 1.02 0 0 Z " fill="#022F80" transform="translate(328,313)"/>
<path d="M0 0 C2.97 0 5.94 0 9 0 C8.01 0.495 8.01 0.495 7 1 C7 1.66 7 2.32 7 3 C4.69 3 2.38 3 0 3 C0 2.01 0 1.02 0 0 Z " fill="#002B8A" transform="translate(534,329)"/>
<path d="M0 0 C0.33 0.99 0.66 1.98 1 3 C1.66 3.33 2.32 3.66 3 4 C1.35 5.98 -0.3 7.96 -2 10 C-3.39195915 5.82412255 -1.82323219 3.86525224 0 0 Z " fill="#01368C" transform="translate(659,320)"/>
<path d="M0 0 C2.0625 0.4375 2.0625 0.4375 4 1 C2.9107426 3.1785148 1.81781867 4.39192964 0 6 C-0.99 6.33 -1.98 6.66 -3 7 C-1.125 1.125 -1.125 1.125 0 0 Z " fill="#002DA2" transform="translate(460,320)"/>
<path d="M0 0 C-0.33 0.99 -0.66 1.98 -1 3 C-3.31 3.33 -5.62 3.66 -8 4 C-8.33 3.01 -8.66 2.02 -9 1 C-5.846632 0.29925156 -3.27275026 0 0 0 Z " fill="#00278A" transform="translate(236,318)"/>
<path d="M0 0 C2.31 0 4.62 0 7 0 C6.67 1.32 6.34 2.64 6 4 C3.69 4 1.38 4 -1 4 C-0.67 2.68 -0.34 1.36 0 0 Z " fill="#00289F" transform="translate(370,302)"/>
<path d="M0 0 C4.455 0.99 4.455 0.99 9 2 C8.01 2.495 8.01 2.495 7 3 C6.67 3.66 6.34 4.32 6 5 C4.02 4.34 2.04 3.68 0 3 C0 2.01 0 1.02 0 0 Z " fill="#002999" transform="translate(134,352)"/>
<path d="M0 0 C-2.95070119 1.96713413 -4.53581611 2.65358161 -8 3 C-8.99 2.34 -9.98 1.68 -11 1 C-6.87831311 -0.62950412 -4.29299643 -1.26264601 0 0 Z " fill="#003299" transform="translate(236,332)"/>
<path d="M0 0 C2.31 0.66 4.62 1.32 7 2 C7.33 3.32 7.66 4.64 8 6 C2.33846154 4.52307692 2.33846154 4.52307692 0.625 1.875 C0.41875 1.25625 0.2125 0.6375 0 0 Z " fill="#003387" transform="translate(721,310)"/>
<path d="M0 0 C0.66 0.66 1.32 1.32 2 2 C1.75 5.0625 1.75 5.0625 1 8 C0.01 8.495 0.01 8.495 -1 9 C-1.66 8.34 -2.32 7.68 -3 7 C-2.34 7 -1.68 7 -1 7 C-0.67 4.69 -0.34 2.38 0 0 Z " fill="#0A36A4" transform="translate(609,297)"/>
<path d="M0 0 C0.598125 0.20625 1.19625 0.4125 1.8125 0.625 C0.8225 0.955 -0.1675 1.285 -1.1875 1.625 C-1.1875 2.285 -1.1875 2.945 -1.1875 3.625 C-3.1675 4.615 -3.1675 4.615 -5.1875 5.625 C-5.1875 4.305 -5.1875 2.985 -5.1875 1.625 C-2.1875 -0.375 -2.1875 -0.375 0 0 Z " fill="#02359F" transform="translate(366.1875,298.375)"/>
<path d="M0 0 C-0.33 1.32 -0.66 2.64 -1 4 C-1 3.34 -1 2.68 -1 2 C-3.31 2 -5.62 2 -8 2 C-8 1.34 -8 0.68 -8 0 C-4.94736336 -0.98120464 -3.05263664 -0.98120464 0 0 Z " fill="#002D85" transform="translate(833,284)"/>
<path d="M0 0 C2.64 0.33 5.28 0.66 8 1 C6 3 6 3 2.875 3.125 C1.451875 3.063125 1.451875 3.063125 0 3 C0 2.01 0 1.02 0 0 Z " fill="#002E87" transform="translate(510,330)"/>
<path d="M0 0 C0.33 0 0.66 0 1 0 C1.625 3.375 1.625 3.375 2 7 C1.34 7.66 0.68 8.32 0 9 C-0.66 9 -1.32 9 -2 9 C-1.34 6.03 -0.68 3.06 0 0 Z " fill="#02399C" transform="translate(653,312)"/>
<path d="M0 0 C2.31 0 4.62 0 7 0 C7 0.99 7 1.98 7 3 C4.69 3 2.38 3 0 3 C0 2.01 0 1.02 0 0 Z " fill="#0024A2" transform="translate(615,296)"/>
<path d="M0 0 C4.67692308 1.47692308 4.67692308 1.47692308 6.3125 4.125 C6.539375 4.74375 6.76625 5.3625 7 6 C5.68 6 4.36 6 3 6 C0 2.78571429 0 2.78571429 0 0 Z " fill="#04327F" transform="translate(781,288)"/>
<path d="M0 0 C2 2 2 2 2.125 5.625 C2.08375 6.73875 2.0425 7.8525 2 9 C1.01 8.67 0.02 8.34 -1 8 C-1.04241723 5.66705225 -1.04092937 3.33297433 -1 1 C-0.67 0.67 -0.34 0.34 0 0 Z " fill="#03358B" transform="translate(599,287)"/>
<path d="M0 0 C-3 2 -3 2 -5 2 C-5 2.66 -5 3.32 -5 4 C-5.99 4 -6.98 4 -8 4 C-7.625 2.0625 -7.625 2.0625 -7 0 C-4.3333581 -1.33332095 -2.83319697 -0.67102033 0 0 Z " fill="#00308E" transform="translate(146,246)"/>
<path d="M0 0 C3 1 3 1 5 3 C3.68 3 2.36 3 1 3 C1 4.65 1 6.3 1 8 C0.67 8 0.34 8 0 8 C0 6.35 0 4.7 0 3 C-0.66 3 -1.32 3 -2 3 C-2 2.34 -2 1.68 -2 1 C-1.34 0.67 -0.68 0.34 0 0 Z " fill="#0126A8" transform="translate(586,296)"/>
<path d="M0 0 C0.33 0 0.66 0 1 0 C1 2.64 1 5.28 1 8 C1.66 8.33 2.32 8.66 3 9 C2.34 9.66 1.68 10.32 1 11 C0.34 10.34 -0.32 9.68 -1 9 C-0.9765625 6.8359375 -0.9765625 6.8359375 -0.625 4.375 C-0.51414063 3.55773437 -0.40328125 2.74046875 -0.2890625 1.8984375 C-0.19367188 1.27195312 -0.09828125 0.64546875 0 0 Z " fill="#0023A0" transform="translate(130,364)"/>
<path d="M0 0 C2.97 0.495 2.97 0.495 6 1 C5.67 1.99 5.34 2.98 5 4 C3.35 4 1.7 4 0 4 C0 2.68 0 1.36 0 0 Z " fill="#023298" transform="translate(708,322)"/>
<path d="M0 0 C0.99 0.33 1.98 0.66 3 1 C3 1.66 3 2.32 3 3 C2.01 3 1.02 3 0 3 C0 3.99 0 4.98 0 6 C-0.99 5.67 -1.98 5.34 -3 5 C-2.01 3.35 -1.02 1.7 0 0 Z " fill="#0739A4" transform="translate(705,321)"/>
<path d="M0 0 C0.33 0.66 0.66 1.32 1 2 C0.3125 4.0625 0.3125 4.0625 -1 6 C-3.125 6.75 -3.125 6.75 -5 7 C-3.70700306 4.11562221 -2.34058637 2.12780579 0 0 Z " fill="#003598" transform="translate(502,298)"/>
<path d="M0 0 C0.66 0.33 1.32 0.66 2 1 C2 1.66 2 2.32 2 3 C-0.31 3.33 -2.62 3.66 -5 4 C-5 3.34 -5 2.68 -5 2 C-2.625 0.9375 -2.625 0.9375 0 0 Z " fill="#002B87" transform="translate(684,296)"/>
<path d="M0 0 C0.66 0.33 1.32 0.66 2 1 C2 2.65 2 4.3 2 6 C1.01 6 0.02 6 -1 6 C-1.042721 4.33388095 -1.04063832 2.66617115 -1 1 C-0.67 0.67 -0.34 0.34 0 0 Z " fill="#022E93" transform="translate(787,296)"/>
<path d="M0 0 C0.99 0.33 1.98 0.66 3 1 C3 3.31 3 5.62 3 8 C0.4345406 5.4345406 0.45953913 3.52313332 0 0 Z " fill="#003590" transform="translate(622,283)"/>
</svg>
