<?xml version="1.0" encoding="UTF-8"?>
<svg version="1.1" xmlns="http://www.w3.org/2000/svg" width="512" height="512">
<path d="M0 0 C1.77060471 -0.00322052 3.54120917 -0.00658517 5.31181335 -0.01008606 C9.01086035 -0.01604782 12.70988409 -0.01792899 16.40893555 -0.01733398 C21.11564162 -0.01723248 25.82219646 -0.03088591 30.52886677 -0.04810619 C34.18290371 -0.05930137 37.83690493 -0.0612509 41.49095726 -0.06072426 C43.2246471 -0.06189303 44.95833821 -0.06625167 46.69201088 -0.07405663 C66.42766314 -0.15460086 86.79655782 1.24445322 102.046875 15.26953125 C113.22106032 27.09119273 116.77509685 42.06260628 116.82763672 57.97167969 C116.38983712 72.55851378 111.33208893 85.36180916 101.15625 95.92578125 C89.69601077 106.65690249 75.05046416 112.4191361 59.76171875 115.16796875 C60.58671875 115.76609375 61.41171875 116.36421875 62.26171875 116.98046875 C63.08671875 117.70234375 63.91171875 118.42421875 64.76171875 119.16796875 C64.76171875 120.15796875 64.76171875 121.14796875 64.76171875 122.16796875 C40.75773032 129.08625071 40.75773032 129.08625071 29.57421875 131.60546875 C28.50905029 131.85055176 28.50905029 131.85055176 27.42236328 132.10058594 C19.54024727 133.8148364 19.54024727 133.8148364 15.76171875 133.16796875 C13.52074386 131.09635229 11.8018283 129.23244802 9.94921875 126.85546875 C9.16937622 125.90075684 9.16937622 125.90075684 8.3737793 124.92675781 C6.82020774 123.01959175 5.29003358 121.09539441 3.76171875 119.16796875 C2.20188791 117.24912923 0.63967598 115.33222083 -0.92578125 113.41796875 C-1.63476562 112.54269531 -2.34375 111.66742188 -3.07421875 110.765625 C-5.32948891 108.05848664 -7.67232195 105.45472964 -10.05078125 102.85546875 C-16.52401937 95.67812403 -16.52401937 95.67812403 -18.23828125 92.16796875 C-17.3203125 89.5 -17.3203125 89.5 -16.23828125 87.16796875 C-15.59063309 87.16210251 -14.94298492 87.15623627 -14.27571106 87.15019226 C-7.47723399 87.08578857 -0.67920995 87.00125324 6.11889648 86.90551758 C8.6491088 86.87245661 11.17939153 86.84436741 13.7097168 86.8215332 C17.36667631 86.78763908 21.0230013 86.73530719 24.6796875 86.6796875 C25.79377487 86.67329758 26.90786224 86.66690765 28.05570984 86.6603241 C39.69483919 86.4470304 51.53693955 85.02224645 60.28515625 76.72265625 C65.41187728 71.06251916 66.24047332 65.29103431 66.0703125 57.9140625 C65.39592457 51.91286358 62.77843076 47.83412282 58.38671875 43.79296875 C49.19502689 36.59183436 36.40612683 37.98088047 25.32421875 37.8515625 C23.8334907 37.83095781 22.34276804 37.8099605 20.85205078 37.78858948 C16.95266105 37.73373141 13.05322181 37.68416422 9.15374756 37.63574219 C5.16495423 37.58526015 1.17623167 37.52971431 -2.8125 37.47460938 C-10.62103361 37.36747228 -18.42962657 37.26593107 -26.23828125 37.16796875 C-26.23248047 38.29928223 -26.22667969 39.4305957 -26.22070312 40.59619141 C-26.15945897 59.03609964 -26.44539484 77.47173764 -26.70184326 95.90930176 C-26.76325986 100.34837387 -26.82295434 104.78746915 -26.8828125 109.2265625 C-26.99965799 117.8737209 -27.11834979 126.5208526 -27.23828125 135.16796875 C-31.61652405 136.47638109 -35.49309565 135.77030659 -39.92578125 135.04296875 C-40.76359131 134.90681152 -41.60140137 134.7706543 -42.46459961 134.63037109 C-48.16716928 133.64818733 -53.74084708 132.39527351 -59.30078125 130.79296875 C-59.95328857 130.60847168 -60.6057959 130.42397461 -61.27807617 130.23388672 C-65.22042739 129.0318107 -68.81272047 127.44031593 -72.48999023 125.57568359 C-73.82766701 124.89957535 -73.82766701 124.89957535 -75.19236755 124.20980835 C-76.20509483 123.69409775 -76.20509483 123.69409775 -77.23828125 123.16796875 C-77.40078959 112.8756686 -77.52501098 102.58367582 -77.60096645 92.29035187 C-77.63743013 87.51016278 -77.68685294 82.73085423 -77.76635742 77.95117188 C-77.84266522 73.3345429 -77.88432315 68.7187584 -77.90242195 64.10154724 C-77.91531196 62.34405733 -77.94048439 60.58661136 -77.97839165 58.82948303 C-78.2993597 43.32879136 -78.2993597 43.32879136 -73.84399414 38.30664062 C-73.22802872 37.78130737 -72.61206329 37.25597412 -71.97743225 36.71472168 C-66.89414478 32.19378601 -66.08729173 25.19092732 -65.61474609 18.75976562 C-65.43234791 15.56251564 -65.31772287 12.36946608 -65.23828125 9.16796875 C-53.00693689 5.47080014 -40.91669323 2.78215773 -28.23828125 1.16796875 C-27.25532829 1.03466408 -27.25532829 1.03466408 -26.2525177 0.89866638 C-17.53127412 -0.13842011 -8.76801484 0.00376978 0 0 Z " fill="#053B8B" transform="translate(237.23828125,148.83203125)"/>
<path d="M0 0 C12.26771536 0.31093288 24.18829812 4.27895349 33 13 C38.69171113 19.13049944 41.47118826 25.46732792 42.4375 33.75 C41.5625322 52.08786682 28.69620029 66.17414612 15.86328125 77.91796875 C1.77061857 90.40963864 -14.43220254 99.23135072 -31 108 C-31.22618786 110.23199491 -31.22618786 110.23199491 -29.05859375 112.1015625 C-28.19363281 112.93429687 -27.32867187 113.76703125 -26.4375 114.625 C-23.33379675 117.66340795 -20.31504057 120.69215856 -17.5 124 C-14.01667458 128.0748335 -10.22181292 131.79292992 -6.41015625 135.55859375 C-3.73876101 138.2646262 -1.26530752 141.08814283 1.1953125 143.984375 C4.04887518 147.17147098 7.1666693 150.08542263 10.27734375 153.01953125 C12 155 12 155 12 158 C3.4547673 158.27941161 -5.08852489 158.49192111 -13.6372118 158.62174606 C-17.60802048 158.68409505 -21.57568124 158.76846816 -25.54467773 158.90527344 C-29.3834785 159.03674605 -33.21927601 159.10762043 -37.06015587 159.13852692 C-38.51686575 159.16051434 -39.97343102 159.20345813 -41.42884254 159.26876068 C-47.57947702 159.53347391 -53.40841993 159.74611568 -58.25473022 155.4486084 C-61.13394237 152.50649182 -63.55726784 149.30943855 -66 146 C-67.56081001 144.0843684 -69.15603837 142.20088076 -70.75 140.3125 C-74.57055283 135.59697515 -78.28111927 130.79577924 -82 126 C-83.03386841 126.17390259 -83.03386841 126.17390259 -84.08862305 126.35131836 C-128.08483989 133.70423157 -178.36641542 135.41216577 -217 109 C-220.46626793 106.47178142 -223.76812885 103.82084921 -227 101 C-227.63679688 100.44699219 -228.27359375 99.89398438 -228.9296875 99.32421875 C-240.50209029 88.54902593 -246.72954784 73.76332538 -247.3125 58.125 C-246.75222399 39.3999859 -237.22113362 25.32193426 -225 12 C-224.34 12.66 -223.68 13.32 -223 14 C-223.31453125 14.55945313 -223.6290625 15.11890625 -223.953125 15.6953125 C-231.49037729 29.81630925 -234.4204061 44.72119826 -231.3046875 60.52734375 C-226.26968043 76.96516096 -215.12232903 89.03639536 -200.1796875 97.140625 C-160.25244489 117.55955274 -114.22692271 114.76484558 -72 104 C-71.23848633 103.80680176 -70.47697266 103.61360352 -69.69238281 103.41455078 C-39.33048892 95.53565967 -9.28369032 80.24956522 13 58 C13.68707031 57.32453125 14.37414062 56.6490625 15.08203125 55.953125 C23.05934508 47.54131695 27.33946372 37.43804292 27.21484375 25.9453125 C26.75366495 19.62297039 23.59710231 16.07470432 19 12 C13.19976465 7.14674185 7.21605275 5.12097445 0 3 C0 2.01 0 1.02 0 0 Z " fill="#053B8B" transform="translate(355,179)"/>
<path d="M0 0 C12.26771536 0.31093288 24.18829812 4.27895349 33 13 C38.69171113 19.13049944 41.47118826 25.46732792 42.4375 33.75 C41.5625322 52.08786682 28.69620029 66.17414612 15.86328125 77.91796875 C4.44036891 88.0445512 -8.2908515 95.77518618 -21.625 103.125 C-23.19084839 103.99680908 -23.19084839 103.99680908 -24.78833008 104.88623047 C-26.27369263 105.68891357 -26.27369263 105.68891357 -27.7890625 106.5078125 C-28.67287598 106.98879395 -29.55668945 107.46977539 -30.46728516 107.96533203 C-33.23789717 109.09718606 -35.03799133 109.36376635 -38 109 C-40.45703125 106.91796875 -40.45703125 106.91796875 -42.8125 104.1875 C-43.60269531 103.29417969 -44.39289063 102.40085937 -45.20703125 101.48046875 C-47 99 -47 99 -47 96 C-46.32646484 95.68885254 -45.65292969 95.37770508 -44.95898438 95.05712891 C-18.34918226 82.69998665 14.74705906 67.25165751 26.1640625 38.01953125 C27.8476717 31.93808306 27.87413441 25.53038907 25.8125 19.5625 C19.07515308 10.03728539 10.8575631 6.19130344 0 3 C0 2.01 0 1.02 0 0 Z " fill="#0077C8" transform="translate(355,179)"/>
<path d="M0 0 C1.09054688 0.32613281 2.18109375 0.65226562 3.3046875 0.98828125 C17.32429495 5.08714119 31.29964594 7.9473047 45.91015625 8.7890625 C48 9 48 9 49 10 C49.09899523 11.54955559 49.13079524 13.10353673 49.1328125 14.65625 C49.13474609 16.06583984 49.13474609 16.06583984 49.13671875 17.50390625 C49.13285156 18.49261719 49.12898438 19.48132813 49.125 20.5 C49.13080078 21.98306641 49.13080078 21.98306641 49.13671875 23.49609375 C49.13542969 24.43582031 49.13414062 25.37554687 49.1328125 26.34375 C49.13168457 27.21193359 49.13055664 28.08011719 49.12939453 28.97460938 C49 31 49 31 48 32 C46.4651703 32.09319449 44.92607918 32.117458 43.38842773 32.11352539 C42.40748642 32.11344986 41.4265451 32.11337433 40.4158783 32.11329651 C39.3492244 32.10813522 38.2825705 32.10297394 37.18359375 32.09765625 C35.55430687 32.09553383 35.55430687 32.09553383 33.8921051 32.09336853 C30.40720925 32.08775048 26.92237658 32.07519492 23.4375 32.0625 C21.08138113 32.05748733 18.72526126 32.05292402 16.36914062 32.04882812 C10.57940536 32.03777519 4.78970719 32.02101951 -1 32 C-1.02465504 27.60343827 -1.04283842 23.2069128 -1.05493164 18.81030273 C-1.05997121 17.31355082 -1.06680287 15.81680384 -1.07543945 14.32006836 C-1.08752159 12.17300193 -1.09323191 10.02600038 -1.09765625 7.87890625 C-1.10289307 6.5854126 -1.10812988 5.29191895 -1.11352539 3.95922852 C-1 1 -1 1 0 0 Z " fill="#053C8B" transform="translate(161,305)"/>
<path d="M0 0 C4.27761313 3.14090475 6.77976163 6.29456249 8.1875 11.4375 C9.06919763 17.38383288 8.25495701 22.19313801 5.1875 27.4375 C0.45686391 32.50687299 -4.12393214 35.4295356 -11.125 35.8125 C-16.96058561 35.64770772 -21.38771203 33.75686241 -25.609375 29.71875 C-30.09106376 24.68218549 -31.19551753 20.78712852 -31.078125 14.06640625 C-30.54327515 8.77296581 -28.7709115 5.08687776 -24.68359375 1.64453125 C-16.4509412 -4.0654304 -8.90939368 -5.41032487 0 0 Z " fill="#0094DE" transform="translate(154.8125,149.5625)"/>
<path d="M0 0 C-0.97920339 2.93761018 -1.62786536 4.69122681 -4.04400635 6.69598389 C-6.72613181 9.85532966 -6.57375953 12.65430171 -6.54589844 16.61425781 C-6.55623611 17.37562042 -6.56657379 18.13698303 -6.57722473 18.92141724 C-6.60666836 21.43220197 -6.60815218 23.94218114 -6.609375 26.453125 C-6.62435566 28.19620299 -6.64108257 29.93926678 -6.65948486 31.68231201 C-6.70318368 36.26571299 -6.72316301 40.84892248 -6.73822021 45.43249512 C-6.75778222 50.11136204 -6.79975323 54.7900219 -6.83984375 59.46875 C-6.91517322 68.6457695 -6.96544808 77.82274272 -7 87 C8.32282048 93.1731544 23.51230595 96.90657526 40 98 C39.75552124 96.1439917 39.75552124 96.1439917 39.50610352 94.25048828 C38.64036589 85.52668571 38.87743706 76.74850261 38.90234375 67.9921875 C38.9042116 66.05591875 38.90563377 64.11964952 38.90663147 62.18338013 C38.91042772 57.11672636 38.92023295 52.0501018 38.93133545 46.98345947 C38.94161211 41.801477 38.94614243 36.61948975 38.95117188 31.4375 C38.96185812 21.29165392 38.97889934 11.1458294 39 1 C41.84883667 -0.42441834 44.27729258 -0.14305332 47.46240234 -0.16113281 C48.45805206 -0.16858017 48.45805206 -0.16858017 49.47381592 -0.17617798 C51.67786696 -0.19082104 53.88184572 -0.19760965 56.0859375 -0.203125 C57.62374879 -0.20888034 59.16156007 -0.21463803 60.69937134 -0.22039795 C63.93255955 -0.23091787 67.16572286 -0.23675218 70.39892578 -0.24023438 C74.51191382 -0.24568231 78.6245646 -0.2696256 82.73744774 -0.29820633 C85.92051087 -0.316986 89.10349584 -0.32204666 92.28660965 -0.32357025 C93.80064334 -0.32656941 95.31467658 -0.33450363 96.82865524 -0.34775543 C108.81025376 -0.44503194 120.57321889 -0.22167135 130.0859375 7.9765625 C134.16447074 12.28815478 137.26339992 16.98636502 137.3125 23.0625 C137.1578125 24.5165625 137.1578125 24.5165625 137 26 C134.6303323 23.6303323 134.3165445 22.00231198 133.375 18.8125 C131.26412984 12.81069752 128.30972881 9.43996049 123 6 C114.01341804 1.88114993 103.25116629 2.79665358 93.5625 2.68359375 C92.07177195 2.66298906 90.58104929 2.64199175 89.09033203 2.62062073 C85.1909423 2.56576266 81.29150306 2.51619547 77.39202881 2.46777344 C73.40323548 2.4172914 69.41451292 2.36174556 65.42578125 2.30664062 C57.61724764 2.19950353 49.80865468 2.09796232 42 2 C42.00580078 3.13131348 42.01160156 4.26262695 42.01757812 5.42822266 C42.07882228 23.86813089 41.79288641 42.30376889 41.53643799 60.74133301 C41.47502139 65.18040512 41.41532691 69.6195004 41.35546875 74.05859375 C41.23862326 82.70575215 41.11993146 91.35288385 41 100 C36.6217572 101.30841234 32.7451856 100.60233784 28.3125 99.875 C27.05578491 99.67076416 27.05578491 99.67076416 25.77368164 99.46240234 C20.07111197 98.48021858 14.49743417 97.22730476 8.9375 95.625 C7.95873901 95.34825439 7.95873901 95.34825439 6.96020508 95.06591797 C3.01785386 93.86384195 -0.57443922 92.27234718 -4.25170898 90.40771484 C-5.58938576 89.7316066 -5.58938576 89.7316066 -6.9540863 89.0418396 C-7.96681358 88.526129 -7.96681358 88.526129 -9 88 C-9.16250834 77.70769985 -9.28672973 67.41570707 -9.3626852 57.12238312 C-9.39914888 52.34219403 -9.44857169 47.56288548 -9.52807617 42.78320312 C-9.60438397 38.16657415 -9.6460419 33.55078965 -9.6641407 28.93357849 C-9.67703071 27.17608858 -9.70220314 25.41864261 -9.7401104 23.66151428 C-10.06086953 8.17091219 -10.06086953 8.17091219 -5.58227539 2.85742188 C-2.51321755 0 -2.51321755 0 0 0 Z " fill="#002980" transform="translate(169,184)"/>
<path d="M0 0 C0 0.66 0 1.32 0 2 C-3.26102866 2.97397286 -6.19821871 3.12117518 -9.59472656 3.11352539 C-10.71558655 3.11344986 -11.83644653 3.11337433 -12.99127197 3.11329651 C-14.19555847 3.10813522 -15.39984497 3.10297394 -16.640625 3.09765625 C-17.87794373 3.0962413 -19.11526245 3.09482635 -20.39007568 3.09336853 C-23.67144941 3.0887211 -26.95277373 3.07974347 -30.23413086 3.06866455 C-33.58577011 3.0584152 -36.93741148 3.05394859 -40.2890625 3.04882812 C-46.85939431 3.03780025 -53.42969311 3.02106296 -60 3 C-58.51991401 7.82200149 -56.96061828 10.543085 -53.4375 14.1875 C-50.02920224 17.80546415 -46.74626204 21.4437328 -43.625 25.3125 C-38.22739344 31.9989426 -32.6128505 38.49441186 -27 45 C-22.72636565 44.0960926 -18.45671939 43.17451602 -14.1875 42.25 C-12.3940918 41.87101562 -12.3940918 41.87101562 -10.56445312 41.484375 C-3.90587777 40.03291443 2.39786626 38.31129443 8.73242188 35.78515625 C11.55742587 34.80698949 14.03633625 34.67960392 17 35 C16.175 34.2575 15.35 33.515 14.5 32.75 C12 30 12 30 12 26 C13.134375 25.95875 14.26875 25.9175 15.4375 25.875 C30.92557664 24.11610171 48.29389266 16.12565343 58.375 4.1875 C58.91125 3.465625 59.4475 2.74375 60 2 C60.99 2.495 60.99 2.495 62 3 C50.26095386 18.06444146 33.43582682 25.68533936 15 29 C15.825 29.598125 16.65 30.19625 17.5 30.8125 C18.325 31.534375 19.15 32.25625 20 33 C20 33.99 20 34.98 20 36 C-4.00398843 42.91828196 -4.00398843 42.91828196 -15.1875 45.4375 C-15.8976123 45.60088867 -16.60772461 45.76427734 -17.33935547 45.93261719 C-25.22147148 47.64686765 -25.22147148 47.64686765 -29 47 C-31.24097489 44.92838354 -32.95989045 43.06447927 -34.8125 40.6875 C-35.33239502 40.05102539 -35.85229004 39.41455078 -36.38793945 38.75878906 C-37.94151101 36.851623 -39.47168517 34.92742566 -41 33 C-42.55983084 31.08116048 -44.12204277 29.16425208 -45.6875 27.25 C-46.39648438 26.37472656 -47.10546875 25.49945313 -47.8359375 24.59765625 C-50.09120766 21.89051789 -52.4340407 19.28676089 -54.8125 16.6875 C-61.28573812 9.51015528 -61.28573812 9.51015528 -63 6 C-62.08203125 3.33203125 -62.08203125 3.33203125 -61 1 C-53.43776129 0.85666514 -45.87550376 0.71435685 -38.31323242 0.57275391 C-35.74193893 0.52448648 -33.17064981 0.47598617 -30.59936523 0.42724609 C-26.89828604 0.35713093 -23.19719184 0.28785995 -19.49609375 0.21875 C-17.77851112 0.18593933 -17.77851112 0.18593933 -16.02622986 0.15246582 C-10.6831233 0.05347099 -5.34403289 -0.02687132 0 0 Z " fill="#002076" transform="translate(282,235)"/>
<path d="M0 0 C3.39879677 0.57453545 4.91547115 1.58789451 7.20703125 4.1328125 C7.79419922 4.77476562 8.38136719 5.41671875 8.98632812 6.078125 C9.58896484 6.75359375 10.19160156 7.4290625 10.8125 8.125 C12.00521521 9.44127895 13.19922397 10.75638695 14.39453125 12.0703125 C14.98621094 12.72273926 15.57789063 13.37516602 16.1875 14.04736328 C18.55177744 16.59443912 21.01386937 19.03338839 23.48413086 21.47705078 C25.20514103 23.20609917 26.80612149 25.00728749 28.375 26.875 C31.77328788 30.84612 35.47703044 34.43492854 39.27734375 38.01953125 C41 40 41 40 41 43 C32.4547673 43.27941161 23.91147511 43.49192111 15.3627882 43.62174606 C11.39197952 43.68409505 7.42431876 43.76846816 3.45532227 43.90527344 C-0.3834785 44.03674605 -4.21927601 44.10762043 -8.06015587 44.13852692 C-9.51686575 44.16051434 -10.97343102 44.20345813 -12.42884254 44.26876068 C-18.57947702 44.53347391 -24.40841993 44.74611568 -29.25473022 40.4486084 C-32.13394237 37.50649182 -34.55726784 34.30943855 -37 31 C-38.56081001 29.0843684 -40.15603837 27.20088076 -41.75 25.3125 C-45.57055283 20.59697515 -49.28111927 15.79577924 -53 11 C-53.74685059 11.12117188 -54.49370117 11.24234375 -55.26318359 11.3671875 C-58.63352916 11.91307745 -62.00425717 12.45656869 -65.375 13 C-66.550625 13.19078125 -67.72625 13.3815625 -68.9375 13.578125 C-70.05898437 13.75859375 -71.18046875 13.9390625 -72.3359375 14.125 C-73.37282715 14.29257812 -74.4097168 14.46015625 -75.47802734 14.6328125 C-78 15 -78 15 -80 15 C-79.67 14.01 -79.34 13.02 -79 12 C-75.25239331 11.29899918 -71.50163915 10.61656013 -67.75 9.9375 C-66.68652344 9.73833984 -65.62304688 9.53917969 -64.52734375 9.33398438 C-63.50253906 9.15029297 -62.47773438 8.96660156 -61.421875 8.77734375 C-60.47924805 8.60452881 -59.53662109 8.43171387 -58.56542969 8.25366211 C-56.00456984 8.00045185 -54.39691433 8.10594147 -52 9 C-49.95703125 10.8984375 -49.95703125 10.8984375 -47.8125 13.375 C-47.02617187 14.27992188 -46.23984375 15.18484375 -45.4296875 16.1171875 C-34.67952006 28.87220932 -34.67952006 28.87220932 -32.52430725 32.44918823 C-29.80310029 36.57699352 -27.73683909 39.51385023 -22.84886169 40.88201904 C-19.02140345 41.15579659 -15.26532746 41.12736957 -11.4375 40.9765625 C-10.03650999 40.95788021 -8.63545406 40.94366022 -7.234375 40.9336853 C-3.56979785 40.89573832 0.09073154 40.79774534 3.75372314 40.68664551 C7.50062294 40.58381778 11.24818575 40.53856564 14.99609375 40.48828125 C22.33256268 40.38145399 29.6657115 40.21110205 37 40 C35.42392072 36.53052473 34.43807916 35.6053035 31 34 C29.46484375 32.44140625 29.46484375 32.44140625 27.9375 30.5625 C24.95160687 27.02437717 21.79643126 23.75121272 18.5 20.5 C14.11593061 16.17017418 9.97531084 11.70708448 6 7 C4.85462425 5.66627357 3.70881244 4.33292145 2.5625 3 C1.2940625 1.515 1.2940625 1.515 0 0 Z " fill="#002378" transform="translate(326,294)"/>
<path d="M0 0 C1.09054688 0.32613281 2.18109375 0.65226562 3.3046875 0.98828125 C17.32429495 5.08714119 31.29964594 7.9473047 45.91015625 8.7890625 C48 9 48 9 49 10 C49.09899523 11.54955559 49.13079524 13.10353673 49.1328125 14.65625 C49.13474609 16.06583984 49.13474609 16.06583984 49.13671875 17.50390625 C49.13285156 18.49261719 49.12898438 19.48132813 49.125 20.5 C49.13080078 21.98306641 49.13080078 21.98306641 49.13671875 23.49609375 C49.13542969 24.43582031 49.13414062 25.37554687 49.1328125 26.34375 C49.13168457 27.21193359 49.13055664 28.08011719 49.12939453 28.97460938 C49 31 49 31 48 32 C46.4651703 32.09319449 44.92607918 32.117458 43.38842773 32.11352539 C42.40748642 32.11344986 41.4265451 32.11337433 40.4158783 32.11329651 C39.3492244 32.10813522 38.2825705 32.10297394 37.18359375 32.09765625 C35.55430687 32.09553383 35.55430687 32.09553383 33.8921051 32.09336853 C30.40720925 32.08775048 26.92237658 32.07519492 23.4375 32.0625 C21.08138113 32.05748733 18.72526126 32.05292402 16.36914062 32.04882812 C10.57940536 32.03777519 4.78970719 32.02101951 -1 32 C-1.02465504 27.60343827 -1.04283842 23.2069128 -1.05493164 18.81030273 C-1.05997121 17.31355082 -1.06680287 15.81680384 -1.07543945 14.32006836 C-1.08752159 12.17300193 -1.09323191 10.02600038 -1.09765625 7.87890625 C-1.10289307 6.5854126 -1.10812988 5.29191895 -1.11352539 3.95922852 C-1 1 -1 1 0 0 Z M1 3 C1 11.91 1 20.82 1 30 C16.18 30 31.36 30 47 30 C47 23.73 47 17.46 47 11 C43.97779297 10.63648438 43.97779297 10.63648438 40.89453125 10.265625 C38.89515873 10.01483263 36.89579662 9.76394964 34.89672852 9.51074219 C33.53103463 9.33989047 32.1648285 9.1730738 30.7980957 9.01074219 C22.44207496 8.01502659 14.56967789 6.52035676 6.58081055 3.79589844 C3.972329 2.8526522 3.972329 2.8526522 1 3 Z " fill="#00247C" transform="translate(161,305)"/>
<path d="M0 0 C0.66 0.66 1.32 1.32 2 2 C1.68546875 2.55945313 1.3709375 3.11890625 1.046875 3.6953125 C-6.49037729 17.81630925 -9.4204061 32.72119826 -6.3046875 48.52734375 C-3.16017094 58.79326545 2.88854503 69.92569669 12 76 C11.67 76.66 11.34 77.32 11 78 C0.73064145 69.94455511 -8.12229218 58.25775524 -10 45 C-10.86067574 33.00963531 -9.81864963 22.40480626 -6 11 C-6.99 12.485 -6.99 12.485 -8 14 C-8.66 14 -9.32 14 -10 14 C-10.11730469 14.72703125 -10.23460938 15.4540625 -10.35546875 16.203125 C-11.00975052 19.04231133 -11.98376709 21.16658121 -13.3125 23.75 C-16.81034226 31.1625785 -18.32594209 39.02250618 -20 47 C-22.88607226 42.67089161 -21.88455355 39.78932686 -21.0078125 34.80078125 C-17.54546581 21.74317145 -9.50839162 9.50839162 0 0 Z " fill="#002174" transform="translate(130,191)"/>
<path d="M0 0 C15.15401753 2.89075453 28.06135782 7.31262699 37.61328125 20.171875 C47.09768471 34.57498894 48.81302671 52.82046058 45.47265625 69.43920898 C44.19038115 75.01330947 42.25193617 80.26698399 39 85 C38.01 85.495 38.01 85.495 37 86 C37.61547155 82.41616048 38.59206622 79.28651895 40 75.9375 C45.16669499 63.60961378 45.00800206 46.22197357 41.046875 33.53515625 C35.56437748 20.25851114 28.92702007 12.88478994 15.82421875 7.02734375 C11.5623691 5.32772836 7.30906072 4.3699311 2.78515625 3.625 C2.19605469 3.41875 1.60695313 3.2125 1 3 C0.67 2.01 0.34 1.02 0 0 Z " fill="#002382" transform="translate(307,150)"/>
<path d="M0 0 C3.48208991 1.28046834 6.63659785 2.87813675 9.85620117 4.71582031 C31.47233859 16.92298711 56.36125393 21.20031765 80.9375 21.1875 C82.85018677 21.1884668 82.85018677 21.1884668 84.80151367 21.18945312 C94.65174955 21.13466387 104.26357274 20.45981239 114 19 C114 19.66 114 20.32 114 21 C112.18806942 21.31578486 110.37541654 21.62742564 108.5625 21.9375 C107.55316406 22.11152344 106.54382813 22.28554688 105.50390625 22.46484375 C96.80967181 23.79272571 88.36251353 24.15415521 79.5625 24.125 C78.39912109 24.12886719 77.23574219 24.13273437 76.03710938 24.13671875 C69.29550952 24.12913113 62.69090543 23.83839232 56 23 C56 22.34 56 21.68 56 21 C54.948125 21.03480469 54.948125 21.03480469 53.875 21.0703125 C47.84441138 21.18502478 42.77556127 20.74356567 37 19 C37 18.34 37 17.68 37 17 C35.7625 16.938125 34.525 16.87625 33.25 16.8125 C24.19019154 15.76659388 16.22050626 11.27524844 8.375 6.875 C7.77083252 6.53847412 7.16666504 6.20194824 6.54418945 5.85522461 C3.52833066 4.11087981 1.96987222 2.95480833 0 0 Z " fill="#002278" transform="translate(143,270)"/>
<path d="M0 0 C8.78919382 -0.06988883 17.57829017 -0.12300682 26.36770248 -0.15543652 C30.45015108 -0.17101078 34.53240785 -0.1920959 38.61474609 -0.22631836 C42.56348778 -0.25920907 46.51204638 -0.27691475 50.46091461 -0.28463173 C51.95821255 -0.29012248 53.45550188 -0.30084251 54.95272064 -0.31719017 C66.95132236 -0.44284208 78.59305697 -0.20457453 88.0859375 7.9765625 C92.16447074 12.28815478 95.26339992 16.98636502 95.3125 23.0625 C95.209375 24.031875 95.10625 25.00125 95 26 C92.6303323 23.6303323 92.3165445 22.00231198 91.375 18.8125 C89.26412984 12.81069752 86.30972881 9.43996049 81 6 C72.01341804 1.88114993 61.25116629 2.79665358 51.5625 2.68359375 C50.07177195 2.66298906 48.58104929 2.64199175 47.09033203 2.62062073 C43.1909423 2.56576266 39.29150306 2.51619547 35.39202881 2.46777344 C31.40323548 2.4172914 27.41451292 2.36174556 23.42578125 2.30664062 C15.61724764 2.19950353 7.80865468 2.09796232 0 2 C0 1.34 0 0.68 0 0 Z " fill="#001F75" transform="translate(211,184)"/>
<path d="M0 0 C0.99 0.33 1.98 0.66 3 1 C3.73828125 3.73828125 3.73828125 3.73828125 4.3125 7.3125 C7.7426222 24.65660509 17.97333933 36.75425896 32.23046875 46.55859375 C41.19423211 52.48532983 50.9412902 56.33343804 61 60 C60.34 60.66 59.68 61.32 59 62 C35.37336684 52.47512694 15.42693991 41.27779745 3.6875 17.625 C1.30785016 12.01801389 0.70559227 6.00681842 0 0 Z " fill="#00217A" transform="translate(108,240)"/>
<path d="M0 0 C8.64150758 0.21902439 16.0334066 2.88912563 24 6 C24 6.66 24 7.32 24 8 C23.01 8 22.02 8 21 8 C23.23224962 11.7595783 25.55213036 15.45392426 27.9140625 19.1328125 C30.79319667 24.08326621 30.45244089 29.45005844 30 35 C29.23172097 37.85871268 28.22679088 40.2908368 27 43 C26.34 43 25.68 43 25 43 C25.33 41.9275 25.66 40.855 26 39.75 C27.64508096 33.09866545 28.06387841 26.07964802 25.8125 19.5625 C19.07515308 10.03728539 10.8575631 6.19130344 0 3 C0 2.01 0 1.02 0 0 Z " fill="#005ABA" transform="translate(355,179)"/>
<path d="M0 0 C4.67019148 0.49649876 8.98888062 1.21104316 13.52758789 2.45996094 C27.69415323 6.21958212 42.44289259 5.86214104 57 6 C58.00901367 6.0098291 59.01802734 6.0196582 60.05761719 6.02978516 C64.70596457 6.06572168 69.35175251 6.06216081 74 6 C74 6.66 74 7.32 74 8 C48.71912536 11.26120674 24.59080882 7.75473595 0 2 C0 1.34 0 0.68 0 0 Z " fill="#002275" transform="translate(170,301)"/>
<path d="M0 0 C0.66 0.33 1.32 0.66 2 1 C-4.10566338 24.8538029 -22.12984641 41.15608541 -41.9375 54.5625 C-42.55214111 54.98039795 -43.16678223 55.3982959 -43.80004883 55.82885742 C-47.41460914 58.20191414 -50.84030011 59.82512293 -55 61 C-52.17604663 57.97856738 -49.34610118 55.82397748 -45.8125 53.6875 C-37.55042088 48.52643996 -30.36923564 42.56767457 -23.26171875 35.91796875 C-21 34 -21 34 -18.83203125 32.98828125 C-16.45548266 31.7062625 -16.09221812 30.43063295 -15 28 C-13.93953615 26.66895388 -12.85385445 25.35778866 -11.75 24.0625 C-6.10649269 16.94626114 -2.74585515 8.59852294 0 0 Z " fill="#005FBF" transform="translate(395,216)"/>
<path d="M0 0 C0 0.66 0 1.32 0 2 C-3.26102866 2.97397286 -6.19821871 3.12117518 -9.59472656 3.11352539 C-10.71558655 3.11344986 -11.83644653 3.11337433 -12.99127197 3.11329651 C-14.19555847 3.10813522 -15.39984497 3.10297394 -16.640625 3.09765625 C-17.87794373 3.0962413 -19.11526245 3.09482635 -20.39007568 3.09336853 C-23.67144941 3.0887211 -26.95277373 3.07974347 -30.23413086 3.06866455 C-33.58577011 3.0584152 -36.93741148 3.05394859 -40.2890625 3.04882812 C-46.85939431 3.03780025 -53.42969311 3.02106296 -60 3 C-60.33 4.65 -60.66 6.3 -61 8 C-61.66 6.68 -62.32 5.36 -63 4 C-62.34 3.01 -61.68 2.02 -61 1 C-58.75654602 0.60127258 -58.75654602 0.60127258 -55.92700195 0.56762695 C-54.86862625 0.54783279 -53.81025055 0.52803864 -52.71980286 0.50764465 C-51.57090073 0.50125473 -50.4219986 0.49486481 -49.23828125 0.48828125 C-48.05912643 0.47033005 -46.87997162 0.45237885 -45.66508484 0.43388367 C-41.88092708 0.37957085 -38.09689487 0.34585854 -34.3125 0.3125 C-31.77927896 0.2793363 -29.24607489 0.24484754 -26.71289062 0.20898438 C-17.80888464 0.08863367 -8.90494949 -0.02315047 0 0 Z " fill="#002B81" transform="translate(282,235)"/>
<path d="M0 0 C1.921875 1.84765625 1.921875 1.84765625 3.75 4.0625 C4.36359375 4.79597656 4.9771875 5.52945312 5.609375 6.28515625 C6.29773438 7.13400391 6.29773438 7.13400391 7 8 C6.01 8 5.02 8 4 8 C3.37480469 6.97648437 2.74960937 5.95296875 2.10546875 4.8984375 C0.86745432 3.14981205 0.86745432 3.14981205 -1 2 C-5.35480404 1.80714999 -9.44015582 2.72804533 -13.6875 3.625 C-15.96222418 4.05476902 -18.23696301 4.48446054 -20.51171875 4.9140625 C-21.51678467 5.1198291 -22.52185059 5.3255957 -23.55737305 5.53759766 C-26 6 -26 6 -28 6 C-27.67 5.01 -27.34 4.02 -27 3 C-23.25239331 2.29899918 -19.50163915 1.61656013 -15.75 0.9375 C-14.68652344 0.73833984 -13.62304688 0.53917969 -12.52734375 0.33398438 C-11.50253906 0.15029297 -10.47773438 -0.03339844 -9.421875 -0.22265625 C-8.47924805 -0.39547119 -7.53662109 -0.56828613 -6.56542969 -0.74633789 C-4.00713103 -0.9992949 -2.39485311 -0.89281804 0 0 Z " fill="#002680" transform="translate(274,303)"/>
<path d="M0 0 C-1.51472564 3.96840401 -3.87217833 5.61644831 -7.3125 8 C-10.20501273 10.02041817 -12.96467281 11.96864513 -15.60546875 14.3125 C-18 16 -18 16 -20.3125 15.75 C-20.869375 15.5025 -21.42625 15.255 -22 15 C-20.58847656 14.00419922 -20.58847656 14.00419922 -19.1484375 12.98828125 C-17.8905333 12.0964835 -16.63272597 11.2045491 -15.375 10.3125 C-14.75753906 9.87744141 -14.14007813 9.44238281 -13.50390625 8.99414062 C-10.44930196 6.82376389 -7.50371232 4.61490104 -4.6640625 2.16796875 C-2 0 -2 0 0 0 Z M-24 16 C-23.34 16.33 -22.68 16.66 -22 17 C-24.83430453 20.2542015 -26.68607774 21.5206753 -31 22 C-28.74259377 19.66475218 -26.7194239 17.81294927 -24 16 Z " fill="#005EC8" transform="translate(365,242)"/>
<path d="M0 0 C0.10531468 13.04119828 0.16652651 26.00156173 -1 39 C-1.33 39 -1.66 39 -2 39 C-2.33 26.46 -2.66 13.92 -3 1 C-1 0 -1 0 0 0 Z " fill="#001AAD" transform="translate(211,184)"/>
<path d="M0 0 C0.66 0.66 1.32 1.32 2 2 C0.02 5.96 -1.96 9.92 -4 14 C-4.66 14 -5.32 14 -6 14 C-6 13.01 -6 12.02 -6 11 C-6.99 12.485 -6.99 12.485 -8 14 C-8.66 14 -9.32 14 -10 14 C-10.33 15.65 -10.66 17.3 -11 19 C-11.80078125 17.4140625 -11.80078125 17.4140625 -12 15 C-10.47570332 12.61183693 -8.97704507 10.54473258 -7.1875 8.375 C-6.72279297 7.78976563 -6.25808594 7.20453125 -5.77929688 6.6015625 C-3.93884683 4.29901954 -2.08540222 2.08540222 0 0 Z " fill="#002181" transform="translate(130,191)"/>
<path d="M0 0 C0.33 0.66 0.66 1.32 1 2 C0.05640625 2.18175781 -0.8871875 2.36351562 -1.859375 2.55078125 C-3.14328125 2.80214844 -4.4271875 3.05351562 -5.75 3.3125 C-6.76259888 3.51008911 -6.76259888 3.51008911 -7.7956543 3.71166992 C-13.17120559 4.78222731 -18.43784775 6.12990765 -23.70703125 7.64453125 C-24.46371094 7.76183594 -25.22039062 7.87914062 -26 8 C-26.66 7.34 -27.32 6.68 -28 6 C-18.71402654 3.57244856 -9.5141468 1.36946052 0 0 Z " fill="#002990" transform="translate(202,151)"/>
<path d="M0 0 C0.66 0 1.32 0 2 0 C1.35951799 6.72506109 -1.5425012 10.84408062 -6.4375 15.3125 C-9.20332289 17.59549605 -11.32709211 18.77739952 -15 19 C-15 18.34 -15 17.68 -15 17 C-13.42578125 15.921875 -13.42578125 15.921875 -11.3125 14.75 C-5.228515 11.07807277 -1.8444337 7.0423832 0 0 Z " fill="#001F83" transform="translate(303,215)"/>
<path d="M0 0 C0.99 0.33 1.98 0.66 3 1 C3.87890625 3.94921875 3.87890625 3.94921875 4.5625 7.6875 C5.42074156 12.27933481 6.42462891 16.5984267 8 21 C7.34 21.33 6.68 21.66 6 22 C2.21410001 14.8876539 0.9348289 7.958346 0 0 Z " fill="#00267E" transform="translate(108,240)"/>
<path d="M0 0 C3.07032939 0.31329892 4.0122336 1.01284637 6.18359375 3.29296875 C6.92738281 4.24816406 7.67117188 5.20335937 8.4375 6.1875 C9.21867187 7.18007813 9.99984375 8.17265625 10.8046875 9.1953125 C11.89136719 10.58363281 11.89136719 10.58363281 13 12 C14.01487557 13.19259571 15.03421771 14.38144434 16.0625 15.5625 C18 18 18 18 18 20 C17.34 20 16.68 20 16 20 C14.54340023 18.38617052 13.15951049 16.70636784 11.8125 15 C8.3877301 10.71072508 4.88621095 6.54023439 1.21484375 2.4609375 C0 1 0 1 0 0 Z " fill="#001968" transform="translate(279,312)"/>
<path d="M0 0 C-5.80719578 5.80719578 -17.09372867 6.64305773 -25 7 C-25 6.34 -25 5.68 -25 5 C-21.77330584 4.15688881 -18.54329082 3.32726132 -15.3125 2.5 C-13.94448242 2.14228516 -13.94448242 2.14228516 -12.54882812 1.77734375 C-11.21948242 1.43896484 -11.21948242 1.43896484 -9.86328125 1.09375 C-9.05157471 0.88427734 -8.23986816 0.67480469 -7.40356445 0.45898438 C-4.881007 -0.02272289 -2.56191817 -0.07974843 0 0 Z " fill="#002888" transform="translate(288,283)"/>
<path d="M0 0 C0.66 0 1.32 0 2 0 C0.56140464 4.26912893 -1.56814873 7.23391301 -4.4375 10.6875 C-5.61119141 12.11642578 -5.61119141 12.11642578 -6.80859375 13.57421875 C-9 16 -9 16 -12 18 C-11.42906273 14.18510094 -9.73941063 12.32534786 -7.125 9.5625 C-4.87208682 7.17241683 -3.03246073 5.05536961 -1.3671875 2.21484375 C-0.91601562 1.48394531 -0.46484375 0.75304687 0 0 Z " fill="#0067C0" transform="translate(378,224)"/>
<path d="M0 0 C3.9492568 0.55105909 7.34920174 1.38935371 11 3 C11 3.66 11 4.32 11 5 C10.01 5 9.02 5 8 5 C7.67 5.66 7.34 6.32 7 7 C3.535 5.02 3.535 5.02 0 3 C0 2.01 0 1.02 0 0 Z " fill="#0066BF" transform="translate(368,182)"/>
<path d="M0 0 C0.66 0 1.32 0 2 0 C2.69821417 2.10063576 3.38324472 4.20565737 4.0625 6.3125 C4.44535156 7.48425781 4.82820313 8.65601563 5.22265625 9.86328125 C6 13 6 13 5 16 C2.22420239 13.22420239 2.13938613 10.69693063 1.375 6.875 C1.11460937 5.59367188 0.85421875 4.31234375 0.5859375 2.9921875 C0.39257812 2.00476563 0.19921875 1.01734375 0 0 Z " fill="#002373" transform="translate(347,179)"/>
<path d="M0 0 C5.48189702 1.32894473 8.9577509 5.46116062 12 10 C12.703125 12.76171875 12.703125 12.76171875 13 15 C10.73903364 12.84637923 8.89160614 10.59025676 7.0625 8.0625 C4.89606277 5.12889546 2.68876811 2.48193979 0 0 Z " fill="#0066B8" transform="translate(381,188)"/>
<path d="M0 0 C4.62 0.99 9.24 1.98 14 3 C13.67 3.66 13.34 4.32 13 5 C7.06 4.01 7.06 4.01 1 3 C0.67 2.01 0.34 1.02 0 0 Z " fill="#00268D" transform="translate(307,150)"/>
<path d="M0 0 C4.08276326 0.40158327 8.05208447 0.84852464 12 2 C12 2.66 12 3.32 12 4 C10.58249437 3.88490339 9.16598831 3.75746342 7.75 3.625 C6.96109375 3.55539062 6.1721875 3.48578125 5.359375 3.4140625 C2.914123 2.98492887 1.15163097 2.21399362 -1 1 C-0.67 0.67 -0.34 0.34 0 0 Z " fill="#002587" transform="translate(181,287)"/>
<path d="M0 0 C-1.41573821 3.39187279 -3.04230966 5.09697541 -6 7.25 C-7.051875 8.03117188 -7.051875 8.03117188 -8.125 8.828125 C-10 10 -10 10 -12 10 C-12 9.34 -12 8.68 -12 8 C-9.8828125 6.0546875 -9.8828125 6.0546875 -7.125 3.875 C-6.22007812 3.15054688 -5.31515625 2.42609375 -4.3828125 1.6796875 C-2 0 -2 0 0 0 Z " fill="#0068BB" transform="translate(365,242)"/>
<path d="M0 0 C3.25548753 3.02295271 5.68977058 6.20462309 8 10 C8 10.66 8 11.32 8 12 C7.34 12 6.68 12 6 12 C4.4921875 10.13671875 4.4921875 10.13671875 2.875 7.6875 C2.33617188 6.88699219 1.79734375 6.08648437 1.2421875 5.26171875 C0 3 0 3 0 0 Z " fill="#001C6E" transform="translate(115,261)"/>
<path d="M0 0 C2.95749791 3.46741134 5.07848152 6.86873527 7 11 C6.01 11 5.02 11 4 11 C2.35 7.7 0.7 4.4 -1 1 C-0.67 0.67 -0.34 0.34 0 0 Z " fill="#001F8B" transform="translate(342,168)"/>
<path d="M0 0 C-1 1 -1 1 -3.50390625 1.09765625 C-5.01791016 1.08025391 -5.01791016 1.08025391 -6.5625 1.0625 C-7.57441406 1.05347656 -8.58632812 1.04445312 -9.62890625 1.03515625 C-10.41136719 1.02355469 -11.19382813 1.01195312 -12 1 C-12 0.34 -12 -0.32 -12 -1 C-3.42857143 -2.42857143 -3.42857143 -2.42857143 0 0 Z " fill="#002885" transform="translate(223,151)"/>
<path d="M0 0 C4.62 0 9.24 0 14 0 C14 0.33 14 0.66 14 1 C9.05 1.66 4.1 2.32 -1 3 C-0.67 2.01 -0.34 1.02 0 0 Z " fill="#001F7F" transform="translate(247,306)"/>
<path d="M0 0 C1 3 1 3 0.00390625 5.04296875 C-0.47175781 5.75066406 -0.94742187 6.45835937 -1.4375 7.1875 C-1.91058594 7.90292969 -2.38367188 8.61835938 -2.87109375 9.35546875 C-3.24363281 9.89816406 -3.61617188 10.44085938 -4 11 C-5 8 -5 8 -4.00390625 5.95703125 C-3.52824219 5.24933594 -3.05257813 4.54164063 -2.5625 3.8125 C-2.08941406 3.09707031 -1.61632812 2.38164062 -1.12890625 1.64453125 C-0.75636719 1.10183594 -0.38382812 0.55914062 0 0 Z " fill="#00236D" transform="translate(349,225)"/>
<path d="M0 0 C0.33 0 0.66 0 1 0 C0.40546697 9.59453303 0.40546697 9.59453303 -3 13 C-2.52060632 8.28596212 -2.03165952 4.33420699 0 0 Z " fill="#002487" transform="translate(173,169)"/>
<path d="M0 0 C0.93045933 2.55144824 1.08564091 3.74006478 0.22265625 6.359375 C-0.16019531 7.14828125 -0.54304688 7.9371875 -0.9375 8.75 C-1.50791016 9.94882813 -1.50791016 9.94882813 -2.08984375 11.171875 C-2.39019531 11.77515625 -2.69054687 12.3784375 -3 13 C-3.33 13 -3.66 13 -4 13 C-3.55966813 7.80408388 -3.11696661 4.33664919 0 0 Z " fill="#0088D9" transform="translate(128,153)"/>
<path d="M0 0 C0.99 0.33 1.98 0.66 3 1 C3 4.96 3 8.92 3 13 C1.26315467 9.52630934 0.69915888 7.92380063 0.375 4.25 C0.30023438 3.45078125 0.22546875 2.6515625 0.1484375 1.828125 C0.09945312 1.22484375 0.05046875 0.6215625 0 0 Z " fill="#002292" transform="translate(108,240)"/>
<path d="M0 0 C-3.28463659 2.18975773 -6.20696275 2.99806563 -10 4 C-10 3.01 -10 2.02 -10 1 C-6.52674819 -0.1577506 -3.63932552 -0.06866652 0 0 Z " fill="#001B68" transform="translate(298,271)"/>
<path d="M0 0 C0.66 0 1.32 0 2 0 C1.67 2.64 1.34 5.28 1 8 C0.01 7.67 -0.98 7.34 -2 7 C-1.34 4.69 -0.68 2.38 0 0 Z " fill="#001F65" transform="translate(111,219)"/>
<path d="M0 0 C2.64 0.33 5.28 0.66 8 1 C6 3 6 3 2.375 3.125 C1.26125 3.08375 0.1475 3.0425 -1 3 C-0.67 2.01 -0.34 1.02 0 0 Z " fill="#002289" transform="translate(298,149)"/>
<path d="M0 0 C0.4125 0.474375 0.825 0.94875 1.25 1.4375 C3.182185 3.16266518 4.48192275 3.56584875 7 4 C7 4.66 7 5.32 7 6 C3.75791433 5.64950425 2.38472296 5.43778819 0.1875 2.9375 C-0.4003125 1.9784375 -0.4003125 1.9784375 -1 1 C-0.67 0.67 -0.34 0.34 0 0 Z " fill="#001D70" transform="translate(297,331)"/>
<path d="M0 0 C-3.18762365 2.12508244 -5.26512223 2.5020163 -9 3 C-9.33 2.34 -9.66 1.68 -10 1 C-6.78548731 -0.60725635 -3.56387464 -0.05748185 0 0 Z " fill="#001C63" transform="translate(313,259)"/>
</svg>
