<?xml version="1.0" encoding="UTF-8"?>
<svg version="1.1" xmlns="http://www.w3.org/2000/svg" width="310" height="310">
<path d="M0 0 C4.62870601 0.0171653 9.25689257 0.00716399 13.88558006 -0.01071739 C17.51319149 -0.02166235 21.14068369 -0.01806166 24.7682991 -0.01033401 C26.47355846 -0.00836543 28.17882947 -0.0106702 29.88407516 -0.01777267 C50.13785325 -0.08373456 69.70997919 2.0108611 85.21923828 16.28173828 C95.74765739 27.00880681 99.03582781 41.1704575 99.47705078 55.76611328 C99.16135449 71.30951298 94.39396477 84.85552912 83.57861328 96.14111328 C72.01177981 106.92185127 57.44585979 112.32040107 42.16455078 115.39111328 C42.98955078 115.98923828 43.81455078 116.58736328 44.66455078 117.20361328 C45.48955078 117.92548828 46.31455078 118.64736328 47.16455078 119.39111328 C47.16455078 120.38111328 47.16455078 121.37111328 47.16455078 122.39111328 C23.14515337 129.31383633 23.14515337 129.31383633 11.91455078 131.82861328 C10.83681396 132.07369629 10.83681396 132.07369629 9.73730469 132.32373047 C2.74279002 133.83760711 2.74279002 133.83760711 -0.83544922 133.39111328 C-2.57373047 132.21142578 -2.57373047 132.21142578 -4.14794922 130.51611328 C-4.74994141 129.86900391 -5.35193359 129.22189453 -5.97216797 128.55517578 C-8.55808162 125.55182952 -11.01528851 122.45886708 -13.46044922 119.34033203 C-17.40156242 114.446351 -21.55623624 109.73828599 -25.68701172 105.00439453 C-26.20352295 104.40916992 -26.72003418 103.81394531 -27.25219727 103.20068359 C-28.34141674 101.95576536 -29.44259542 100.72124215 -30.5534668 99.49560547 C-31.09898193 98.88491211 -31.64449707 98.27421875 -32.20654297 97.64501953 C-32.70081787 97.10047119 -33.19509277 96.55592285 -33.7043457 95.99487305 C-35.48481494 93.47039595 -35.32835562 91.34855167 -34.83544922 88.39111328 C-33.17762568 86.73328975 -31.20485751 87.24093924 -28.92358398 87.2175293 C-27.87481583 87.20403946 -26.82604767 87.19054962 -25.74549866 87.176651 C-24.60084641 87.16621262 -23.45619415 87.15577423 -22.27685547 87.14501953 C-19.86474285 87.11205289 -17.45263356 87.07884177 -15.04052734 87.04541016 C-11.22911109 86.99818041 -7.41770551 86.95381808 -3.60620117 86.91430664 C0.06623371 86.87432902 3.73837459 86.82281552 7.41064453 86.77001953 C9.10029579 86.7573983 9.10029579 86.7573983 10.82408142 86.74452209 C22.30831125 86.56708837 32.43884615 84.88449363 42.16455078 78.39111328 C46.7647822 73.56136923 49.09215994 67.02412717 49.19580078 60.39111328 C48.71968874 54.2968791 46.81099124 48.78828981 42.21533203 44.62548828 C32.3924619 37.5626218 21.37307499 38.06461294 9.75439453 37.97705078 C8.17541015 37.95831134 6.59643549 37.93873592 5.01747131 37.91836548 C0.88959521 37.86733113 -3.23831327 37.82755309 -7.36633301 37.79022217 C-11.58984189 37.75000118 -15.81321948 37.69899198 -20.03662109 37.64892578 C-28.302807 37.55250693 -36.56905861 37.4679948 -44.83544922 37.39111328 C-44.50544922 38.05111328 -44.17544922 38.71111328 -43.83544922 39.39111328 C-43.77144328 42.41291044 -43.76980412 45.40990022 -43.8137207 48.43066406 C-43.82332825 49.36729889 -43.83293579 50.30393372 -43.84283447 51.26895142 C-43.87590061 54.37485086 -43.91620392 57.48061297 -43.95654297 60.58642578 C-43.98083664 62.73590608 -44.00468057 64.8853915 -44.02809143 67.03488159 C-44.09100724 72.70011217 -44.16005263 78.36525231 -44.23034668 84.03039551 C-44.30096249 89.80814485 -44.36581983 95.58595846 -44.43115234 101.36376953 C-44.5602613 112.70628807 -44.69584158 124.04871944 -44.83544922 135.39111328 C-53.48444687 139.71561211 -72.29167069 132.61356511 -81.19482422 129.72705078 C-85.92391252 127.99169863 -91.1954332 126.0311293 -94.83544922 122.39111328 C-94.96764274 119.96967453 -95.03523253 117.57596602 -95.06005859 115.15258789 C-95.07714371 114.01584625 -95.07714371 114.01584625 -95.09457397 112.85614014 C-95.20545867 104.90550645 -95.25270674 96.95393002 -95.29541016 89.00268555 C-95.3176506 85.23203792 -95.3593602 81.46238551 -95.41845703 77.69213867 C-95.48968702 73.13914783 -95.52626396 68.58709067 -95.53852844 64.03357124 C-95.54890936 62.30122085 -95.57128711 60.56889755 -95.60612488 58.83686638 C-95.89718064 43.5709152 -95.89718064 43.5709152 -91.43896484 38.5378418 C-90.82331665 38.00876724 -90.20766846 37.47969269 -89.57336426 36.93458557 C-84.44341344 32.37858787 -83.35473377 25.2178318 -82.91748047 18.69970703 C-82.81894728 15.92670154 -82.76244496 13.16527519 -82.83544922 10.39111328 C-59.15030651 -2.61539254 -26.13778302 -0.09796531 0 0 Z " fill="#053B8B" transform="translate(152.83544921875,60.60888671875)"/>
<path d="M0 0 C14.67185173 2.23900467 25.62374916 5.61837202 36 17 C40.81286164 24.21294304 41.77412968 31.51775047 41 40 C35.40545388 63.9621825 12.68513975 81.45405504 -7 94 C-15.3908147 99.18154433 -24.12491572 103.70875046 -33 108 C-28.56548431 113.25393707 -23.97130898 118.31556011 -19.25 123.3125 C-18.54625244 124.05943115 -17.84250488 124.8063623 -17.11743164 125.57592773 C-12.53120034 130.42720439 -7.86165783 135.1708812 -3.109375 139.859375 C-0.45663068 142.55141923 2.01264951 145.37239137 4.4609375 148.25 C5.88407039 149.86818156 7.36744593 151.3389297 8.9375 152.8125 C11 155 11 155 11 158 C2.42007031 158.23252128 -6.15852689 158.40978297 -14.74083614 158.51812172 C-18.72688111 158.57014244 -22.71075902 158.64059004 -26.69555664 158.75439453 C-30.54722135 158.86369827 -34.39681363 158.92296971 -38.24991035 158.94877243 C-39.7137063 158.96713822 -41.17739864 159.00300764 -42.64030266 159.05730057 C-54.07572112 159.46451433 -54.07572112 159.46451433 -58.87417603 155.81254578 C-61.14523254 153.31075138 -63.09688384 150.78751884 -65 148 C-65.8353125 147.01128906 -66.670625 146.02257812 -67.53125 145.00390625 C-68.50578125 143.79541016 -68.50578125 143.79541016 -69.5 142.5625 C-70.65048828 141.21671875 -70.65048828 141.21671875 -71.82421875 139.84375 C-74 137 -74 137 -75.58203125 133.71875 C-77.75606385 129.75347157 -78.93209317 128.09064108 -83 126 C-91.32323654 125.72929213 -99.54421833 127.70254767 -107.65429688 129.36621094 C-142.52431923 135.97176976 -186.63128603 129.52404694 -216.72363281 109.87451172 C-230.37920462 100.42869787 -243.70435688 86.88697753 -247 70 C-249.62310201 52.59562243 -245.8162108 37.84972683 -235.49609375 23.47265625 C-234.60673025 22.26960001 -233.71222345 21.07032819 -232.8125 19.875 C-232.38437012 19.30563721 -231.95624023 18.73627441 -231.51513672 18.1496582 C-229.40328456 15.44547746 -228.32588504 14.10862835 -225 13 C-226.01653094 17.70573872 -227.96074721 22.06025274 -229.74609375 26.515625 C-234.26490127 39.07256054 -235.30596738 53.68428029 -230.33984375 66.28515625 C-220.32827844 86.570981 -203.63253096 97.7078936 -182.77709961 104.98168945 C-133.9273624 120.8563356 -75.68446764 111.19362885 -30.53125 88.4140625 C-17.8385964 81.76579109 -6.09619038 74.0538481 5 65 C6.02480469 64.20529297 6.02480469 64.20529297 7.0703125 63.39453125 C17.36663743 55.15285412 24.90495286 43.72334209 26.84765625 30.60546875 C27.22516914 24.1490304 25.12493236 18.97107233 21 14 C14.79451384 7.97896566 8.26917404 5.25268531 0 3 C0 2.01 0 1.02 0 0 Z " fill="#053C8B" transform="translate(254,91)"/>
<path d="M0 0 C14.67185173 2.23900467 25.62374916 5.61837202 36 17 C40.81286164 24.21294304 41.77412968 31.51775047 41 40 C35.40772908 63.95243749 12.6874977 81.46812298 -7 94 C-11.58535284 96.81652944 -16.27925747 99.41715696 -21 102 C-22.19619635 102.68074091 -23.39150474 103.36304441 -24.5859375 104.046875 C-25.73320312 104.69140625 -26.88046875 105.3359375 -28.0625 106 C-29.08472656 106.5775 -30.10695312 107.155 -31.16015625 107.75 C-34.19341848 109.08513606 -35.75144296 109.65284506 -39 109 C-41.45703125 106.91796875 -41.45703125 106.91796875 -43.8125 104.1875 C-44.60269531 103.29417969 -45.39289063 102.40085937 -46.20703125 101.48046875 C-48 99 -48 99 -48 96 C-47.42781738 95.75467529 -46.85563477 95.50935059 -46.26611328 95.2565918 C-27.59915753 87.1864595 -10.77506176 77.8715359 5 65 C5.68320312 64.47019531 6.36640625 63.94039062 7.0703125 63.39453125 C17.36663743 55.15285412 24.90495286 43.72334209 26.84765625 30.60546875 C27.22516914 24.1490304 25.12493236 18.97107233 21 14 C14.79451384 7.97896566 8.26917404 5.25268531 0 3 C0 2.01 0 1.02 0 0 Z " fill="#0076C7" transform="translate(254,91)"/>
<path d="M0 0 C4.7599104 0.64386965 9.1929704 1.5609552 13.8125 2.875 C22.56925033 5.23769277 31.47304586 6.13054095 40.4777832 7.04833984 C41.56663818 7.16000488 42.65549316 7.27166992 43.77734375 7.38671875 C44.75952881 7.48170654 45.74171387 7.57669434 46.75366211 7.67456055 C49 8 49 8 50 9 C50.08700342 10.63472882 50.10701063 12.27314055 50.09765625 13.91015625 C50.09443359 14.89951172 50.09121094 15.88886719 50.08789062 16.90820312 C50.07532227 18.46958008 50.07532227 18.46958008 50.0625 20.0625 C50.05798828 21.10728516 50.05347656 22.15207031 50.04882812 23.22851562 C50.03699913 25.8190666 50.02051689 28.40950559 50 31 C43.03996553 31.02526838 36.0799428 31.04283222 29.11987305 31.05493164 C26.75007688 31.05997341 24.38028385 31.06680665 22.01049805 31.07543945 C18.61245961 31.0875119 15.21446215 31.09322971 11.81640625 31.09765625 C10.74975235 31.10281754 9.68309845 31.10797882 8.5841217 31.11329651 C7.60318039 31.11337204 6.62223907 31.11344757 5.61157227 31.11352539 C4.74331314 31.115746 3.87505402 31.11796661 2.98048401 31.12025452 C1 31 1 31 0 30 C-0.08783542 27.78144736 -0.10694609 25.56011504 -0.09765625 23.33984375 C-0.0962413 22.67537735 -0.09482635 22.01091095 -0.09336853 21.3263092 C-0.08775518 19.19666101 -0.07520054 17.06711661 -0.0625 14.9375 C-0.05748671 13.49674631 -0.05292351 12.05599097 -0.04882812 10.61523438 C-0.03778145 7.07678898 -0.02050792 3.53840461 0 0 Z " fill="#053C8B" transform="translate(58,218)"/>
<path d="M0 0 C4.61713835 3.25915648 7.68707072 6.74842596 9.1875 12.25 C10.01384232 18.7730962 9.00628768 23.85183717 5.1875 29.25 C0.88011674 34.01716013 -3.8263518 35.91194549 -10.125 36.625 C-16.20466376 36.00672911 -21.64760225 33.99576823 -25.75 29.3125 C-29.32036681 24.01104625 -30.59673452 19.68317381 -29.8125 13.25 C-27.50435921 6.08261544 -23.48527361 1.67193519 -16.8125 -1.75 C-11.14892208 -3.52427441 -5.22390456 -2.78082851 0 0 Z " fill="#0095DE" transform="translate(51.8125,60.75)"/>
<path d="M0 0 C-1.01653094 4.70573872 -2.96074721 9.06025274 -4.74609375 13.515625 C-9.26490127 26.07256054 -10.30596738 40.68428029 -5.33984375 53.28515625 C-1.04726483 61.98294735 4.26677513 70.09715765 11.9375 76.125 C12.77152344 76.78757812 13.60554688 77.45015625 14.46484375 78.1328125 C16.90026583 79.92654401 19.38057518 81.49113633 22 83 C21.01 83.66 20.02 84.32 19 85 C5.49030636 76.82308017 -4.08436126 65.5112906 -10 51 C-10.71706652 47.86177948 -10.94426307 45.23274181 -11 42 C-11.33 42 -11.66 42 -12 42 C-12 35.07 -12 28.14 -12 21 C-12.99 21.66 -13.98 22.32 -15 23 C-13.76950115 18.4135952 -11.93337318 15.2717264 -9.0234375 11.61328125 C-7.73215786 9.89621144 -7.73215786 9.89621144 -8 7 C-6.7578125 5.17578125 -6.7578125 5.17578125 -5.125 3.3125 C-4.59132813 2.68988281 -4.05765625 2.06726563 -3.5078125 1.42578125 C-2 0 -2 0 0 0 Z " fill="#002B7D" transform="translate(29,104)"/>
<path d="M0 0 C9.10179668 -0.04648964 18.20355203 -0.0819533 27.30544186 -0.10362434 C31.53252822 -0.11402916 35.7595329 -0.12812754 39.98657227 -0.15087891 C44.07145037 -0.1727257 48.15625027 -0.18459342 52.24118233 -0.18975449 C53.79397372 -0.19342911 55.34676118 -0.20060433 56.89951897 -0.21146011 C70.20352845 -0.3007117 80.80921029 0.20415403 90.86328125 9.7734375 C93.73050174 12.90753531 96 15.56134309 96 20 C95.01 21.485 95.01 21.485 94 23 C93.76925781 22.40832031 93.53851563 21.81664063 93.30078125 21.20703125 C90.17517151 13.63391358 86.49522888 9.47194219 79.16015625 5.796875 C74.20888672 3.97036689 69.12031162 3.86072596 63.89306641 3.79467773 C63.20944031 3.78477814 62.52581421 3.77487854 61.82147217 3.76467896 C59.58153645 3.73331237 57.34157958 3.70840581 55.1015625 3.68359375 C53.54071529 3.66300271 51.9798734 3.6420057 50.41903687 3.62062073 C46.32562579 3.56562195 42.23216625 3.5161155 38.13867188 3.46777344 C33.95568568 3.41739559 29.77276921 3.36179481 25.58984375 3.30664062 C17.39328826 3.19933082 9.19667414 3.09782637 1 3 C0.67 2.01 0.34 1.02 0 0 Z " fill="#033285" transform="translate(108,95)"/>
<path d="M0 0 C0.33 0.99 0.66 1.98 1 3 C2.27001368 4.15278165 3.58941535 5.25207175 4.9375 6.3125 C8.42336534 9.24337068 10.10303189 11.40303842 11 16 C11.66 16 12.32 16 13 16 C15.35480636 20.70961271 14.71545601 27.53478745 13.28125 32.4765625 C12.29542264 34.72647495 11.19001654 36.85168631 10 39 C9.49146484 40.07314453 9.49146484 40.07314453 8.97265625 41.16796875 C3.96191115 51.24295445 -5.89149076 63.08043371 -16.5 67.4375 C-17.325 67.623125 -18.15 67.80875 -19 68 C-19 67.34 -19 66.68 -19 66 C-17.2421875 64.44921875 -17.2421875 64.44921875 -14.875 62.6875 C-14.04871094 62.0584375 -13.22242188 61.429375 -12.37109375 60.78125 C-11.19740234 59.89953125 -11.19740234 59.89953125 -10 59 C0.89784991 50.77101129 8.83123527 39.22111136 10.84765625 25.60546875 C11.22516914 19.1490304 9.12493236 13.97107233 5 9 C1.18762303 5.71942199 -2.81740949 2.78839367 -7 0 C-4.3333581 -1.33332095 -2.83319697 -0.67102033 0 0 Z " fill="#0067C2" transform="translate(270,96)"/>
<path d="M0 0 C2.0625 0.4375 2.0625 0.4375 4 1 C3.01 1.33 2.02 1.66 1 2 C2.21072624 5.63217873 3.93957988 7.27940155 6.5625 10.0625 C10.53074827 14.3309985 14.24955954 18.72451553 17.84765625 23.30859375 C20.92098775 27.15165256 24.11691629 30.88744193 27.32006836 34.62255859 C29.36623375 37.01887583 31.24928959 39.37393438 33 42 C39.01326751 41.42085333 45.00892722 40.77662055 51 40 C49.43292576 42.51960956 48.53173962 43.80893424 45.6953125 44.828125 C44.84710938 44.96734375 43.99890625 45.1065625 43.125 45.25 C42.28195313 45.39953125 41.43890625 45.5490625 40.5703125 45.703125 C33.72719923 46.49351498 33.72719923 46.49351498 31.26171875 44.8203125 C30.74222656 44.26085937 30.22273438 43.70140625 29.6875 43.125 C29.08550781 42.47789062 28.48351562 41.83078125 27.86328125 41.1640625 C25.27736759 38.16071624 22.82016071 35.0677538 20.375 31.94921875 C16.4338868 27.05523772 12.27921298 22.34717271 8.1484375 17.61328125 C7.63192627 17.01805664 7.11541504 16.42283203 6.58325195 15.80957031 C5.49403247 14.56465207 4.3928538 13.33012887 3.28198242 12.10449219 C2.73646729 11.49379883 2.19095215 10.88310547 1.62890625 10.25390625 C0.8874939 9.43708374 0.8874939 9.43708374 0.13110352 8.60375977 C-1.64936572 6.07928267 -1.4929064 3.95743839 -1 1 C-0.67 0.67 -0.34 0.34 0 0 Z " fill="#012F83" transform="translate(119,148)"/>
<path d="M0 0 C3.6326173 3.54114852 6.99450613 7.23248516 10.25 11.125 C10.72163574 11.68541992 11.19327148 12.24583984 11.67919922 12.82324219 C15.60342306 17.49751083 19.47275283 22.21556042 23.3203125 26.953125 C24.83746979 28.87015567 24.83746979 28.87015567 26 30 C27.8718094 30.09386381 29.7471806 30.11743804 31.62133789 30.11352539 C32.82250748 30.11344986 34.02367706 30.11337433 35.26124573 30.11329651 C37.22214394 30.10555458 37.22214394 30.10555458 39.22265625 30.09765625 C40.56644132 30.09579198 41.91022707 30.09436812 43.25401306 30.09336853 C46.79682277 30.08954402 50.3395917 30.07971432 53.88238525 30.06866455 C57.49515227 30.05844899 61.10792584 30.0538706 64.72070312 30.04882812 C71.8138188 30.03809198 78.90690674 30.02101636 86 30 C85.01 29.01 84.02 28.02 83 27 C83.33 26.34 83.66 25.68 84 25 C85.98 27.31 87.96 29.62 90 32 C88.84488167 32.0154612 88.84488167 32.0154612 87.66642761 32.03123474 C80.41222643 32.12917727 73.15811104 32.23168711 65.90404797 32.33933926 C62.17458726 32.39452396 58.44511864 32.44793681 54.71557617 32.49731445 C51.11695357 32.54502374 47.51842563 32.59736887 43.91991615 32.65294075 C42.54641385 32.67333457 41.17288562 32.69205255 39.79933739 32.70907402 C37.87682515 32.73318357 35.95439759 32.76378238 34.03198242 32.79467773 C32.93722092 32.81022202 31.84245941 32.8257663 30.71452332 32.84178162 C27.90377896 32.88735656 27.90377896 32.88735656 25 34 C18.75047184 27.1890485 12.80856237 20.18871651 7 13 C5.31534974 10.93515378 3.62630626 8.87395366 1.9375 6.8125 C0.625 5.20833333 -0.6875 3.60416667 -2 2 C-1.34 1.34 -0.68 0.68 0 0 Z " fill="#00297B" transform="translate(173,215)"/>
<path d="M0 0 C0.33 0 0.66 0 1 0 C1 8.91 1 17.82 1 27 C16.18 27 31.36 27 47 27 C47 27.66 47 28.32 47 29 C40.3247966 29.02526945 33.64960543 29.04283268 26.97436523 29.05493164 C24.70157409 29.05997325 22.4287862 29.06680637 20.15600586 29.07543945 C16.89696449 29.08751261 13.63796583 29.09322987 10.37890625 29.09765625 C9.35599991 29.10281754 8.33309357 29.10797882 7.27919006 29.11329651 C6.33829025 29.11337204 5.39739044 29.11344757 4.42797852 29.11352539 C3.59524918 29.115746 2.76251984 29.11796661 1.90455627 29.12025452 C0 29 0 29 -1 28 C-1.09983058 26.01242972 -1.13080753 24.0213248 -1.1328125 22.03125 C-1.13410156 20.82082031 -1.13539062 19.61039063 -1.13671875 18.36328125 C-1.13285156 17.08839844 -1.12898438 15.81351563 -1.125 14.5 C-1.12886719 13.22511719 -1.13273437 11.95023438 -1.13671875 10.63671875 C-1.13542969 9.42628906 -1.13414063 8.21585938 -1.1328125 6.96875 C-1.13168457 5.84919922 -1.13055664 4.72964844 -1.12939453 3.57617188 C-1 1 -1 1 0 0 Z " fill="#13478F" transform="translate(59,220)"/>
<path d="M0 0 C2.31 0.33 4.62 0.66 7 1 C5.02 1.99 5.02 1.99 3 3 C3 11.25 3 19.5 3 28 C18.18 28 33.36 28 49 28 C48.505 25.03 48.505 25.03 48 22 C47.67 22 47.34 22 47 22 C46.505 16.06 46.505 16.06 46 10 C46.99 9.34 47.98 8.68 49 8 C50 9 50 9 50.11352539 11.13305664 C50.10828857 12.04949951 50.10305176 12.96594238 50.09765625 13.91015625 C50.09443359 14.89951172 50.09121094 15.88886719 50.08789062 16.90820312 C50.07532227 18.46958008 50.07532227 18.46958008 50.0625 20.0625 C50.05798828 21.10728516 50.05347656 22.15207031 50.04882812 23.22851562 C50.03699913 25.8190666 50.02051689 28.40950559 50 31 C49.34 31 48.68 31 48 31 C48 30.34 48 29.68 48 29 C32.82 29 17.64 29 2 29 C1.5625 16.1875 1.5625 16.1875 1.43188477 12.15698242 C1.39377686 11.10873291 1.35566895 10.0604834 1.31640625 8.98046875 C1.27974854 7.90692139 1.24309082 6.83337402 1.20532227 5.72729492 C1.10458153 2.90688447 1.10458153 2.90688447 0 0 Z " fill="#002D84" transform="translate(58,218)"/>
<path d="M0 0 C0.33 0 0.66 0 1 0 C1.027193 1.58323688 1.04648306 3.16661062 1.0625 4.75 C1.07410156 5.63171875 1.08570313 6.5134375 1.09765625 7.421875 C0.84448307 14.10564688 -2.33815533 19.29062239 -6.96875 24.00390625 C-13.06893433 29.45537695 -13.06893433 29.45537695 -17 31 C-20.75 30.625 -20.75 30.625 -24 30 C-21.09759795 28.0650653 -18.30314279 26.79367222 -15.125 25.375 C-9.33708785 22.46012376 -6.32107978 20.0632288 -4 14 C-2.49758757 9.36797762 -1.18764812 4.72405285 0 0 Z M-25 31 C-21 32 -21 32 -21 32 Z M-29 32 C-25 33 -25 33 -25 33 Z " fill="#012C86" transform="translate(204,117)"/>
<path d="M0 0 C4.11737677 0.52058787 5.99002414 2.65112727 8.8125 5.5625 C9.69550781 6.47128906 10.57851562 7.38007813 11.48828125 8.31640625 C14.1122447 11.11992552 16.6349185 13.98762644 19.12890625 16.90625 C22.89452622 21.11997088 26.96907508 25.0420697 31 29 C26.72041581 29 24.83125738 27.74910632 21.66796875 24.8984375 C16.59576032 19.73836404 11.69896966 14.50042944 7 9 C5.09710766 6.85362734 3.19266101 4.70868082 1.28515625 2.56640625 C0 1 0 1 0 0 Z " fill="#002D81" transform="translate(219,201)"/>
<path d="M0 0 C4.40855122 3.99660463 8.5867547 7.79124138 9 14 C8.34 14.99 7.68 15.98 7 17 C6.76925781 16.40832031 6.53851563 15.81664063 6.30078125 15.20703125 C3.237412 7.78471762 -0.38068417 3.44025807 -7.62402344 -0.10620117 C-11.95815445 -1.73662181 -16.41190883 -1.94623672 -21 -2.25 C-21.96550781 -2.32734375 -22.93101562 -2.4046875 -23.92578125 -2.484375 C-26.2831369 -2.67109624 -28.64053534 -2.84261705 -31 -3 C-31 -3.33 -31 -3.66 -31 -4 C-28.81274749 -4.16988369 -26.62518299 -4.33575269 -24.4375 -4.5 C-22.61025391 -4.63921875 -22.61025391 -4.63921875 -20.74609375 -4.78125 C-12.30369461 -5.27423681 -7.07886643 -4.77437564 0 0 Z " fill="#00297D" transform="translate(195,101)"/>
<path d="M0 0 C1.23823689 3.8287482 1.13352525 7.63697457 1.11352539 11.61425781 C1.11367142 12.37562042 1.11381744 13.13698303 1.1139679 13.92141724 C1.11327255 16.43201571 1.10549787 18.94253952 1.09765625 21.453125 C1.09579073 23.19618692 1.09436746 24.93924937 1.09336853 26.68231201 C1.08955394 31.26572116 1.07973267 35.84909851 1.06866455 40.43249512 C1.0584277 45.11124237 1.05386604 49.78999477 1.04882812 54.46875 C1.03810946 63.64584728 1.02104572 72.822921 1 82 C0.34 82 -0.32 82 -1 82 C-1.17680086 71.60400479 -1.34276755 61.20789912 -1.49477577 50.81151009 C-1.56569706 45.98442397 -1.64039651 41.15745712 -1.72363281 36.33056641 C-1.80377301 31.67525238 -1.87411631 27.01988533 -1.93757248 22.36431503 C-1.96356263 20.58519887 -1.99312579 18.80613131 -2.02626419 17.02713394 C-2.0719602 14.54172207 -2.10512501 12.05644312 -2.13525391 9.57080078 C-2.1517952 8.82993225 -2.16833649 8.08906372 -2.18537903 7.32574463 C-2.20026656 5.54948368 -2.10956147 3.7729413 -2 2 C-1.34 1.34 -0.68 0.68 0 0 Z " fill="#002D82" transform="translate(61,101)"/>
<path d="M0 0 C0.33 0.99 0.66 1.98 1 3 C2.27001368 4.15278165 3.58941535 5.25207175 4.9375 6.3125 C8.42336534 9.24337068 10.10303189 11.40303842 11 16 C11.66 16 12.32 16 13 16 C14.20272819 18.40545638 14.10071472 19.94996953 14.0625 22.625 C14.05347656 23.44226563 14.04445313 24.25953125 14.03515625 25.1015625 C14.02355469 25.72804688 14.01195312 26.35453125 14 27 C13.01 27.33 12.02 27.66 11 28 C10.98582031 27.29875 10.97164063 26.5975 10.95703125 25.875 C10.61401429 19.05174366 9.63361332 14.1557106 5 9 C1.22529422 5.64912083 -2.80552707 2.79631529 -7 0 C-4.3333581 -1.33332095 -2.83319697 -0.67102033 0 0 Z " fill="#005DB7" transform="translate(270,96)"/>
<path d="M0 0 C0 0.33 0 0.66 0 1 C-6.57232382 2.17769964 -13.08517278 2.21932185 -19.75 2.25 C-21.45349609 2.2809375 -21.45349609 2.2809375 -23.19140625 2.3125 C-24.27808594 2.31765625 -25.36476563 2.3228125 -26.484375 2.328125 C-27.47147461 2.3374707 -28.45857422 2.34681641 -29.47558594 2.35644531 C-32.36777498 1.94807046 -33.23239443 1.26367071 -35 -1 C-30.47990456 -1.2270593 -25.95901094 -1.42831539 -21.4375 -1.625 C-19.52227539 -1.72167969 -19.52227539 -1.72167969 -17.56835938 -1.8203125 C-5.85573358 -2.30707097 -5.85573358 -2.30707097 0 0 Z " fill="#002D84" transform="translate(144,205)"/>
<path d="M0 0 C1.10472656 0.06058594 2.20945312 0.12117187 3.34765625 0.18359375 C16.22806767 0.88040059 29.11216114 1.4593123 42 2 C42 2.33 42 2.66 42 3 C37.30502708 3.21859341 32.60981428 3.4151226 27.91308594 3.59204102 C26.31843935 3.65512345 24.72401131 3.72402934 23.12988281 3.79907227 C20.82651348 3.90645713 18.52314763 3.9922511 16.21875 4.07421875 C15.16512268 4.1302552 15.16512268 4.1302552 14.09020996 4.18742371 C8.75610358 4.34622577 4.90252029 3.10279669 0 1 C0 0.67 0 0.34 0 0 Z " fill="#043182" transform="translate(91,217)"/>
<path d="M0 0 C0.33 0 0.66 0 1 0 C1.01458252 0.80743652 1.02916504 1.61487305 1.04418945 2.44677734 C1.11846086 6.0900127 1.21519025 9.73231033 1.3125 13.375 C1.33505859 14.64601562 1.35761719 15.91703125 1.38085938 17.2265625 C1.41630859 18.43828125 1.45175781 19.65 1.48828125 20.8984375 C1.51446533 22.01911621 1.54064941 23.13979492 1.56762695 24.29443359 C1.71031006 25.18727051 1.85299316 26.08010742 2 27 C2.99 27.66 3.98 28.32 5 29 C3.33388095 29.042721 1.66617115 29.04063832 0 29 C-1.80279191 27.19720809 -1.13036605 24.45952299 -1.1328125 22.03125 C-1.13410156 20.82082031 -1.13539062 19.61039063 -1.13671875 18.36328125 C-1.13285156 17.08839844 -1.12898438 15.81351563 -1.125 14.5 C-1.12886719 13.22511719 -1.13273437 11.95023438 -1.13671875 10.63671875 C-1.13542969 9.42628906 -1.13414063 8.21585938 -1.1328125 6.96875 C-1.13168457 5.84919922 -1.13055664 4.72964844 -1.12939453 3.57617188 C-1 1 -1 1 0 0 Z " fill="#083B8C" transform="translate(59,220)"/>
<path d="M0 0 C1.06863281 0.09925781 2.13726562 0.19851562 3.23828125 0.30078125 C7.3086323 0.71328325 11.37383901 1.15090622 15.4375 1.625 C15.1075 2.615 14.7775 3.605 14.4375 4.625 C7.65739344 4.88577333 1.03713582 4.26983231 -5.5625 2.625 C-6.2225 1.965 -6.8825 1.305 -7.5625 0.625 C-4.84710773 -0.73269613 -3.01399184 -0.28484725 0 0 Z " fill="#012E8B" transform="translate(92.5625,201.375)"/>
<path d="M0 0 C0 0.66 0 1.32 0 2 C-8.42740663 5.48153501 -14.98296037 6.47086462 -24 5 C-24 4.67 -24 4.34 -24 4 C-22.48019531 3.70996094 -22.48019531 3.70996094 -20.9296875 3.4140625 C-19.57808432 3.15125077 -18.22652408 2.88821817 -16.875 2.625 C-16.20984375 2.49867188 -15.5446875 2.37234375 -14.859375 2.2421875 C-11.70311395 1.62331279 -8.73216043 0.90565462 -5.6953125 -0.1640625 C-3 -1 -3 -1 0 0 Z " fill="#022F85" transform="translate(216,168)"/>
<path d="M0 0 C2.60590351 0.44981073 5.20940531 0.90944222 7.8125 1.375 C8.55048828 1.50132813 9.28847656 1.62765625 10.04882812 1.7578125 C13.60594646 2.40163482 15.95494084 2.96996056 19 5 C19.33 5.99 19.66 6.98 20 8 C18.68 8 17.36 8 16 8 C16 7.01 16 6.02 16 5 C15.443125 5.03480469 14.88625 5.06960937 14.3125 5.10546875 C8.45298962 5.313323 4.3699664 4.34325807 -1 2 C-0.67 1.34 -0.34 0.68 0 0 Z " fill="#056DC2" transform="translate(254,91)"/>
<path d="M0 0 C-3.54089484 1.93487342 -5.94022702 2.25913445 -10 2 C-10.99 1.67 -11.98 1.34 -13 1 C-15.79993219 0.73434378 -18.59943535 0.55621847 -21.40625 0.37890625 C-24 0 -24 0 -27 -2 C-20.17493276 -5.41253362 -7.2584597 -1.09141803 0 0 Z " fill="#002A80" transform="translate(101,226)"/>
<path d="M0 0 C0.99 0.33 1.98 0.66 3 1 C-0.31514488 6.12340572 -5.32623779 9.8086912 -11 12 C-13.3125 11.16015625 -13.3125 11.16015625 -15 10 C-14.16855469 9.52949219 -13.33710938 9.05898437 -12.48046875 8.57421875 C-11.39378906 7.95160156 -10.30710938 7.32898438 -9.1875 6.6875 C-8.10855469 6.07261719 -7.02960938 5.45773438 -5.91796875 4.82421875 C-3.55359169 3.34608744 -1.81952282 2.07489444 0 0 Z " fill="#022F87" transform="translate(233,155)"/>
<path d="M0 0 C0.625 1.8125 0.625 1.8125 1 4 C0.34 4.99 -0.32 5.98 -1 7 C-0.67 4.69 -0.34 2.38 0 0 Z M-2 7 C-1.67 7 -1.34 7 -1 7 C-1 13.93 -1 20.86 -1 28 C-1.99 28.33 -2.98 28.66 -4 29 C-4.33 26.03 -4.66 23.06 -5 20 C-4.34 20 -3.68 20 -3 20 C-2.67 15.71 -2.34 11.42 -2 7 Z " fill="#023086" transform="translate(11,132)"/>
<path d="M0 0 C5.19644079 1.59890486 10.06612142 3.74138003 15 6 C13.390625 7.1796875 13.390625 7.1796875 11 8 C7.984375 6.8828125 7.984375 6.8828125 4.75 5.125 C3.67234375 4.55007812 2.5946875 3.97515625 1.484375 3.3828125 C0.66453125 2.92648438 -0.1553125 2.47015625 -1 2 C-0.67 1.34 -0.34 0.68 0 0 Z " fill="#012B7F" transform="translate(51,188)"/>
<path d="M0 0 C-2.95344681 1.96896454 -4.05785837 2.33984715 -7.4375 2.6875 C-8.19933594 2.77386719 -8.96117187 2.86023438 -9.74609375 2.94921875 C-12.03211792 3.00072363 -13.82096985 2.66016176 -16 2 C-16 1.34 -16 0.68 -16 0 C-10.42289352 -1.06795656 -5.60563042 -0.82622671 0 0 Z " fill="#03318F" transform="translate(163,202)"/>
<path d="M0 0 C1.29366973 4.86169432 1.56132459 8.51248984 -0.25 13.3125 C-2 16 -2 16 -4.1875 16.875 C-4.785625 16.91625 -5.38375 16.9575 -6 17 C-5.57074219 15.95779297 -5.57074219 15.95779297 -5.1328125 14.89453125 C-3.94269408 11.8535735 -2.89736547 8.78867525 -1.875 5.6875 C-1.52179688 4.61886719 -1.16859375 3.55023438 -0.8046875 2.44921875 C-0.53914062 1.64097656 -0.27359375 0.83273438 0 0 Z " fill="#013282" transform="translate(247,130)"/>
<path d="M0 0 C0.66 0 1.32 0 2 0 C1.34 5.61 0.68 11.22 0 17 C-0.66 17 -1.32 17 -2 17 C-1.85848172 14.9163691 -1.71162064 12.83310062 -1.5625 10.75 C-1.48128906 9.58984375 -1.40007813 8.4296875 -1.31640625 7.234375 C-1.06752213 4.69022624 -0.71885058 2.44046752 0 0 Z " fill="#0D4390" transform="translate(8,135)"/>
<path d="M0 0 C1.98 0 3.96 0 6 0 C5.01 0.66 4.02 1.32 3 2 C3.825 2.598125 4.65 3.19625 5.5 3.8125 C6.325 4.534375 7.15 5.25625 8 6 C8 6.99 8 7.98 8 9 C4.56995185 7.85665062 2.61942203 6.47783165 0 4 C0 2.68 0 1.36 0 0 Z " fill="#012F89" transform="translate(192,174)"/>
<path d="M0 0 C0.98484375 0.11085937 1.9696875 0.22171875 2.984375 0.3359375 C3.73203125 0.43132812 4.4796875 0.52671875 5.25 0.625 C2.80557433 3.06942567 1.6894472 3.03780116 -1.6875 3.375 C-3.00041016 3.52195313 -3.00041016 3.52195313 -4.33984375 3.671875 C-6.75 3.625 -6.75 3.625 -9.75 1.625 C-6.30824478 -0.52199969 -3.9779708 -0.47356795 0 0 Z " fill="#0E418E" transform="translate(148.75,217.375)"/>
<path d="M0 0 C0.66 0 1.32 0 2 0 C1.49396008 2.16874252 1.00016187 3.99967627 0 6 C-0.99 6.33 -1.98 6.66 -3 7 C-3.33 7.66 -3.66 8.32 -4 9 C-4.99 8.67 -5.98 8.34 -7 8 C-5.88200014 6.66079162 -4.75538103 5.32877444 -3.625 4 C-2.68527344 2.88625 -2.68527344 2.88625 -1.7265625 1.75 C-1.15679687 1.1725 -0.58703125 0.595 0 0 Z " fill="#052E92" transform="translate(27,104)"/>
<path d="M0 0 C3.91211733 1.15585285 6.8745041 2.35534962 10 5 C7.8125 5.8125 7.8125 5.8125 5 6 C2.1875 3.625 2.1875 3.625 0 1 C0 0.67 0 0.34 0 0 Z " fill="#033086" transform="translate(43,201)"/>
<path d="M0 0 C0.99 0.66 1.98 1.32 3 2 C1.35 4.64 -0.3 7.28 -2 10 C-2.66 9.01 -3.32 8.02 -4 7 C-2.68 4.69 -1.36 2.38 0 0 Z " fill="#0068BC" transform="translate(287,142)"/>
<path d="M0 0 C2.5 1.75 2.5 1.75 5 4 C5 5.32 5 6.64 5 8 C4.34 8 3.68 8 3 8 C1.7109375 6.46875 1.7109375 6.46875 0.375 4.5 C-0.29402344 3.52546875 -0.29402344 3.52546875 -0.9765625 2.53125 C-1.31429687 2.0259375 -1.65203125 1.520625 -2 1 C-1.34 0.67 -0.68 0.34 0 0 Z " fill="#002871" transform="translate(126,160)"/>
<path d="M0 0 C5.28 0.33 10.56 0.66 16 1 C16 1.33 16 1.66 16 2 C14.08591243 2.24979445 12.16848389 2.47408014 10.25 2.6875 C9.18265625 2.81511719 8.1153125 2.94273437 7.015625 3.07421875 C4 3 4 3 0 0 Z " fill="#002F82" transform="translate(91,217)"/>
<path d="M0 0 C2.5 1.75 2.5 1.75 5 4 C5 5.32 5 6.64 5 8 C4.34 8 3.68 8 3 8 C0.8125 5.6875 0.8125 5.6875 -1 3 C-0.67 2.01 -0.34 1.02 0 0 Z " fill="#002779" transform="translate(142,179)"/>
<path d="M0 0 C2.60608273 2.5162178 4.89381685 5.05134359 7 8 C6.67 8.66 6.34 9.32 6 10 C1.77202073 6.91709845 1.77202073 6.91709845 0 5 C-0.375 2.1875 -0.375 2.1875 0 0 Z " fill="#022E80" transform="translate(15,174)"/>
<path d="M0 0 C0.33 0.66 0.66 1.32 1 2 C-0.98 4.31 -2.96 6.62 -5 9 C-5.33 8.01 -5.66 7.02 -6 6 C-2.83636364 1.41818182 -2.83636364 1.41818182 0 0 Z " fill="#0083D8" transform="translate(58,85)"/>
<path d="M0 0 C4.27786748 0.49360009 7.09567131 1.04783565 11 3 C7.37 3 3.74 3 0 3 C0 2.01 0 1.02 0 0 Z M4 3 C6 4 6 4 6 4 Z " fill="#002886" transform="translate(65,220)"/>
<path d="M0 0 C3.63 0 7.26 0 11 0 C11 0.66 11 1.32 11 2 C7.75 2.6875 7.75 2.6875 4 3 C2.68 2.01 1.36 1.02 0 0 Z " fill="#114893" transform="translate(201,63)"/>
<path d="M0 0 C0.66 0.66 1.32 1.32 2 2 C-2.75 6 -2.75 6 -5 6 C-3.63016497 2.83884224 -3.0109362 2.0072908 0 0 Z " fill="#0067C6" transform="translate(256,175)"/>
<path d="M0 0 C0.78375 0.04125 1.5675 0.0825 2.375 0.125 C0.725 1.775 -0.925 3.425 -2.625 5.125 C-2.625 4.465 -2.625 3.805 -2.625 3.125 C-3.285 2.795 -3.945 2.465 -4.625 2.125 C-2.625 0.125 -2.625 0.125 0 0 Z " fill="#01A4E2" transform="translate(30.625,62.875)"/>
<path d="M0 0 C0.66 0.33 1.32 0.66 2 1 C2 4.63 2 8.26 2 12 C1.67 12 1.34 12 1 12 C1 9.03 1 6.06 1 3 C0.01 2.67 -0.98 2.34 -2 2 C-1.34 1.34 -0.68 0.68 0 0 Z " fill="#00247F" transform="translate(106,226)"/>
</svg>
